<?xml version="1.0" standalone="no"?>
<!DOCTYPE svg PUBLIC "-//W3C//DTD SVG 1.1//EN" "http://www.w3.org/Graphics/SVG/1.1/DTD/svg11.dtd" >
<svg xmlns="http://www.w3.org/2000/svg" xmlns:xlink="http://www.w3.org/1999/xlink" version="1.1">
<metadata></metadata>
<defs>
<font id="commeregular" horiz-adv-x="1212" >
<font-face units-per-em="2048" ascent="1638" descent="-410" />
<missing-glyph horiz-adv-x="527" />
<glyph unicode="&#xfb00;" horiz-adv-x="1522" d="M1199 1082v80q0 135 35 178.5t141 43.5q57 0 105 -8l12 124q-4 1 -21.5 4.5t-55 8t-74.5 4.5h-15q-79 0 -132 -14t-95 -52t-62 -109t-20 -180v-83l-184 -14l-5 -94h189v-971h182v971h274v111h-274zM438 1082v80q0 135 35 178.5t141 43.5q57 0 105 -8l12 124 q-4 1 -21.5 4.5t-55 8t-74.5 4.5h-15q-79 0 -132 -14t-95 -52t-62 -109t-20 -180v-83l-184 -14l-5 -94h189v-971h182v971h274v111h-274z" />
<glyph unicode="&#xfb01;" horiz-adv-x="1355" d="M1205 1431q0 58 -34.5 91.5t-97.5 33.5t-97.5 -33.5t-34.5 -91.5q0 -60 34.5 -94.5t97.5 -34.5t97.5 34.5t34.5 94.5zM980 1082v-1082h182v1082h-182zM438 1082v80q0 135 35 178.5t141 43.5q57 0 105 -8l12 124q-4 1 -21.5 4.5t-55 8t-74.5 4.5h-15q-79 0 -132 -14 t-95 -52t-62 -109t-20 -180v-83l-184 -14l-5 -94h189v-971h182v971h274v111h-274z" />
<glyph unicode="&#xfb02;" horiz-adv-x="1403" d="M1239 -8h71l14 132l-62 4q-50 4 -74 9.5t-41.5 26t-21.5 53t-4 95.5v1248l-181 -20v-1230q0 -98 18 -161.5t57.5 -97.5t90.5 -46.5t128 -12.5h5zM438 1082v80q0 135 35 178.5t141 43.5q57 0 105 -8l12 124q-4 1 -21.5 4.5t-55 8t-74.5 4.5h-15q-79 0 -132 -14t-95 -52 t-62 -109t-20 -180v-83l-184 -14l-5 -94h189v-971h182v971h274v111h-274z" />
<glyph unicode="&#xfb03;" horiz-adv-x="2116" d="M1966 1431q0 58 -34.5 91.5t-97.5 33.5t-97.5 -33.5t-34.5 -91.5q0 -60 34.5 -94.5t97.5 -34.5t97.5 34.5t34.5 94.5zM1741 1082v-1082h182v1082h-182zM1199 1082v80q0 135 35 178.5t141 43.5q57 0 105 -8l12 124q-4 1 -21.5 4.5t-55 8t-74.5 4.5h-15q-79 0 -132 -14 t-95 -52t-62 -109t-20 -180v-83l-184 -14l-5 -94h189v-971h182v971h274v111h-274zM438 1082v80q0 135 35 178.5t141 43.5q57 0 105 -8l12 124q-4 1 -21.5 4.5t-55 8t-74.5 4.5h-15q-79 0 -132 -14t-95 -52t-62 -109t-20 -180v-83l-184 -14l-5 -94h189v-971h182v971h274v111 h-274z" />
<glyph unicode="&#xfb04;" horiz-adv-x="2164" d="M2000 -8h71l14 132l-62 4q-50 4 -74 9.5t-41.5 26t-21.5 53t-4 95.5v1248l-181 -20v-1230q0 -98 18 -161.5t57.5 -97.5t90.5 -46.5t128 -12.5h5zM1199 1082v80q0 135 35 178.5t141 43.5q57 0 105 -8l12 124q-4 1 -21.5 4.5t-55 8t-74.5 4.5h-15q-79 0 -132 -14t-95 -52 t-62 -109t-20 -180v-83l-184 -14l-5 -94h189v-971h182v971h274v111h-274zM438 1082v80q0 135 35 178.5t141 43.5q57 0 105 -8l12 124q-4 1 -21.5 4.5t-55 8t-74.5 4.5h-15q-79 0 -132 -14t-95 -52t-62 -109t-20 -180v-83l-184 -14l-5 -94h189v-971h182v971h274v111h-274z " />
<glyph unicode=" "  horiz-adv-x="527" />
<glyph unicode="&#x09;" horiz-adv-x="527" />
<glyph unicode="&#xa0;" horiz-adv-x="527" />
<glyph unicode="!" horiz-adv-x="715" d="M348 -13q57 0 88 36t31 87q0 49 -31 85t-88 36t-88 -36t-31 -85q0 -50 31 -86.5t88 -36.5zM312 433h72l53 901v133h-184v-133z" />
<glyph unicode="&#x22;" horiz-adv-x="703" d="M469 996h90l38 533h-190zM170 996h89l38 533h-190z" />
<glyph unicode="#" horiz-adv-x="1159" d="M389 539l91 449h296l-90 -449h-297zM168 -18h110l92 460h296l-91 -460h108l92 460h225l15 97h-220l90 449h209l16 95h-206l99 467h-107l-100 -467h-296l99 467h-111l-100 -467h-202l-13 -95h196l-90 -449h-201l-13 -97h195z" />
<glyph unicode="$" horiz-adv-x="1222" d="M546 43v-339h122l15 339h-137zM563 1766l-16 -339h143v339h-127zM917 384q0 -130 -86.5 -190t-232.5 -60q-103 0 -200 36t-166 104h-13l-107 -103q67 -82 195 -136.5t292 -54.5q77 0 146.5 12.5t135.5 42t114.5 74.5t77.5 115.5t29 158.5q0 55 -9 100.5t-23.5 80.5 t-41.5 65.5t-54 52.5t-71 45.5t-81.5 40.5t-96.5 40l-205 83q-125 52 -166.5 92.5t-41.5 122.5q0 218 300 218q110 0 201.5 -36.5t148.5 -102.5h15l104 104q-77 88 -197.5 137.5t-263.5 49.5q-83 0 -153 -11t-136 -38.5t-112 -71t-74 -113t-28 -159.5q0 -50 9 -90.5 t29.5 -73t44 -56.5t64 -47.5t77.5 -41t94 -40.5l203 -84q89 -37 135 -60t83 -54t49 -65.5t12 -86.5z" />
<glyph unicode="%" horiz-adv-x="1623" d="M1157 -4q161 0 236.5 105t75.5 280q0 86 -17 154t-52.5 120.5t-97 81t-145.5 28.5q-82 0 -142.5 -29t-96.5 -81.5t-53.5 -121t-17.5 -152.5t17 -152t52.5 -121.5t96.5 -82.5t144 -29zM1159 100q-56 0 -93.5 20.5t-57 60.5t-27 87.5t-7.5 113.5q0 64 7.5 111t27 86.5 t57 60t93.5 20.5q55 0 92 -19.5t56.5 -58.5t27.5 -86.5t8 -113.5q0 -64 -7.5 -111.5t-27 -88t-57 -61.5t-92.5 -21zM281 0h142l822 1463h-133zM370 715q161 0 236.5 105t75.5 280q0 86 -17 153.5t-52.5 120t-97 81t-145.5 28.5q-82 0 -141.5 -28.5t-94 -81.5t-50.5 -120.5 t-16 -152.5q0 -385 302 -385zM372 819q-56 0 -93.5 20.5t-57 60.5t-27 87.5t-7.5 113.5q0 64 7.5 111t27 86.5t57 60t93.5 20.5q55 0 92 -19.5t56.5 -59t27.5 -86.5t8 -113q0 -64 -7.5 -111.5t-27 -88t-57 -61.5t-92.5 -21z" />
<glyph unicode="&#x26;" horiz-adv-x="1420" d="M600 1353q97 0 147.5 -49t50.5 -139q0 -44 -16 -83t-39 -68t-62.5 -59.5t-73 -50t-83.5 -46.5q-83 97 -115.5 164.5t-32.5 139.5q0 85 64 138t160 53zM94 393q0 -184 124 -298.5t333 -114.5q259 0 457 191l194 -193l97 102l-198 196q31 40 59 82.5t56.5 93.5t43.5 79.5 t44.5 87.5t35.5 70l-112 73q-131 -250 -230 -384l-389 385q45 24 74 41t69.5 43t66.5 48.5t54.5 54t45 63.5t27.5 72.5t11 84.5q0 149 -99.5 230.5t-257.5 81.5q-166 0 -272 -89t-106 -234q0 -95 40.5 -183t133.5 -184q-76 -38 -127 -74t-93 -83t-62 -107t-20 -135zM575 122 q-148 0 -230 74.5t-82 205.5q0 101 53.5 167t165.5 126l426 -424q-79 -81 -158 -115t-175 -34z" />
<glyph unicode="'" horiz-adv-x="415" d="M152 957h104l28 546h-181z" />
<glyph unicode="(" horiz-adv-x="776" d="M212 677q0 244 67 478t192 436h147v-35q-247 -406 -247 -879q0 -472 247 -880v-33h-147q-125 201 -192 435.5t-67 477.5z" />
<glyph unicode=")" horiz-adv-x="776" d="M570 677q0 244 -67 478t-192 436h-147v-35q247 -406 247 -879q0 -472 -247 -880v-33h147q125 201 192 435.5t67 477.5z" />
<glyph unicode="*" horiz-adv-x="947" d="M294 588l178 337l191 -337q25 16 68 43t69 43q-37 47 -86 111.5t-94.5 125t-56.5 74.5l345 77l-44 157l-339 -141l36 384h-168l34 -384l-336 141l-45 -157l341 -77l-232 -311z" />
<glyph unicode="+" horiz-adv-x="1141" d="M476 1163v-378h-359v-173h358v-384h179v384h355v173h-355v378h-178z" />
<glyph unicode="," horiz-adv-x="629" d="M193 -305h107l118 453v91h-184z" />
<glyph unicode="-" horiz-adv-x="862" d="M172 525h509v141h-509v-141z" />
<glyph unicode="." horiz-adv-x="634" d="M320 -11q106 0 106 123q0 120 -106 120q-108 0 -108 -120q0 -123 108 -123z" />
<glyph unicode="/" horiz-adv-x="970" d="M128 -145h151l616 1705h-154z" />
<glyph unicode="0" horiz-adv-x="1260" d="M635 -20q128 0 223 50.5t154 146t88 227t29 301.5q0 236 -54 407.5t-166 267.5t-274 96q-244 0 -374 -207t-130 -564q0 -344 125.5 -534.5t378.5 -190.5zM635 135q-318 0 -318 575q0 294 84.5 453t233.5 159q308 0 308 -611q0 -302 -78 -439t-230 -137z" />
<glyph unicode="1" horiz-adv-x="1260" d="M198 0h922v135h-347v1321h-169q-55 -39 -187.5 -90t-207.5 -68v-145q62 9 180 50t198 84v-1152h-389v-135z" />
<glyph unicode="2" horiz-adv-x="1260" d="M267 1188q55 63 144 99t183 36q59 0 111 -16t93.5 -47.5t66 -84.5t24.5 -121q0 -48 -8.5 -87t-21 -69t-42 -67t-55.5 -64.5t-76 -76.5l-540 -531l29 -159h863l9 152h-689l439 419q80 76 126 128t81 110t48 116t13 134q0 101 -37.5 182t-102.5 131.5t-148.5 77 t-179.5 26.5q-129 0 -246 -48t-192 -134l89 -106h19z" />
<glyph unicode="3" horiz-adv-x="1246" d="M772 770q135 31 202.5 116t67.5 211q0 174 -110 276.5t-307 102.5q-45 0 -90.5 -6t-100.5 -22.5t-102 -43t-91 -71.5t-72 -104l106 -85h20q108 178 314 178h15q118 0 179 -60t61 -167v-13q0 -62 -23 -108t-57 -71.5t-85 -41t-96 -20t-100 -4.5h-75l25 -149h49 q204 0 301.5 -65.5t97.5 -231.5q0 -126 -79.5 -191.5t-205.5 -65.5q-91 0 -178.5 37.5t-142.5 125.5h-14l-106 -87q46 -82 124 -135.5t157 -74t163 -20.5q145 0 252 56t159.5 146.5t52.5 201.5q0 153 -80.5 256.5t-230.5 129.5z" />
<glyph unicode="4" horiz-adv-x="1260" d="M316 517l461 717v-717h-461zM777 0h183v372h161l12 146h-173v938h-199l-627 -938l47 -146h596v-372z" />
<glyph unicode="5" horiz-adv-x="1260" d="M665 798q86 0 151 -47.5t96 -120.5t31 -158q0 -139 -82.5 -238t-235.5 -99q-108 0 -185.5 40.5t-138.5 124.5h-15l-106 -103q52 -86 171 -151.5t276 -65.5q124 0 223.5 42t160.5 112t93 157t32 181q0 71 -17.5 138t-54 126.5t-88.5 104t-124.5 70.5t-157.5 26 q-155 0 -267 -101l46 475h554l19 145h-745l-46 -759l148 -24q95 125 262 125z" />
<glyph unicode="6" horiz-adv-x="1260" d="M648 124q-140 0 -220 91.5t-80 224.5q0 84 29 147.5t76 98t97.5 51.5t102.5 17q139 0 217.5 -86t78.5 -223q0 -135 -80.5 -228t-220.5 -93zM651 -20q215 0 346 133t131 332t-118 323t-293 124q-152 0 -273 -104q157 216 473 646v22h-194l-340 -465q-112 -152 -162.5 -271 t-50.5 -270q0 -94 32.5 -178.5t92.5 -149.5t152.5 -103.5t203.5 -38.5z" />
<glyph unicode="7" horiz-adv-x="1260" d="M344 0h186l545 1323v133h-905l19 -148h692z" />
<glyph unicode="8" horiz-adv-x="1260" d="M630 820q-271 64 -271 297q0 104 74 164t197 60q124 0 196.5 -59.5t72.5 -164.5q0 -234 -269 -297zM630 120q-149 0 -226.5 66.5t-77.5 194.5q0 126 83 205t221 111q137 -31 219 -112t82 -203q0 -133 -74 -197.5t-227 -64.5zM630 -20q136 0 242 41.5t171 130t65 214.5 q0 142 -79.5 248.5t-215.5 151.5q264 99 264 349q0 171 -123 266t-323 95q-201 0 -325.5 -95.5t-124.5 -265.5q0 -130 74 -220t196 -131q-300 -105 -300 -398q0 -95 37.5 -169.5t103.5 -121.5t151.5 -71t186.5 -24z" />
<glyph unicode="9" horiz-adv-x="1260" d="M967 1017q0 -68 -20.5 -123.5t-52.5 -90t-75 -58.5t-85 -33.5t-84 -9.5q-142 0 -219 87.5t-77 226.5q0 134 84 225.5t225 91.5t222.5 -91.5t81.5 -224.5zM352 0h199l364 469q77 99 122.5 172t76 167.5t30.5 197.5q0 94 -32.5 178.5t-92.5 149.5t-152.5 103.5t-204.5 38.5 q-216 0 -352 -131.5t-136 -329.5q0 -200 123 -325.5t304 -125.5q127 0 237 72q-71 -93 -150.5 -194t-183 -229.5t-152.5 -190.5v-22z" />
<glyph unicode=":" horiz-adv-x="658" d="M326 -10q59 0 90.5 36.5t31.5 89.5t-31.5 90t-90.5 37q-60 0 -93 -37.5t-33 -89.5q0 -53 33.5 -89.5t92.5 -36.5zM326 833q59 0 90.5 36.5t31.5 89.5t-31.5 90t-90.5 37q-60 0 -93 -37.5t-33 -89.5q0 -53 33.5 -89.5t92.5 -36.5z" />
<glyph unicode=";" horiz-adv-x="715" d="M373 832q59 0 90.5 36.5t31.5 89.5t-31.5 90t-90.5 37q-60 0 -93 -37.5t-33 -89.5q0 -53 33.5 -89.5t92.5 -36.5zM248 -305h107l117 453v91h-184z" />
<glyph unicode="&#x3c;" horiz-adv-x="1107" d="M1009 140v155l-732 353l732 380v152l-931 -490v-93z" />
<glyph unicode="=" horiz-adv-x="1070" d="M128 570v-154h820v154h-820zM128 957v-153h820v153h-820z" />
<glyph unicode="&#x3e;" horiz-adv-x="1107" d="M94 1033l723 -385l-725 -348v-155l932 450v94l-930 496v-152z" />
<glyph unicode="?" horiz-adv-x="923" d="M371 -14q57 0 87 34t30 85q0 49 -30 83t-87 34t-88.5 -34t-31.5 -83q0 -50 31 -84.5t89 -34.5zM331 431l83 -2q29 97 77.5 180.5t93.5 138.5t87 111t67.5 125.5t25.5 154.5q0 89 -28 157t-77 108t-109.5 60t-131.5 20q-175 0 -303 -99l38 -137q129 86 243 86 q94 0 144 -53t50 -157q0 -58 -25 -122t-61 -125t-73.5 -126.5t-66 -149.5t-34.5 -170z" />
<glyph unicode="@" horiz-adv-x="1940" d="M899 337q-170 0 -170 243q0 169 86 280t221 111q51 0 135 -19l-42 -256q-10 -67 -21.5 -116.5t-30 -97.5t-42 -78t-58 -48.5t-78.5 -18.5zM946 -195q147 0 284.5 36t232.5 102l-44 109q-184 -117 -470 -117q-153 0 -276 49.5t-204 139t-124 213.5t-43 274q0 210 84.5 379 t246.5 269t373 100q156 0 278.5 -46.5t199.5 -128t116.5 -189t39.5 -234.5q0 -193 -72 -303.5t-166 -110.5q-54 0 -91 40t-37 101q0 57 9 132.5t28.5 201.5t27.5 186q-64 33 -153.5 54t-165.5 21q-104 0 -189.5 -44t-139 -117t-82.5 -163t-29 -186q0 -155 80.5 -256 t221.5 -101q97 0 169 62.5t113 157.5q13 -59 56 -97.5t102.5 -69t79.5 -48.5q67 0 132.5 34.5t120 98.5t88.5 168t34 231q0 220 -101 388t-274 256.5t-389 88.5q-246 0 -444.5 -113t-310 -312t-111.5 -446q0 -248 101.5 -432.5t281.5 -281t416 -96.5z" />
<glyph unicode="A" horiz-adv-x="1419" d="M608 1456l-545 -1456h192l167 453h573l168 -453h193l-550 1456h-198zM467 588l241 680l242 -680h-483z" />
<glyph unicode="B" horiz-adv-x="1373" d="M557 -9q366 0 525.5 103t159.5 338q0 140 -71.5 230t-228.5 128q248 80 248 308q0 40 -3.5 70.5t-16.5 71t-35.5 70t-65 60t-101.5 50t-147 32t-199 12.5q-183 0 -419 -30v-1426q204 -17 354 -17zM397 1314q127 13 234 13q142 0 226.5 -27.5t119 -79.5t34.5 -135 q0 -57 -18.5 -99.5t-48.5 -68t-76 -40.5t-93 -20.5t-107 -5.5h-271v463zM397 717h260q206 0 299 -67.5t93 -222.5q0 -56 -6.5 -93.5t-33 -78.5t-74 -65t-134.5 -39.5t-211 -15.5q-81 0 -193 8v574z" />
<glyph unicode="C" horiz-adv-x="1433" d="M1341 1097q-25 123 -109.5 211t-195 129t-235.5 41q-296 0 -472.5 -198.5t-176.5 -550.5t176.5 -550.5t472.5 -198.5q126 0 237.5 41t196.5 129.5t110 210.5l-140 51h-16q-27 -121 -132.5 -200t-242.5 -79q-215 0 -339.5 152.5t-124.5 443.5t124 443t340 152 q137 0 240.5 -78t130.5 -200h16z" />
<glyph unicode="D" horiz-adv-x="1500" d="M203 10q167 -21 306 -21q155 0 280.5 24.5t216.5 72t157.5 113t106.5 151.5t58.5 183t18.5 212q0 96 -10 175.5t-33.5 154.5t-62.5 133t-98.5 107t-138.5 80.5t-185.5 49t-237.5 17.5q-169 0 -378 -28v-1424zM397 135v1178q111 12 201 12q134 0 232.5 -27t160 -75 t98.5 -123.5t51 -160.5t14 -199q0 -113 -15.5 -201.5t-56 -168t-106.5 -131.5t-171 -82.5t-245 -30.5q-76 0 -163 9z" />
<glyph unicode="E" horiz-adv-x="1309" d="M203 1456v-1456h963l12 148h-781v532h700v147h-700v483h758l7 146h-959z" />
<glyph unicode="F" horiz-adv-x="1203" d="M203 1456v-1456h194v659h651v142h-651v506h763l10 149h-967z" />
<glyph unicode="G" horiz-adv-x="1478" d="M822 -20q277 0 510 93v696h-495l-9 -129l327 -22v-443q-145 -42 -299 -42q-266 0 -386 156t-120 448q0 270 130 428t374 158q125 0 219.5 -43t149.5 -104h17l96 106q-68 87 -197 140.5t-291 53.5q-327 0 -511.5 -199t-184.5 -541q0 -169 42 -307t124 -238.5t210.5 -155.5 t293.5 -55z" />
<glyph unicode="H" horiz-adv-x="1541" d="M1140 673v-674h195v1457h-195v-631h-739v631h-194v-1457h194v674h739z" />
<glyph unicode="I" horiz-adv-x="973" d="M191 1456v-118h194v-1220h-194v-119h581v119h-192v1220h192v118h-581z" />
<glyph unicode="J" horiz-adv-x="797" d="M370 1456v-1426q0 -74 -2 -107.5t-14.5 -63t-32.5 -43t-61 -30.5l-123 -52l60 -146l89 32q75 27 119 49.5t79 52t50.5 71.5t23 96.5t7.5 139.5v1427h-195z" />
<glyph unicode="K" horiz-adv-x="1319" d="M1294 1456h-212l-685 -695v695h-194v-1456h194v578l158 154l559 -732h218v19l-634 818l596 599v20z" />
<glyph unicode="L" horiz-adv-x="1103" d="M203 1456v-1456h892l6 146h-704v1310h-194z" />
<glyph unicode="M" horiz-adv-x="1815" d="M183 -1h183v480l9 724l453 -1030h158l456 1020l8 -711v-483h182v487l-24 970h-225l-474 -1060l-471 1060h-231l-24 -971v-486z" />
<glyph unicode="N" horiz-adv-x="1524" d="M1146 1456v-788l11 -419l-760 1207h-194v-1456h178v740l-17 454l755 -1194h202v1456h-175z" />
<glyph unicode="O" horiz-adv-x="1620" d="M1267 720q0 -586 -456 -586q-457 0 -457 586q0 140 26 248.5t80.5 189t143.5 122.5t209 42q454 0 454 -602zM156 721q0 -350 164.5 -545.5t492.5 -195.5q323 0 487 196.5t164 542.5q0 355 -166.5 556t-483.5 201q-216 0 -365 -92.5t-221 -260.5t-72 -402z" />
<glyph unicode="P" horiz-adv-x="1307" d="M203 1434v-1434h194v636q100 -9 213 -9q144 0 251 21.5t173.5 58.5t107 94t56 119.5t15.5 142.5q0 137 -54.5 223t-185 131.5t-348.5 45.5q-172 0 -422 -29zM397 774v539q133 13 240 13q120 0 199.5 -17t122 -53.5t59 -82.5t16.5 -114q0 -59 -9.5 -101.5t-36.5 -81 t-73.5 -62t-122 -37t-181.5 -13.5q-98 0 -214 10z" />
<glyph unicode="Q" horiz-adv-x="1597" d="M824 38q2 -7 166 -238.5t175 -240.5l125 90q-10 8 -150.5 205t-149.5 212zM1267 720q0 -586 -456 -586q-457 0 -457 586q0 140 26 248.5t80.5 189t143.5 122.5t209 42q454 0 454 -602zM156 721q0 -350 164.5 -545.5t492.5 -195.5q323 0 487 196.5t164 542.5 q0 355 -166.5 556t-483.5 201q-216 0 -365 -92.5t-221 -260.5t-72 -402z" />
<glyph unicode="R" horiz-adv-x="1353" d="M1241 1071q0 211 -130.5 302t-444.5 91q-189 0 -459 -30v-1434h194v662l335 1l336 -663h207v20l-349 665q311 78 311 386zM666 1326q121 0 200 -15.5t121.5 -50t58.5 -79.5t16 -114q0 -101 -33 -157.5t-122 -85t-252 -28.5h-254v516q160 14 265 14z" />
<glyph unicode="S" horiz-adv-x="1222" d="M917 384q0 -130 -86.5 -190t-232.5 -60q-103 0 -200 36t-166 104h-13l-107 -103q67 -82 195 -136.5t292 -54.5q77 0 146.5 12.5t135.5 42t114.5 74.5t77.5 115.5t29 158.5q0 55 -9 100.5t-23.5 80.5t-41.5 65.5t-54 52.5t-71 45.5t-81.5 40.5t-96.5 40l-205 83 q-125 52 -166.5 92.5t-41.5 122.5q0 218 300 218q110 0 201.5 -36.5t148.5 -102.5h15l104 104q-77 88 -197.5 137.5t-263.5 49.5q-83 0 -153 -11t-136 -38.5t-112 -71t-74 -113t-28 -159.5q0 -50 9 -90.5t29.5 -73t44 -56.5t64 -47.5t77.5 -41t94 -40.5l203 -84 q89 -37 135 -60t83 -54t49 -65.5t12 -86.5z" />
<glyph unicode="T" horiz-adv-x="1149" d="M6 1456v-146h470v-1311h195v1311h472v146h-1137z" />
<glyph unicode="U" horiz-adv-x="1455" d="M1085 1457v-910q0 -206 -86.5 -309t-273.5 -103q-192 0 -276 102t-84 310v910h-195v-915q0 -127 32.5 -228.5t98.5 -177t173.5 -116t250.5 -40.5q141 0 249 41.5t174 116.5t99 176t33 225v918h-195z" />
<glyph unicode="V" horiz-adv-x="1442" d="M624 -1h179l562 1457h-207q-45 -125 -139.5 -384.5t-167 -461.5t-136.5 -388q-63 188 -133 383.5t-170 471t-138 379.5h-197z" />
<glyph unicode="W" horiz-adv-x="1979" d="M999 1191l338 -1191h187l378 1456h-188l-286 -1210l-339 1181h-182l-342 -1168l-314 1197h-174l387 -1456h184z" />
<glyph unicode="X" horiz-adv-x="1291" d="M750 730l478 726h-208l-371 -574l-382 574h-215l476 -718l-482 -739h199l387 582l386 -582h218z" />
<glyph unicode="Y" horiz-adv-x="1364" d="M781 514l507 942h-194l-411 -772l-423 772h-184l511 -939v-517h194v514z" />
<glyph unicode="Z" horiz-adv-x="1190" d="M92 0h1032l6 146h-816l808 1178l-6 132h-994l2 -145h781l-813 -1178v-133z" />
<glyph unicode="[" horiz-adv-x="823" d="M218 -255h462v129h-279v1474h279v129h-462v-1732z" />
<glyph unicode="\" horiz-adv-x="937" d="M634 -17h142l-537 1496h-142z" />
<glyph unicode="]" horiz-adv-x="965" d="M288 -255h462v1732h-462v-129h280v-1474h-280v-129z" />
<glyph unicode="^" horiz-adv-x="1296" d="M605 1456l-513 -1159h178l378 873l376 -873h180l-515 1159h-84z" />
<glyph unicode="_" horiz-adv-x="906" d="M0 -263h906v129h-906v-129z" />
<glyph unicode="`" horiz-adv-x="929" d="M405 1209h119l-195 377h-232z" />
<glyph unicode="a" horiz-adv-x="1120" d="M490 109q-93 0 -148.5 43.5t-55.5 139.5q0 97 65.5 143t225.5 46l211 -1v-227q-52 -67 -128.5 -105.5t-169.5 -38.5zM113 294q0 -154 94.5 -234t254.5 -80q214 0 342 153l13 -133h152v705q0 107 -30 185.5t-86 125t-129.5 68.5t-167.5 22q-112 0 -219 -26t-186 -76 l53 -138q73 50 168.5 76t178.5 26q120 0 178.5 -59.5t58.5 -188.5v-125l-232 3h-12q-431 0 -431 -304z" />
<glyph unicode="b" horiz-adv-x="1220" d="M630 115q-189 0 -287 135v309q0 194 75 302.5t231 108.5q74 0 127 -31t83 -90t43.5 -134t13.5 -173q0 -204 -70.5 -315.5t-215.5 -111.5zM675 1106q-241 0 -332 -224l7 227v451l-182 -20v-1540h148l11 115q113 -135 314 -135q218 0 339.5 152.5t121.5 410.5 q0 168 -44.5 292t-142 197.5t-240.5 73.5z" />
<glyph unicode="c" horiz-adv-x="1090" d="M873 272q-41 -75 -100 -115t-155 -40h-2q-152 0 -231.5 111.5t-79.5 314.5q0 204 80 315t233 111q95 0 154.5 -41t101.5 -117h13l113 65q-98 230 -390 230q-226 0 -359 -152t-133 -411t133 -411t359 -152q85 0 154 20t114 54.5t74 72.5t48 83l-114 62h-13z" />
<glyph unicode="d" horiz-adv-x="1231" d="M603 115q-149 0 -223.5 112t-74.5 320q0 203 75 313t222 110q89 0 161 -32.5t114 -92.5v-615q-94 -115 -274 -115zM584 -20q85 0 168 35.5t140 102.5l10 -118h157v1560l-188 -20v-387l5 -161q-104 111 -279 111h-8h-6q-216 0 -340.5 -151.5t-124.5 -407.5 q0 -257 121.5 -410.5t344.5 -153.5z" />
<glyph unicode="e" horiz-adv-x="1143" d="M309 627q14 159 99.5 251.5t216.5 92.5q127 0 191 -89t66 -255h-573zM1029 509l3 21q2 22 4 49t2 41q0 226 -112 356t-310 130q-103 0 -193 -38.5t-157.5 -110t-106.5 -179.5t-39 -240q0 -127 40 -233t109.5 -176.5t164 -109.5t204.5 -39q216 0 370 107l-42 119h-13 q-81 -46 -144.5 -68.5t-147.5 -22.5q-153 0 -248 97.5t-107 296.5h723z" />
<glyph unicode="f" horiz-adv-x="761" d="M438 1082v80q0 135 35 178.5t141 43.5q57 0 105 -8l12 124q-4 1 -21.5 4.5t-55 8t-74.5 4.5h-15q-79 0 -132 -14t-95 -52t-62 -109t-20 -180v-83l-184 -14l-5 -94h189v-971h182v971h274v111h-274z" />
<glyph unicode="g" horiz-adv-x="1206" d="M598 115q-150 0 -224.5 112t-74.5 320q0 201 75.5 312t221.5 111q179 0 275 -134v-604q-42 -57 -114 -87t-159 -30zM581 -18q187 0 293 111l1 -82v-7q0 -192 -79 -270.5t-239 -78.5q-156 0 -289 56h-23l-15 -142q154 -56 329 -56q259 0 373 131t114 408v1030h-155 l-8 -110q-109 134 -298 134q-216 0 -344 -151.5t-128 -408.5q0 -263 123.5 -413.5t344.5 -150.5z" />
<glyph unicode="h" horiz-adv-x="1215" d="M167 0h181v596q0 75 16 138.5t51 118t98.5 86t149.5 31.5q114 0 164 -75t50 -234v-661h184v670q0 209 -93.5 322.5t-267.5 113.5q-258 0 -357 -226l6 267v413l-182 -20v-1540z" />
<glyph unicode="i" horiz-adv-x="594" d="M444 1431q0 58 -34.5 91.5t-97.5 33.5t-97.5 -33.5t-34.5 -91.5q0 -60 34.5 -94.5t97.5 -34.5t97.5 34.5t34.5 94.5zM219 1082v-1082h182v1082h-182z" />
<glyph unicode="j" horiz-adv-x="587" d="M451 1431q0 58 -34.5 91.5t-97.5 33.5t-97.5 -33.5t-34.5 -91.5q0 -60 34.5 -94.5t97.5 -34.5t97.5 34.5t34.5 94.5zM239 1082v-1063q0 -47 -1 -71.5t-3.5 -54t-9 -43.5t-17 -30.5t-28 -25t-40 -16.5t-56.5 -16l-65 -15l29 -142l62 10q88 14 144 36t95 64.5t55.5 108 t16.5 164.5v1094h-182z" />
<glyph unicode="k" horiz-adv-x="1098" d="M167 0h182v400l121 104l410 -504h195v25l-476 566l444 468v23h-206l-494 -530l6 213v795l-182 -20v-1540z" />
<glyph unicode="l" horiz-adv-x="642" d="M478 -8h71l14 132l-62 4q-50 4 -74 9.5t-41.5 26t-21.5 53t-4 95.5v1248l-181 -20v-1230q0 -98 18 -161.5t57.5 -97.5t90.5 -46.5t128 -12.5h5z" />
<glyph unicode="m" horiz-adv-x="1837" d="M1015 596q0 169 89 271.5t199 102.5q61 0 102.5 -27.5t61.5 -77.5t27.5 -102t7.5 -119v-644h181v697q0 199 -89 304t-256 105q-120 0 -212 -63.5t-144 -191.5q-31 121 -112.5 188t-204.5 67q-110 0 -195.5 -58t-134.5 -178l-19 212h-152v-1082h182v638q19 149 92 240.5 t191 91.5q109 0 156.5 -85.5t47.5 -274.5v-610h182v596z" />
<glyph unicode="n" horiz-adv-x="1208" d="M164 0h182v612q0 158 78.5 258t236.5 100q116 0 164 -78.5t48 -226.5v-665h181v652q0 454 -355 454q-268 0 -365 -235l-19 211h-151v-1082z" />
<glyph unicode="o" horiz-adv-x="1215" d="M608 -20q232 0 360.5 152.5t128.5 409.5q0 261 -127.5 412.5t-361.5 151.5q-235 0 -362.5 -151t-127.5 -413q0 -257 129 -409.5t361 -152.5zM608 115q-152 0 -227.5 115.5t-75.5 310.5q0 198 75.5 313.5t227.5 115.5t227 -115.5t75 -313.5q0 -194 -75 -310t-227 -116z " />
<glyph unicode="p" horiz-adv-x="1222" d="M630 115q-187 0 -285 135v325q2 185 76 290t228 105q74 0 127 -31t83.5 -90t44 -134t13.5 -173q0 -205 -70.5 -316t-216.5 -111zM170 -458h181v391l-5 156q107 -109 300 -109q210 0 334 155t124 405q0 262 -108 414t-321 152q-123 0 -210 -62.5t-126 -184.5l-17 223h-152 v-1540z" />
<glyph unicode="q" horiz-adv-x="1215" d="M603 115q-149 0 -223.5 110.5t-74.5 319.5q0 202 74.5 313.5t220.5 111.5q180 0 277 -136v-600q-42 -58 -114 -88.5t-160 -30.5zM587 -20q180 0 287 108l-3 -110v-436h181v1540h-153l-8 -119q-108 143 -302 143q-219 0 -345 -153.5t-126 -407.5q0 -259 122 -412t347 -153 z" />
<glyph unicode="r" horiz-adv-x="783" d="M172 0h181v614q0 146 82 239.5t238 93.5h2l39 -1l14 144q-32 5 -79 5q-213 0 -312 -238l-18 225h-147v-1082z" />
<glyph unicode="s" horiz-adv-x="983" d="M723 307q0 -98 -56 -146.5t-162 -48.5q-197 0 -311 131h-14l-95 -92q66 -83 177 -127t243 -44q81 0 149 19.5t121.5 58.5t83.5 104.5t30 151.5q0 50 -10.5 88t-40.5 78t-91.5 75t-155.5 65l-120 38q-107 34 -141.5 66.5t-34.5 89.5q0 155 214 155q165 0 250 -102h10 l99 81q-51 72 -142.5 115t-217.5 43q-181 0 -286.5 -78t-105.5 -213q0 -54 10 -91t39.5 -76t90 -71.5t156.5 -62.5l122 -38q116 -36 152.5 -73.5t36.5 -95.5z" />
<glyph unicode="t" horiz-adv-x="799" d="M586 -8h100l8 128l-108 4q-50 2 -80 8.5t-50 18t-28.5 38t-11.5 57t-3 87.5v638h288v111h-288v303l-151 -11l-26 -293l-171 -9l-5 -101h171v-637q0 -104 12 -164t50.5 -103t107.5 -59t185 -16z" />
<glyph unicode="u" horiz-adv-x="1213" d="M866 259q-111 -146 -298 -146q-123 0 -177.5 74.5t-54.5 220.5v674h-182v-678q0 -424 389 -424q214 0 337 155l10 -135h157v1082h-181v-823z" />
<glyph unicode="v" horiz-adv-x="1081" d="M453 0h185l386 1082h-183q-97 -290 -293 -870q-77 215 -300 870h-187z" />
<glyph unicode="w" horiz-adv-x="1508" d="M760 907l278 -908h164l282 1083h-166l-201 -847l-266 847h-190l-250 -844l-216 844h-171l296 -1083h163z" />
<glyph unicode="x" horiz-adv-x="1058" d="M633 550l365 532h-183l-270 -402l-269 402h-202l358 -534l-380 -549h183l284 420l281 -420h202z" />
<glyph unicode="y" horiz-adv-x="1131" d="M1083 1082h-175l-329 -839l-350 839h-190l450 -1038l-160 -418l156 -40z" />
<glyph unicode="z" horiz-adv-x="1012" d="M121 1082l5 -130h572l-597 -836v-116h798l-7 136h-589l586 823v123h-768z" />
<glyph unicode="{" horiz-adv-x="862" d="M734 -262v128q-40 0 -64 2.5t-43.5 13t-28.5 23.5t-15 43t-7.5 61.5t-1.5 87.5v240q0 132 -42 193.5t-156 81.5q114 20 156 81t42 193v243q0 56 1.5 87.5t7.5 61t15 42.5t28.5 23.5t43.5 13.5t64 3v127q-77 0 -127.5 -4.5t-91.5 -19.5t-63 -37t-36.5 -63t-19 -90.5 t-4.5 -125.5v-179v-60.5t-1.5 -51t-4 -45t-7.5 -35.5t-12.5 -30t-18.5 -22t-25.5 -18t-34 -11t-43 -7.5t-53.5 -1.5v-148q43 0 74 -5.5t53 -12t35.5 -27t21.5 -35.5t11.5 -53.5t4 -64.5t0.5 -84v-178q0 -76 4.5 -125.5t19 -90.5t36.5 -63t63 -37t91.5 -19.5t127.5 -4.5z" />
<glyph unicode="|" horiz-adv-x="686" d="M263 1476v-1755h151v1755h-151z" />
<glyph unicode="}" horiz-adv-x="862" d="M126 -262q77 0 127.5 4.5t91.5 19.5t63 37t36.5 63t19 90.5t4.5 125.5v178q0 68 1 97t6.5 70t17.5 56t34.5 32.5t56.5 22t85 4.5v148q-30 0 -53.5 1.5t-43 7.5t-34 11t-25.5 17.5t-18.5 22.5t-12.5 30.5t-8 35.5t-4 44.5t-1.5 51t-0.5 60.5v179q0 76 -4.5 125.5t-19 90.5 t-36.5 63t-63 37t-91.5 19.5t-127.5 4.5v-127q40 0 64.5 -3t43.5 -13.5t28.5 -23.5t15.5 -42.5t7 -61t1 -87.5v-243q0 -132 42 -193t156 -81q-114 -20 -156 -81.5t-42 -193.5v-240q0 -57 -1 -88t-7 -61t-15.5 -43t-28.5 -23.5t-43.5 -13t-64.5 -2.5v-128z" />
<glyph unicode="~" horiz-adv-x="1192" d="M356 649q50 0 138.5 -36.5t180.5 -73t150 -36.5q175 0 256 200l-51 95q-33 -68 -87.5 -112t-113.5 -44q-13 0 -26 2t-30.5 7t-29.5 9t-35 13.5t-33.5 14t-39 17t-38.5 16.5q-83 37 -132.5 52.5t-104.5 15.5q-92 0 -158.5 -54.5t-103.5 -143.5l46 -102q36 69 92.5 114.5 t119.5 45.5z" />
<glyph unicode="&#xa1;" horiz-adv-x="715" d="M348 1119q-57 0 -88 -36t-31 -87q0 -49 31 -85t88 -36t88 36t31 85q0 50 -31 86.5t-88 36.5zM384 673h-72l-53 -901v-133h184v133z" />
<glyph unicode="&#xa2;" horiz-adv-x="1077" d="M539 34v-343h116l18 343h-134zM550 1388l-12 -328h124l2 328h-114zM873 272q-41 -75 -100 -115t-155 -40h-2q-152 0 -231.5 111.5t-79.5 314.5q0 204 80 315t233 111q95 0 154.5 -41t101.5 -117h13l113 65q-98 230 -390 230q-226 0 -359 -152t-133 -411t133 -411 t359 -152q85 0 154 20t114 54.5t74 72.5t48 83l-114 62h-13z" />
<glyph unicode="&#xa3;" horiz-adv-x="1144" d="M439 957q0 371 251 371q52 0 98 -16t73.5 -34t71.5 -53h17l68 121q-141 137 -350 137q-96 0 -171 -29.5t-121.5 -77.5t-76.5 -117.5t-41.5 -143t-11.5 -159.5v-144h-174v-131h174v-538l-173 -18l12 -125h930l12 145h-588v536h376v131h-376v145z" />
<glyph unicode="&#xa4;" horiz-adv-x="1159" d="M877 721q0 -132 -83.5 -223.5t-217.5 -91.5t-217.5 91.5t-83.5 223.5t83.5 224.5t217.5 92.5t217.5 -92.5t83.5 -224.5zM833 1043q-113 94 -257 94q-148 0 -258 -93l-179 173l-68 -68l181 -179q-79 -109 -79 -249q0 -139 79 -248l-180 -176l67 -71l179 174 q110 -92 258 -92q146 0 257 91l181 -174l64 71l-178 177q79 108 79 248q0 136 -80 249l180 176l-65 71z" />
<glyph unicode="&#xa5;" horiz-adv-x="1364" d="M259 509h822v111h-822v-111zM259 256h822v110h-822v-110zM781 514l507 942h-194l-411 -772l-423 772h-184l511 -939v-517h194v514z" />
<glyph unicode="&#xa6;" horiz-adv-x="663" d="M267 1571v-752h133v752h-133zM267 531v-756h133v756h-133z" />
<glyph unicode="&#xa7;" horiz-adv-x="1074" d="M691 573q-54 24 -196 67q-105 35 -137.5 64t-32.5 90q0 88 64 124q11 -6 147 -51q110 -35 152.5 -76t42.5 -99q0 -76 -40 -119zM516 -20q77 0 141.5 17.5t116 54t80.5 98t29 143.5q0 134 -71 205q71 79 71 201t-58 190t-225 122q-123 40 -178 65.5t-73 50.5t-18 69 q0 74 48 112.5t158 38.5q127 0 265 -69l41 128q-151 77 -324 77q-166 0 -259.5 -79t-93.5 -215q0 -130 90 -201q-89 -80 -89 -204q0 -102 54 -167t196 -112q130 -43 198 -78t89 -64.5t21 -71.5q-1 -84 -51.5 -130t-141.5 -46h-9q-148 0 -335 91v-147q163 -79 328 -79z" />
<glyph unicode="&#xa8;" horiz-adv-x="935" d="M674 1290q52 0 79 30.5t27 78.5t-27 78.5t-79 30.5q-54 0 -81 -30.5t-27 -78.5t27.5 -78.5t80.5 -30.5zM239 1290q52 0 79 30.5t27 78.5t-27 78.5t-79 30.5q-53 0 -80 -30.5t-27 -78.5t27.5 -78.5t79.5 -30.5z" />
<glyph unicode="&#xa9;" horiz-adv-x="1712" d="M765 -23q117 0 228.5 31t209 94t171.5 150.5t116.5 210t42.5 264.5q0 177 -65.5 322.5t-174 237.5t-245 142t-283.5 50q-116 0 -225.5 -30.5t-205.5 -93.5t-168.5 -151.5t-114 -211t-41.5 -265.5q0 -176 64 -321t170.5 -237t240.5 -142t280 -50zM765 68q-101 0 -196 27.5 t-177.5 82.5t-144.5 132.5t-97.5 185t-35.5 231.5q0 155 54.5 282t146 208t207.5 125t243 44q128 0 244.5 -44t209 -125t147.5 -208t55 -282q0 -124 -36 -231t-98.5 -184.5t-145.5 -133t-179 -83t-197 -27.5zM785 236q155 0 284 81l-36 88q-114 -70 -243 -70 q-152 0 -253 108t-101 287q0 169 100.5 277t246.5 108q131 0 239 -76l44 90q-132 87 -288 87q-95 0 -181 -37t-150 -101t-101.5 -156t-37.5 -196q0 -107 38.5 -199.5t103.5 -155.5t152 -99t183 -36z" />
<glyph unicode="&#xaa;" horiz-adv-x="1120" d="M421.393 93.7383q-79.9785 0 -127.708 37.4092q-47.7285 37.4092 -47.7285 119.968q0 83.4189 56.3291 122.979t193.927 39.5596l181.456 -0.860352v-195.217q-44.7188 -57.6191 -110.508 -90.7285t-145.768 -33.1094zM97.1787 252.836q0 -132.438 81.2686 -201.236 t218.866 -68.7988q184.036 0 294.114 131.577l11.1807 -114.378h130.718v606.29q0 92.0186 -25.7998 159.527t-73.959 107.498t-111.368 58.9092q-63.209 18.9189 -144.047 18.9189q-96.3184 0 -188.337 -22.3594t-159.958 -65.3584l45.5801 -118.679 q62.7783 42.999 144.907 65.3594q82.1279 22.3594 153.507 22.3594q103.198 0 153.508 -51.1689q50.3086 -51.1689 50.3086 -162.107v-107.498l-199.516 2.58008h-10.3203q-370.653 0 -370.653 -261.436z" />
<glyph unicode="&#xab;" horiz-adv-x="999" d="M729 146h160l-275 408l281 405h-163l-290 -408zM369 146h160l-274 408l281 405h-163l-291 -408z" />
<glyph unicode="&#xac;" horiz-adv-x="1244" d="M104 809v-137h831v-419h129v556h-960z" />
<glyph unicode="&#xad;" horiz-adv-x="880" d="M105 494h669v143h-669v-143z" />
<glyph unicode="&#xae;" horiz-adv-x="1851" d="M918 -23q95 0 186.5 22t175 64t154 107t122.5 146.5t81 187t29 224.5t-29 224.5t-81 187t-122.5 146.5t-154 107t-175 64t-186.5 22q-143 0 -275 -50t-237.5 -142t-169 -237.5t-63.5 -321.5t63.5 -321.5t169 -237.5t237.5 -142t275 -50zM918 68q-124 0 -237.5 44 t-202.5 125.5t-142 208.5t-53 282q0 124 34.5 231.5t95 185t141 133t173 83t191.5 27.5q124 0 238.5 -44.5t204.5 -126t143.5 -208.5t53.5 -281q0 -155 -53.5 -282t-143.5 -208.5t-204.5 -125.5t-238.5 -44zM745 818v288h175q127 0 172.5 -26t45.5 -115q0 -81 -40.5 -114 t-144.5 -33h-208zM628 295h116v425h201l210 -425h130q-210 418 -225 438q191 25 191 237q0 126 -72 181.5t-241 55.5h-310v-912z" />
<glyph unicode="&#xaf;" horiz-adv-x="1144" d="M265 1327h584v100h-584v-100z" />
<glyph unicode="&#xb0;" horiz-adv-x="875" d="M429 890q126 0 214.5 86t88.5 211q0 127 -88.5 209.5t-214.5 82.5q-124 0 -212 -83t-88 -209q0 -128 88.5 -212.5t211.5 -84.5zM429 992q-79 0 -132.5 54t-53.5 140q0 84 54.5 138t132.5 54q79 0 133.5 -53.5t54.5 -138.5t-54.5 -139.5t-134.5 -54.5z" />
<glyph unicode="&#xb1;" horiz-adv-x="1136" d="M105 126v-126h930v126h-930zM494 1127v-384h-370v-129h370v-392h136v392h364v129h-365v384h-135z" />
<glyph unicode="&#xb2;" horiz-adv-x="785" d="M152 647h514l9 107h-338q49 47 101.5 95.5t94.5 90.5q72 75 107.5 145.5t35.5 152.5q0 123 -78.5 193t-189.5 70q-192 0 -296 -134l63 -86q84 106 225 106q65 0 107 -42t42 -110q0 -73 -113 -207q-74 -81 -163 -161.5t-121 -112.5v-107z" />
<glyph unicode="&#xb3;" horiz-adv-x="876" d="M437 629q124 0 208 64t84 182q0 80 -44.5 136t-116.5 73q71 16 110.5 67.5t40.5 125.5q0 111 -75 166t-189 55q-82 0 -157 -24.5t-125 -68.5l49 -82q91 73 216 73q73 0 118 -32.5t45 -96.5q0 -137 -173 -137h-115v-98l114 1h3q87 0 135 -42.5t48 -112.5q0 -71 -50.5 -109 t-128.5 -38q-135 0 -215 77l-51 -93q49 -41 120 -63.5t149 -22.5z" />
<glyph unicode="&#xb4;" horiz-adv-x="732" d="M292 1209h119l299 377h-222z" />
<glyph unicode="&#xb5;" horiz-adv-x="1197" d="M866 259q-111 -146 -298 -146q-123 0 -177.5 74.5t-54.5 220.5v674h-182v-1370h182v311q84 -43 207 -43q214 0 337 155l10 -135h157v1082h-181v-823z" />
<glyph unicode="&#xb6;" horiz-adv-x="1146" d="M645 1331h140v-1536h129v1661h-357q-95 0 -170 -20t-122 -52.5t-78 -78t-43.5 -93t-12.5 -101.5q0 -69 21.5 -129.5t65 -110.5t120.5 -79t178 -29v-968h129v1536z" />
<glyph unicode="&#xb7;" horiz-adv-x="648" d="M334 508q51 0 83.5 32.5t32.5 83.5t-32.5 82.5t-83.5 31.5t-84 -31.5t-33 -82.5t33 -83.5t84 -32.5z" />
<glyph unicode="&#xb8;" horiz-adv-x="685" d="M354 -402q109 0 180 54t71 145q0 79 -47 121t-122 42q-54 0 -105 -20l1 -52q26 5 55 5q58 0 83 -25.5t25 -64.5q0 -54 -41.5 -84t-105.5 -30q-63 0 -121 27l-31 -85q75 -33 158 -33z" />
<glyph unicode="&#xb9;" horiz-adv-x="884" d="M262 629h478v112h-166v746h-112q-26 -22 -93 -55.5t-113 -50.5v-114q25 5 86.5 31.5t90.5 43.5v-601h-171v-112z" />
<glyph unicode="&#xba;" horiz-adv-x="965" d="M683 1093q0 -128 -50.5 -197t-152.5 -69q-96 0 -145.5 70t-49.5 199q0 131 49.5 202.5t145.5 71.5q99 0 151 -73t52 -204zM141 1096q0 -170 89.5 -276.5t249.5 -106.5q153 0 246.5 109t93.5 274q0 175 -87.5 281.5t-252.5 106.5q-161 0 -250 -107.5t-89 -280.5z" />
<glyph unicode="&#xbb;" horiz-adv-x="999" d="M608 146l288 406l-290 407h-163l280 -405l-274 -408h159zM250 146l287 406l-289 407h-163l280 -405l-275 -408h160z" />
<glyph unicode="&#xbc;" horiz-adv-x="1739" d="M1136 300l257 386v-386h-257zM376 0h141l915 1479h-139zM1394 0h131v190h120l-6 110h-113v559h-142l-391 -571v-98h401v-190zM133 594h430v117h-138v768h-115q-46 -42 -187 -104v-120q5 2 41.5 18t69 31t48.5 25v-618h-149v-117z" />
<glyph unicode="&#xbd;" horiz-adv-x="1771" d="M376 0h139l915 1479h-138zM137 594h433v115h-140v770h-114q-47 -42 -188 -104v-117q122 52 158 74v-623h-149v-115zM1154 0h511l6 118h-355l177 166q102 96 144 165t42 165q0 120 -81 189t-205 69q-89 0 -165.5 -42.5t-117.5 -113.5l75 -82q83 114 205 114 q65 0 107.5 -36.5t42.5 -104.5q0 -53 -30 -106t-110 -135l-249 -253z" />
<glyph unicode="&#xbe;" horiz-adv-x="1749" d="M1180 300l257 386v-386h-257zM428 0h141l915 1479h-139zM1438 0h131v190h120l-6 110h-113v559h-142l-392 -571v-98h402v-190zM357 592q120 0 202.5 68t82.5 195q0 73 -43 129t-119 78q49 11 82.5 46t46.5 73t13 78q0 106 -74 162t-183 56q-140 0 -245 -82l51 -95 q102 60 186 60q60 0 95.5 -31t35.5 -89q0 -60 -41.5 -94.5t-114.5 -34.5h-94v-116l96 1q173 0 173 -145q0 -72 -41 -106.5t-109 -34.5q-94 0 -189 58l-47 -101q104 -75 236 -75z" />
<glyph unicode="&#xbf;" horiz-adv-x="923" d="M496 1208q-57 0 -87 -34t-30 -85q0 -49 30 -83t87 -34t88.5 34t31.5 83q0 50 -31 84.5t-89 34.5zM536 763l-83 2q-29 -97 -77.5 -180.5t-93.5 -138.5t-87 -111t-67.5 -125.5t-25.5 -154.5q0 -89 28 -157t77 -108t109.5 -60t131.5 -20q175 0 303 99l-38 137 q-129 -86 -243 -86q-94 0 -144 53t-50 157q0 58 25 122t61 125t73.5 126.5t66 149.5t34.5 170z" />
<glyph unicode="&#xc0;" horiz-adv-x="1419" d="M637 1599h119l-195 377h-232zM608 1456l-545 -1456h192l167 453h573l168 -453h193l-550 1456h-198zM467 588l241 680l242 -680h-483z" />
<glyph unicode="&#xc1;" horiz-adv-x="1419" d="M643 1583h119l299 377h-222zM608 1456l-545 -1456h192l167 453h573l168 -453h193l-550 1456h-198zM467 588l241 680l242 -680h-483z" />
<glyph unicode="&#xc2;" horiz-adv-x="1419" d="M408 1625h157l137 229l135 -229h157l-196 347h-193zM608 1456l-545 -1456h192l167 453h573l168 -453h193l-550 1456h-198zM467 588l241 680l242 -680h-483z" />
<glyph unicode="&#xc3;" horiz-adv-x="1419" d="M385 1684h93q13 99 68 99q30 0 82.5 -24.5t111 -49.5t103.5 -25q71 0 111.5 55.5t40.5 157.5h-96q-12 -87 -61 -87q-24 0 -71 22t-105 44t-110 22q-79 0 -123 -55.5t-44 -158.5zM608 1456l-545 -1456h192l167 453h573l168 -453h193l-550 1456h-198zM467 588l241 680 l242 -680h-483z" />
<glyph unicode="&#xc4;" horiz-adv-x="1419" d="M915 1664q52 0 79 30.5t27 78.5t-27 78.5t-79 30.5q-54 0 -81 -30.5t-27 -78.5t27.5 -78.5t80.5 -30.5zM480 1664q52 0 79 30.5t27 78.5t-27 78.5t-79 30.5q-53 0 -80 -30.5t-27 -78.5t27.5 -78.5t79.5 -30.5zM608 1456l-545 -1456h192l167 453h573l168 -453h193 l-550 1456h-198zM467 588l241 680l242 -680h-483z" />
<glyph unicode="&#xc5;" horiz-adv-x="1419" d="M707 1588q84 0 139 54.5t55 132.5t-55 132t-139 54t-138 -54t-54 -132q0 -79 54.5 -133t137.5 -54zM707 1671q-43 0 -69.5 29.5t-26.5 73.5q0 42 27 72t69 30t70 -30.5t28 -71.5q0 -43 -28 -73t-70 -30zM608 1456l-545 -1456h192l167 453h573l168 -453h193l-550 1456 h-198zM467 588l241 680l242 -680h-483z" />
<glyph unicode="&#xc6;" horiz-adv-x="1606" d="M780 595h-359l359 696v-696zM683 1456l-777 -1456h205l243 462h426v-462h773l12 147h-604v542h523v145h-523v477h581l7 145h-866z" />
<glyph unicode="&#xc7;" horiz-adv-x="1433" d="M743 -412q109 0 180 54t71 145q0 79 -47 121t-122 42q-54 0 -105 -20l1 -52q26 5 55 5q58 0 83 -25.5t25 -64.5q0 -54 -41.5 -84t-105.5 -30q-63 0 -121 27l-31 -85q75 -33 158 -33zM1341 1097q-25 123 -109.5 211t-195 129t-235.5 41q-296 0 -472.5 -198.5 t-176.5 -550.5t176.5 -550.5t472.5 -198.5q126 0 237.5 41t196.5 129.5t110 210.5l-140 51h-16q-27 -121 -132.5 -200t-242.5 -79q-215 0 -339.5 152.5t-124.5 443.5t124 443t340 152q137 0 240.5 -78t130.5 -200h16z" />
<glyph unicode="&#xc8;" horiz-adv-x="1309" d="M669 1599h119l-195 377h-232zM203 1456v-1456h963l12 148h-781v532h700v147h-700v483h758l7 146h-959z" />
<glyph unicode="&#xc9;" horiz-adv-x="1309" d="M675 1583h119l299 377h-222zM203 1456v-1456h963l12 148h-781v532h700v147h-700v483h758l7 146h-959z" />
<glyph unicode="&#xca;" horiz-adv-x="1309" d="M440 1625h157l137 229l135 -229h157l-196 347h-193zM203 1456v-1456h963l12 148h-781v532h700v147h-700v483h758l7 146h-959z" />
<glyph unicode="&#xcb;" horiz-adv-x="1309" d="M947 1664q52 0 79 30.5t27 78.5t-27 78.5t-79 30.5q-54 0 -81 -30.5t-27 -78.5t27.5 -78.5t80.5 -30.5zM512 1664q52 0 79 30.5t27 78.5t-27 78.5t-79 30.5q-53 0 -80 -30.5t-27 -78.5t27.5 -78.5t79.5 -30.5zM203 1456v-1456h963l12 148h-781v532h700v147h-700v483h758 l7 146h-959z" />
<glyph unicode="&#xcc;" horiz-adv-x="973" d="M414 1599h119l-195 377h-232zM191 1456v-118h194v-1220h-194v-119h581v119h-192v1220h192v118h-581z" />
<glyph unicode="&#xcd;" horiz-adv-x="973" d="M420 1583h119l299 377h-222zM191 1456v-118h194v-1220h-194v-119h581v119h-192v1220h192v118h-581z" />
<glyph unicode="&#xce;" horiz-adv-x="973" d="M185 1625h157l137 229l135 -229h157l-196 347h-193zM191 1456v-118h194v-1220h-194v-119h581v119h-192v1220h192v118h-581z" />
<glyph unicode="&#xcf;" horiz-adv-x="973" d="M692 1664q52 0 79 30.5t27 78.5t-27 78.5t-79 30.5q-54 0 -81 -30.5t-27 -78.5t27.5 -78.5t80.5 -30.5zM257 1664q52 0 79 30.5t27 78.5t-27 78.5t-79 30.5q-53 0 -80 -30.5t-27 -78.5t27.5 -78.5t79.5 -30.5zM191 1456v-118h194v-1220h-194v-119h581v119h-192v1220h192 v118h-581z" />
<glyph unicode="&#xd0;" horiz-adv-x="1500" d="M67 685h509v141h-509v-141zM203 10q167 -21 306 -21q155 0 280.5 24.5t216.5 72t157.5 113t106.5 151.5t58.5 183t18.5 212q0 96 -10 175.5t-33.5 154.5t-62.5 133t-98.5 107t-138.5 80.5t-185.5 49t-237.5 17.5q-169 0 -378 -28v-1424zM397 135v1178q111 12 201 12 q134 0 232.5 -27t160 -75t98.5 -123.5t51 -160.5t14 -199q0 -113 -15.5 -201.5t-56 -168t-106.5 -131.5t-171 -82.5t-245 -30.5q-76 0 -163 9z" />
<glyph unicode="&#xd1;" horiz-adv-x="1524" d="M467 1684h93q13 99 68 99q30 0 82.5 -24.5t111 -49.5t103.5 -25q71 0 111.5 55.5t40.5 157.5h-96q-12 -87 -61 -87q-24 0 -71 22t-105 44t-110 22q-79 0 -123 -55.5t-44 -158.5zM1146 1456v-788l11 -419l-760 1207h-194v-1456h178v740l-17 454l755 -1194h202v1456h-175z " />
<glyph unicode="&#xd2;" horiz-adv-x="1620" d="M744 1599h119l-195 377h-232zM1267 720q0 -586 -456 -586q-457 0 -457 586q0 140 26 248.5t80.5 189t143.5 122.5t209 42q454 0 454 -602zM156 721q0 -350 164.5 -545.5t492.5 -195.5q323 0 487 196.5t164 542.5q0 355 -166.5 556t-483.5 201q-216 0 -365 -92.5 t-221 -260.5t-72 -402z" />
<glyph unicode="&#xd3;" horiz-adv-x="1620" d="M750 1583h119l299 377h-222zM1267 720q0 -586 -456 -586q-457 0 -457 586q0 140 26 248.5t80.5 189t143.5 122.5t209 42q454 0 454 -602zM156 721q0 -350 164.5 -545.5t492.5 -195.5q323 0 487 196.5t164 542.5q0 355 -166.5 556t-483.5 201q-216 0 -365 -92.5 t-221 -260.5t-72 -402z" />
<glyph unicode="&#xd4;" horiz-adv-x="1620" d="M515 1625h157l137 229l135 -229h157l-196 347h-193zM1267 720q0 -586 -456 -586q-457 0 -457 586q0 140 26 248.5t80.5 189t143.5 122.5t209 42q454 0 454 -602zM156 721q0 -350 164.5 -545.5t492.5 -195.5q323 0 487 196.5t164 542.5q0 355 -166.5 556t-483.5 201 q-216 0 -365 -92.5t-221 -260.5t-72 -402z" />
<glyph unicode="&#xd5;" horiz-adv-x="1620" d="M492 1684h93q13 99 68 99q30 0 82.5 -24.5t111 -49.5t103.5 -25q71 0 111.5 55.5t40.5 157.5h-96q-12 -87 -61 -87q-24 0 -71 22t-105 44t-110 22q-79 0 -123 -55.5t-44 -158.5zM1267 720q0 -586 -456 -586q-457 0 -457 586q0 140 26 248.5t80.5 189t143.5 122.5t209 42 q454 0 454 -602zM156 721q0 -350 164.5 -545.5t492.5 -195.5q323 0 487 196.5t164 542.5q0 355 -166.5 556t-483.5 201q-216 0 -365 -92.5t-221 -260.5t-72 -402z" />
<glyph unicode="&#xd6;" horiz-adv-x="1620" d="M1022 1664q52 0 79 30.5t27 78.5t-27 78.5t-79 30.5q-54 0 -81 -30.5t-27 -78.5t27.5 -78.5t80.5 -30.5zM587 1664q52 0 79 30.5t27 78.5t-27 78.5t-79 30.5q-53 0 -80 -30.5t-27 -78.5t27.5 -78.5t79.5 -30.5zM1267 720q0 -586 -456 -586q-457 0 -457 586 q0 140 26 248.5t80.5 189t143.5 122.5t209 42q454 0 454 -602zM156 721q0 -350 164.5 -545.5t492.5 -195.5q323 0 487 196.5t164 542.5q0 355 -166.5 556t-483.5 201q-216 0 -365 -92.5t-221 -260.5t-72 -402z" />
<glyph unicode="&#xd7;" horiz-adv-x="994" d="M113 962l284 -309l-293 -316l96 -99l293 313l291 -313l93 102q-262 286 -288 313l285 306l-99 101l-282 -305l-284 308z" />
<glyph unicode="&#xd8;" horiz-adv-x="1620" d="M811 134q-78 0 -136 16l414 1086q178 -141 178 -516q0 -586 -456 -586zM575 191q-221 122 -221 529q0 140 26 248.5t80.5 189t143.5 122.5t209 42q100 0 178 -29zM522 -251l96 252q88 -21 195 -21q323 0 487 196.5t164 542.5q0 243 -79 417t-234 261l96 253l-106 41 l-94 -250q-101 35 -233 35q-216 0 -365 -92.5t-221 -260.5t-72 -402q0 -258 90 -434.5t270 -252.5l-94 -249z" />
<glyph unicode="&#xd9;" horiz-adv-x="1455" d="M667 1599h119l-195 377h-232zM1085 1457v-910q0 -206 -86.5 -309t-273.5 -103q-192 0 -276 102t-84 310v910h-195v-915q0 -127 32.5 -228.5t98.5 -177t173.5 -116t250.5 -40.5q141 0 249 41.5t174 116.5t99 176t33 225v918h-195z" />
<glyph unicode="&#xda;" horiz-adv-x="1455" d="M673 1583h119l299 377h-222zM1085 1457v-910q0 -206 -86.5 -309t-273.5 -103q-192 0 -276 102t-84 310v910h-195v-915q0 -127 32.5 -228.5t98.5 -177t173.5 -116t250.5 -40.5q141 0 249 41.5t174 116.5t99 176t33 225v918h-195z" />
<glyph unicode="&#xdb;" horiz-adv-x="1455" d="M438 1625h157l137 229l135 -229h157l-196 347h-193zM1085 1457v-910q0 -206 -86.5 -309t-273.5 -103q-192 0 -276 102t-84 310v910h-195v-915q0 -127 32.5 -228.5t98.5 -177t173.5 -116t250.5 -40.5q141 0 249 41.5t174 116.5t99 176t33 225v918h-195z" />
<glyph unicode="&#xdc;" horiz-adv-x="1455" d="M945 1664q52 0 79 30.5t27 78.5t-27 78.5t-79 30.5q-54 0 -81 -30.5t-27 -78.5t27.5 -78.5t80.5 -30.5zM510 1664q52 0 79 30.5t27 78.5t-27 78.5t-79 30.5q-53 0 -80 -30.5t-27 -78.5t27.5 -78.5t79.5 -30.5zM1085 1457v-910q0 -206 -86.5 -309t-273.5 -103 q-192 0 -276 102t-84 310v910h-195v-915q0 -127 32.5 -228.5t98.5 -177t173.5 -116t250.5 -40.5q141 0 249 41.5t174 116.5t99 176t33 225v918h-195z" />
<glyph unicode="&#xdd;" horiz-adv-x="1364" d="M620 1583h119l299 377h-222zM781 514l507 942h-194l-411 -772l-423 772h-184l511 -939v-517h194v514z" />
<glyph unicode="&#xde;" horiz-adv-x="1215" d="M190 0h195v449h182q259 0 370.5 94.5t111.5 291.5q0 187 -123.5 266t-359.5 79h-181v313h-195v-1493zM385 1041h182q150 0 219.5 -45.5t69.5 -164.5q0 -137 -64 -189t-233 -52h-174v451z" />
<glyph unicode="&#xdf;" horiz-adv-x="1283" d="M852 -20q154 0 241 85t87 232q0 71 -29 135t-72 108.5t-94 87t-94 72t-72 61t-29 57.5q0 24 21.5 55.5t52 67t61.5 76.5t52.5 98t21.5 117q0 145 -103.5 232.5t-274.5 87.5q-221 0 -338.5 -124.5t-117.5 -347.5v-1079h181v1078q0 174 70.5 252.5t210.5 78.5 q97 0 148.5 -48t51.5 -130q0 -56 -20.5 -106t-50.5 -86.5t-59.5 -71.5t-50 -77.5t-20.5 -88.5q0 -40 20.5 -79t53.5 -71.5t73 -65t80 -65.5t73 -67t53.5 -75t20.5 -84q0 -74 -44 -122.5t-131 -48.5q-73 0 -147.5 20.5t-122.5 46.5l-46 -134q65 -32 160 -54.5t183 -22.5z" />
<glyph unicode="&#xe0;" horiz-adv-x="1120" d="M493 1226h119l-195 377h-232zM490 109q-93 0 -148.5 43.5t-55.5 139.5q0 97 65.5 143t225.5 46l211 -1v-227q-52 -67 -128.5 -105.5t-169.5 -38.5zM113 294q0 -154 94.5 -234t254.5 -80q214 0 342 153l13 -133h152v705q0 107 -30 185.5t-86 125t-129.5 68.5t-167.5 22 q-112 0 -219 -26t-186 -76l53 -138q73 50 168.5 76t178.5 26q120 0 178.5 -59.5t58.5 -188.5v-125l-232 3h-12q-431 0 -431 -304z" />
<glyph unicode="&#xe1;" horiz-adv-x="1120" d="M499 1210h119l299 377h-222zM490 109q-93 0 -148.5 43.5t-55.5 139.5q0 97 65.5 143t225.5 46l211 -1v-227q-52 -67 -128.5 -105.5t-169.5 -38.5zM113 294q0 -154 94.5 -234t254.5 -80q214 0 342 153l13 -133h152v705q0 107 -30 185.5t-86 125t-129.5 68.5t-167.5 22 q-112 0 -219 -26t-186 -76l53 -138q73 50 168.5 76t178.5 26q120 0 178.5 -59.5t58.5 -188.5v-125l-232 3h-12q-431 0 -431 -304z" />
<glyph unicode="&#xe2;" horiz-adv-x="1120" d="M264 1252h157l137 229l135 -229h157l-196 347h-193zM490 109q-93 0 -148.5 43.5t-55.5 139.5q0 97 65.5 143t225.5 46l211 -1v-227q-52 -67 -128.5 -105.5t-169.5 -38.5zM113 294q0 -154 94.5 -234t254.5 -80q214 0 342 153l13 -133h152v705q0 107 -30 185.5t-86 125 t-129.5 68.5t-167.5 22q-112 0 -219 -26t-186 -76l53 -138q73 50 168.5 76t178.5 26q120 0 178.5 -59.5t58.5 -188.5v-125l-232 3h-12q-431 0 -431 -304z" />
<glyph unicode="&#xe3;" horiz-adv-x="1120" d="M241 1311h93q13 99 68 99q30 0 82.5 -24.5t111 -49.5t103.5 -25q71 0 111.5 55.5t40.5 157.5h-96q-12 -87 -61 -87q-24 0 -71 22t-105 44t-110 22q-79 0 -123 -55.5t-44 -158.5zM490 109q-93 0 -148.5 43.5t-55.5 139.5q0 97 65.5 143t225.5 46l211 -1v-227 q-52 -67 -128.5 -105.5t-169.5 -38.5zM113 294q0 -154 94.5 -234t254.5 -80q214 0 342 153l13 -133h152v705q0 107 -30 185.5t-86 125t-129.5 68.5t-167.5 22q-112 0 -219 -26t-186 -76l53 -138q73 50 168.5 76t178.5 26q120 0 178.5 -59.5t58.5 -188.5v-125l-232 3h-12 q-431 0 -431 -304z" />
<glyph unicode="&#xe4;" horiz-adv-x="1120" d="M771 1291q52 0 79 30.5t27 78.5t-27 78.5t-79 30.5q-54 0 -81 -30.5t-27 -78.5t27.5 -78.5t80.5 -30.5zM336 1291q52 0 79 30.5t27 78.5t-27 78.5t-79 30.5q-53 0 -80 -30.5t-27 -78.5t27.5 -78.5t79.5 -30.5zM490 109q-93 0 -148.5 43.5t-55.5 139.5q0 97 65.5 143 t225.5 46l211 -1v-227q-52 -67 -128.5 -105.5t-169.5 -38.5zM113 294q0 -154 94.5 -234t254.5 -80q214 0 342 153l13 -133h152v705q0 107 -30 185.5t-86 125t-129.5 68.5t-167.5 22q-112 0 -219 -26t-186 -76l53 -138q73 50 168.5 76t178.5 26q120 0 178.5 -59.5 t58.5 -188.5v-125l-232 3h-12q-431 0 -431 -304z" />
<glyph unicode="&#xe5;" horiz-adv-x="1120" d="M563 1215q84 0 139 54.5t55 132.5t-55 132t-139 54t-138 -54t-54 -132q0 -79 54.5 -133t137.5 -54zM563 1298q-43 0 -69.5 29.5t-26.5 73.5q0 42 27 72t69 30t70 -30.5t28 -71.5q0 -43 -28 -73t-70 -30zM490 109q-93 0 -148.5 43.5t-55.5 139.5q0 97 65.5 143t225.5 46 l211 -1v-227q-52 -67 -128.5 -105.5t-169.5 -38.5zM113 294q0 -154 94.5 -234t254.5 -80q214 0 342 153l13 -133h152v705q0 107 -30 185.5t-86 125t-129.5 68.5t-167.5 22q-112 0 -219 -26t-186 -76l53 -138q73 50 168.5 76t178.5 26q120 0 178.5 -59.5t58.5 -188.5v-125 l-232 3h-12q-431 0 -431 -304z" />
<glyph unicode="&#xe6;" horiz-adv-x="1657" d="M1216 968q109 0 159.5 -58t50.5 -153q0 -29 -5.5 -49.5t-25 -42.5t-53 -36t-93 -23t-142.5 -9t-198 9q11 181 89.5 271.5t217.5 90.5zM738 357q-4 -118 -86 -183t-213 -65q-81 0 -143 44.5t-62 140.5q0 50 11.5 86t40 67t83 46.5t134.5 15.5q114 0 234 -14q0 -134 1 -138 zM1587 775q0 142 -99 234.5t-276 92.5q-252 0 -363 -203q-33 108 -119.5 155.5t-225.5 47.5q-124 0 -223 -32t-199 -98l69 -115q165 108 357 108q121 0 175.5 -57t54.5 -192v-103q-107 13 -257 13q-419 0 -419 -332q0 -148 87 -227.5t236 -86.5q68 0 130 11.5t121 37 t108.5 70t81.5 106.5q56 -110 159 -167.5t242 -57.5q215 0 370 107l-52 120q-81 -46 -145.5 -69t-150.5 -23q-151 0 -240 85.5t-102 280.5q164 -10 234 -10q83 0 146.5 7.5t121.5 27.5t96 53.5t60 88t22 127.5z" />
<glyph unicode="&#xe7;" horiz-adv-x="1090" d="M559 -412q109 0 180 54t71 145q0 79 -47 121t-122 42q-54 0 -105 -20l1 -52q26 5 55 5q58 0 83 -25.5t25 -64.5q0 -54 -41.5 -84t-105.5 -30q-63 0 -121 27l-31 -85q75 -33 158 -33zM873 272q-41 -75 -100 -115t-155 -40h-2q-152 0 -231.5 111.5t-79.5 314.5 q0 204 80 315t233 111q95 0 154.5 -41t101.5 -117h13l113 65q-98 230 -390 230q-226 0 -359 -152t-133 -411t133 -411t359 -152q85 0 154 20t114 54.5t74 72.5t48 83l-114 62h-13z" />
<glyph unicode="&#xe8;" horiz-adv-x="1143" d="M556 1225h119l-195 377h-232zM309 627q14 159 99.5 251.5t216.5 92.5q127 0 191 -89t66 -255h-573zM1029 509l3 21q2 22 4 49t2 41q0 226 -112 356t-310 130q-103 0 -193 -38.5t-157.5 -110t-106.5 -179.5t-39 -240q0 -127 40 -233t109.5 -176.5t164 -109.5t204.5 -39 q216 0 370 107l-42 119h-13q-81 -46 -144.5 -68.5t-147.5 -22.5q-153 0 -248 97.5t-107 296.5h723z" />
<glyph unicode="&#xe9;" horiz-adv-x="1159" d="M309 627q14 159 99.5 251.5t216.5 92.5q127 0 191 -89t66 -255h-573zM1029 509l3 21q2 22 4 49t2 41q0 226 -112 356t-310 130q-103 0 -193 -38.5t-157.5 -110t-106.5 -179.5t-39 -240q0 -127 40 -233t109.5 -176.5t164 -109.5t204.5 -39q216 0 370 107l-42 119h-13 q-81 -46 -144.5 -68.5t-147.5 -22.5q-153 0 -248 97.5t-107 296.5h723zM541 1226h119l299 377h-222z" />
<glyph unicode="&#xea;" horiz-adv-x="1159" d="M309 627q14 159 99.5 251.5t216.5 92.5q127 0 191 -89t66 -255h-573zM1029 509l3 21q2 22 4 49t2 41q0 226 -112 356t-310 130q-103 0 -193 -38.5t-157.5 -110t-106.5 -179.5t-39 -240q0 -127 40 -233t109.5 -176.5t164 -109.5t204.5 -39q216 0 370 107l-42 119h-13 q-81 -46 -144.5 -68.5t-147.5 -22.5q-153 0 -248 97.5t-107 296.5h723zM302 1251h157l137 229l135 -229h157l-196 347h-193z" />
<glyph unicode="&#xeb;" horiz-adv-x="1159" d="M309 627q14 159 99.5 251.5t216.5 92.5q127 0 191 -89t66 -255h-573zM1029 509l3 21q2 22 4 49t2 41q0 226 -112 356t-310 130q-103 0 -193 -38.5t-157.5 -110t-106.5 -179.5t-39 -240q0 -127 40 -233t109.5 -176.5t164 -109.5t204.5 -39q216 0 370 107l-42 119h-13 q-81 -46 -144.5 -68.5t-147.5 -22.5q-153 0 -248 97.5t-107 296.5h723zM809 1290q52 0 79 30.5t27 78.5t-27 78.5t-79 30.5q-54 0 -81 -30.5t-27 -78.5t27.5 -78.5t80.5 -30.5zM374 1290q52 0 79 30.5t27 78.5t-27 78.5t-79 30.5q-53 0 -80 -30.5t-27 -78.5t27.5 -78.5 t79.5 -30.5z" />
<glyph unicode="&#xec;" horiz-adv-x="527" d="M211 1225h119l-195 377h-232zM183 1082v-1082h182v1082h-182z" />
<glyph unicode="&#xed;" horiz-adv-x="535" d="M183 1082v-1082h182v1082h-182zM216 1226h119l299 377h-222z" />
<glyph unicode="&#xee;" horiz-adv-x="535" d="M183 1082v-1082h182v1082h-182zM-23 1251h157l137 229l135 -229h157l-196 347h-193z" />
<glyph unicode="&#xef;" horiz-adv-x="535" d="M183 1082v-1082h182v1082h-182zM484 1290q52 0 79 30.5t27 78.5t-27 78.5t-79 30.5q-54 0 -81 -30.5t-27 -78.5t27.5 -78.5t80.5 -30.5zM49 1290q52 0 79 30.5t27 78.5t-27 78.5t-79 30.5q-53 0 -80 -30.5t-27 -78.5t27.5 -78.5t79.5 -30.5z" />
<glyph unicode="&#xf0;" horiz-adv-x="1216" d="M940 496q0 -176 -86.5 -277.5t-248.5 -101.5q-82 0 -147.5 31t-106 83.5t-61.5 118t-21 138.5q0 157 88.5 257t241.5 100q106 0 185 -50t117.5 -128t38.5 -171zM223 1578l214 -205l-218 -86l49 -118l254 101q229 -228 320 -394q-3 2 -17.5 12.5t-19 14t-19 13t-22 13.5 t-23 11.5t-26 11t-27.5 9t-32.5 7.5t-35 4t-39.5 2q-212 0 -346 -134t-134 -351q0 -138 56 -252t171 -185.5t271 -71.5q240 0 369 141t129 369q0 211 -86 380q-51 96 -132 202t-219 257l248 95l-50 115l-287 -111l-150 150h-198z" />
<glyph unicode="&#xf1;" horiz-adv-x="1208" d="M375 1310h93q13 99 68 99q30 0 82.5 -24.5t111 -49.5t103.5 -25q71 0 111.5 55.5t40.5 157.5h-96q-12 -87 -61 -87q-24 0 -71 22t-105 44t-110 22q-79 0 -123 -55.5t-44 -158.5zM164 0h182v612q0 158 78.5 258t236.5 100q116 0 164 -78.5t48 -226.5v-665h181v652 q0 454 -355 454q-268 0 -365 -235l-19 211h-151v-1082z" />
<glyph unicode="&#xf2;" horiz-adv-x="1226" d="M608 -20q232 0 360.5 152.5t128.5 409.5q0 261 -127.5 412.5t-361.5 151.5q-235 0 -362.5 -151t-127.5 -413q0 -257 129 -409.5t361 -152.5zM608 115q-152 0 -227.5 115.5t-75.5 310.5q0 198 75.5 313.5t227.5 115.5t227 -115.5t75 -313.5q0 -194 -75 -310t-227 -116z M547 1226h119l-195 377h-232z" />
<glyph unicode="&#xf3;" horiz-adv-x="1226" d="M608 -20q232 0 360.5 152.5t128.5 409.5q0 261 -127.5 412.5t-361.5 151.5q-235 0 -362.5 -151t-127.5 -413q0 -257 129 -409.5t361 -152.5zM608 115q-152 0 -227.5 115.5t-75.5 310.5q0 198 75.5 313.5t227.5 115.5t227 -115.5t75 -313.5q0 -194 -75 -310t-227 -116z M556 1226h119l299 377h-222z" />
<glyph unicode="&#xf4;" horiz-adv-x="1226" d="M608 -20q232 0 360.5 152.5t128.5 409.5q0 261 -127.5 412.5t-361.5 151.5q-235 0 -362.5 -151t-127.5 -413q0 -257 129 -409.5t361 -152.5zM608 115q-152 0 -227.5 115.5t-75.5 310.5q0 198 75.5 313.5t227.5 115.5t227 -115.5t75 -313.5q0 -194 -75 -310t-227 -116z M317 1251h157l137 229l135 -229h157l-196 347h-193z" />
<glyph unicode="&#xf5;" horiz-adv-x="1215" d="M287 1310h93q13 99 68 99q30 0 82.5 -24.5t111 -49.5t103.5 -25q71 0 111.5 55.5t40.5 157.5h-96q-12 -87 -61 -87q-24 0 -71 22t-105 44t-110 22q-79 0 -123 -55.5t-44 -158.5zM608 -20q232 0 360.5 152.5t128.5 409.5q0 261 -127.5 412.5t-361.5 151.5 q-235 0 -362.5 -151t-127.5 -413q0 -257 129 -409.5t361 -152.5zM608 115q-152 0 -227.5 115.5t-75.5 310.5q0 198 75.5 313.5t227.5 115.5t227 -115.5t75 -313.5q0 -194 -75 -310t-227 -116z" />
<glyph unicode="&#xf6;" horiz-adv-x="1226" d="M608 -20q232 0 360.5 152.5t128.5 409.5q0 261 -127.5 412.5t-361.5 151.5q-235 0 -362.5 -151t-127.5 -413q0 -257 129 -409.5t361 -152.5zM608 115q-152 0 -227.5 115.5t-75.5 310.5q0 198 75.5 313.5t227.5 115.5t227 -115.5t75 -313.5q0 -194 -75 -310t-227 -116z M825 1290q52 0 79 30.5t27 78.5t-27 78.5t-79 30.5q-54 0 -81 -30.5t-27 -78.5t27.5 -78.5t80.5 -30.5zM390 1290q52 0 79 30.5t27 78.5t-27 78.5t-79 30.5q-53 0 -80 -30.5t-27 -78.5t27.5 -78.5t79.5 -30.5z" />
<glyph unicode="&#xf7;" horiz-adv-x="1174" d="M485 1101v-210h203v210h-203zM485 245v-214h200v214h-200zM103 650v-145h963v145h-963z" />
<glyph unicode="&#xf8;" horiz-adv-x="1205" d="M191 -124l66 -39l727 1364l-72 39zM608 -20q232 0 360.5 152.5t128.5 409.5q0 261 -127.5 412.5t-361.5 151.5q-235 0 -362.5 -151t-127.5 -413q0 -257 129 -409.5t361 -152.5zM608 115q-152 0 -227.5 115.5t-75.5 310.5q0 198 75.5 313.5t227.5 115.5t227 -115.5 t75 -313.5q0 -194 -75 -310t-227 -116z" />
<glyph unicode="&#xf9;" d="M866 259q-111 -146 -298 -146q-123 0 -177.5 74.5t-54.5 220.5v674h-182v-678q0 -424 389 -424q214 0 337 155l10 -135h157v1082h-181v-823zM537 1226h119l-195 377h-232z" />
<glyph unicode="&#xfa;" d="M866 259q-111 -146 -298 -146q-123 0 -177.5 74.5t-54.5 220.5v674h-182v-678q0 -424 389 -424q214 0 337 155l10 -135h157v1082h-181v-823zM547 1226h119l299 377h-222z" />
<glyph unicode="&#xfb;" d="M866 259q-111 -146 -298 -146q-123 0 -177.5 74.5t-54.5 220.5v674h-182v-678q0 -424 389 -424q214 0 337 155l10 -135h157v1082h-181v-823zM308 1251h157l137 229l135 -229h157l-196 347h-193z" />
<glyph unicode="&#xfc;" d="M866 259q-111 -146 -298 -146q-123 0 -177.5 74.5t-54.5 220.5v674h-182v-678q0 -424 389 -424q214 0 337 155l10 -135h157v1082h-181v-823zM816 1290q52 0 79 30.5t27 78.5t-27 78.5t-79 30.5q-54 0 -81 -30.5t-27 -78.5t27.5 -78.5t80.5 -30.5zM381 1290q52 0 79 30.5 t27 78.5t-27 78.5t-79 30.5q-53 0 -80 -30.5t-27 -78.5t27.5 -78.5t79.5 -30.5z" />
<glyph unicode="&#xfd;" horiz-adv-x="1097" d="M1083 1082h-175l-329 -839l-350 839h-190l450 -1038l-160 -418l156 -40zM497 1226h119l299 377h-222z" />
<glyph unicode="&#xfe;" horiz-adv-x="1211" d="M111 340v-801h175v801h-175zM577 115q-189 0 -287 135v309q0 194 75 302.5t231 108.5q74 0 127 -31t83 -90t43.5 -134t13.5 -173q0 -204 -70.5 -315.5t-215.5 -111.5zM622 1106q-241 0 -332 -224l7 227v451l-182 -20v-1540h148l11 115q52 -62 132 -98.5t182 -36.5 q218 0 339.5 152.5t121.5 410.5q0 168 -44.5 292t-142 197.5t-240.5 73.5z" />
<glyph unicode="&#xff;" horiz-adv-x="1097" d="M1083 1082h-175l-329 -839l-350 839h-190l450 -1038l-160 -418l156 -40zM765 1290q52 0 79 30.5t27 78.5t-27 78.5t-79 30.5q-54 0 -81 -30.5t-27 -78.5t27.5 -78.5t80.5 -30.5zM330 1290q52 0 79 30.5t27 78.5t-27 78.5t-79 30.5q-53 0 -80 -30.5t-27 -78.5t27.5 -78.5 t79.5 -30.5z" />
<glyph unicode="&#x100;" horiz-adv-x="1419" d="M400 1717h584v100h-584v-100zM608 1456l-545 -1456h192l167 453h573l168 -453h193l-550 1456h-198zM467 588l241 680l242 -680h-483z" />
<glyph unicode="&#x101;" horiz-adv-x="1120" d="M256 1344h584v100h-584v-100zM490 109q-93 0 -148.5 43.5t-55.5 139.5q0 97 65.5 143t225.5 46l211 -1v-227q-52 -67 -128.5 -105.5t-169.5 -38.5zM113 294q0 -154 94.5 -234t254.5 -80q214 0 342 153l13 -133h152v705q0 107 -30 185.5t-86 125t-129.5 68.5t-167.5 22 q-112 0 -219 -26t-186 -76l53 -138q73 50 168.5 76t178.5 26q120 0 178.5 -59.5t58.5 -188.5v-125l-232 3h-12q-431 0 -431 -304z" />
<glyph unicode="&#x102;" horiz-adv-x="1419" d="M702 1678q110 0 178.5 62.5t68.5 181.5h-115q0 -64 -39.5 -97.5t-92.5 -33.5q-52 0 -89.5 33.5t-37.5 97.5h-117q0 -119 67.5 -181.5t176.5 -62.5zM608 1456l-545 -1456h192l167 453h573l168 -453h193l-550 1456h-198zM467 588l241 680l242 -680h-483z" />
<glyph unicode="&#x103;" horiz-adv-x="1120" d="M558 1305q110 0 178.5 62.5t68.5 181.5h-115q0 -64 -39.5 -97.5t-92.5 -33.5q-52 0 -89.5 33.5t-37.5 97.5h-117q0 -119 67.5 -181.5t176.5 -62.5zM490 109q-93 0 -148.5 43.5t-55.5 139.5q0 97 65.5 143t225.5 46l211 -1v-227q-52 -67 -128.5 -105.5t-169.5 -38.5z M113 294q0 -154 94.5 -234t254.5 -80q214 0 342 153l13 -133h152v705q0 107 -30 185.5t-86 125t-129.5 68.5t-167.5 22q-112 0 -219 -26t-186 -76l53 -138q73 50 168.5 76t178.5 26q120 0 178.5 -59.5t58.5 -188.5v-125l-232 3h-12q-431 0 -431 -304z" />
<glyph unicode="&#x104;" horiz-adv-x="1419" d="M1193 -423q81 0 149 31l-3 109q-56 -25 -110 -25q-36 0 -59 20t-23 60q0 53 46.5 124t96.5 108h-84q-80 -33 -142 -111.5t-62 -161.5q0 -72 49.5 -113t141.5 -41zM608 1456l-545 -1456h192l167 453h573l168 -453h193l-550 1456h-198zM467 588l241 680l242 -680h-483z" />
<glyph unicode="&#x105;" horiz-adv-x="1120" d="M849 -422q81 0 149 31l-3 109q-56 -25 -110 -25q-36 0 -59 20t-23 60q0 53 46.5 124t96.5 108h-84q-80 -33 -142 -111.5t-62 -161.5q0 -72 49.5 -113t141.5 -41zM490 109q-93 0 -148.5 43.5t-55.5 139.5q0 97 65.5 143t225.5 46l211 -1v-227q-52 -67 -128.5 -105.5 t-169.5 -38.5zM113 294q0 -154 94.5 -234t254.5 -80q214 0 342 153l13 -133h152v705q0 107 -30 185.5t-86 125t-129.5 68.5t-167.5 22q-112 0 -219 -26t-186 -76l53 -138q73 50 168.5 76t178.5 26q120 0 178.5 -59.5t58.5 -188.5v-125l-232 3h-12q-431 0 -431 -304z" />
<glyph unicode="&#x106;" horiz-adv-x="1433" d="M712 1583h119l299 377h-222zM1341 1097q-25 123 -109.5 211t-195 129t-235.5 41q-296 0 -472.5 -198.5t-176.5 -550.5t176.5 -550.5t472.5 -198.5q126 0 237.5 41t196.5 129.5t110 210.5l-140 51h-16q-27 -121 -132.5 -200t-242.5 -79q-215 0 -339.5 152.5t-124.5 443.5 t124 443t340 152q137 0 240.5 -78t130.5 -200h16z" />
<glyph unicode="&#x107;" horiz-adv-x="1109" d="M873 272q-41 -75 -100 -115t-155 -40h-2q-152 0 -231.5 111.5t-79.5 314.5q0 204 80 315t233 111q95 0 154.5 -41t101.5 -117h13l113 65q-98 230 -390 230q-226 0 -359 -152t-133 -411t133 -411t359 -152q85 0 154 20t114 54.5t74 72.5t48 83l-114 62h-13zM557 1226h119 l299 377h-222z" />
<glyph unicode="&#x108;" horiz-adv-x="1433" d="M477 1625h157l137 229l135 -229h157l-196 347h-193zM1341 1097q-25 123 -109.5 211t-195 129t-235.5 41q-296 0 -472.5 -198.5t-176.5 -550.5t176.5 -550.5t472.5 -198.5q126 0 237.5 41t196.5 129.5t110 210.5l-140 51h-16q-27 -121 -132.5 -200t-242.5 -79 q-215 0 -339.5 152.5t-124.5 443.5t124 443t340 152q137 0 240.5 -78t130.5 -200h16z" />
<glyph unicode="&#x109;" horiz-adv-x="1090" d="M325 1252h157l137 229l135 -229h157l-196 347h-193zM873 272q-41 -75 -100 -115t-155 -40h-2q-152 0 -231.5 111.5t-79.5 314.5q0 204 80 315t233 111q95 0 154.5 -41t101.5 -117h13l113 65q-98 230 -390 230q-226 0 -359 -152t-133 -411t133 -411t359 -152q85 0 154 20 t114 54.5t74 72.5t48 83l-114 62h-13z" />
<glyph unicode="&#x10a;" horiz-adv-x="1433" d="M908 1805q0 58 -34.5 91.5t-97.5 33.5t-97.5 -33.5t-34.5 -91.5q0 -60 34.5 -94.5t97.5 -34.5t97.5 34.5t34.5 94.5zM1341 1097q-25 123 -109.5 211t-195 129t-235.5 41q-296 0 -472.5 -198.5t-176.5 -550.5t176.5 -550.5t472.5 -198.5q126 0 237.5 41t196.5 129.5 t110 210.5l-140 51h-16q-27 -121 -132.5 -200t-242.5 -79q-215 0 -339.5 152.5t-124.5 443.5t124 443t340 152q137 0 240.5 -78t130.5 -200h16z" />
<glyph unicode="&#x10b;" horiz-adv-x="1090" d="M756 1432q0 58 -34.5 91.5t-97.5 33.5t-97.5 -33.5t-34.5 -91.5q0 -60 34.5 -94.5t97.5 -34.5t97.5 34.5t34.5 94.5zM873 272q-41 -75 -100 -115t-155 -40h-2q-152 0 -231.5 111.5t-79.5 314.5q0 204 80 315t233 111q95 0 154.5 -41t101.5 -117h13l113 65 q-98 230 -390 230q-226 0 -359 -152t-133 -411t133 -411t359 -152q85 0 154 20t114 54.5t74 72.5t48 83l-114 62h-13z" />
<glyph unicode="&#x10c;" horiz-adv-x="1433" d="M665 1612h193l196 347h-157l-135 -229l-137 229h-157zM1341 1097q-25 123 -109.5 211t-195 129t-235.5 41q-296 0 -472.5 -198.5t-176.5 -550.5t176.5 -550.5t472.5 -198.5q126 0 237.5 41t196.5 129.5t110 210.5l-140 51h-16q-27 -121 -132.5 -200t-242.5 -79 q-215 0 -339.5 152.5t-124.5 443.5t124 443t340 152q137 0 240.5 -78t130.5 -200h16z" />
<glyph unicode="&#x10d;" horiz-adv-x="1090" d="M513 1239h193l196 347h-157l-135 -229l-137 229h-157zM873 272q-41 -75 -100 -115t-155 -40h-2q-152 0 -231.5 111.5t-79.5 314.5q0 204 80 315t233 111q95 0 154.5 -41t101.5 -117h13l113 65q-98 230 -390 230q-226 0 -359 -152t-133 -411t133 -411t359 -152 q85 0 154 20t114 54.5t74 72.5t48 83l-114 62h-13z" />
<glyph unicode="&#x10e;" horiz-adv-x="1500" d="M632 1612h193l196 347h-157l-135 -229l-137 229h-157zM203 10q167 -21 306 -21q155 0 280.5 24.5t216.5 72t157.5 113t106.5 151.5t58.5 183t18.5 212q0 96 -10 175.5t-33.5 154.5t-62.5 133t-98.5 107t-138.5 80.5t-185.5 49t-237.5 17.5q-169 0 -378 -28v-1424z M397 135v1178q111 12 201 12q134 0 232.5 -27t160 -75t98.5 -123.5t51 -160.5t14 -199q0 -113 -15.5 -201.5t-56 -168t-106.5 -131.5t-171 -82.5t-245 -30.5q-76 0 -163 9z" />
<glyph unicode="&#x10f;" horiz-adv-x="1251" d="M603 115q-149 0 -223.5 112t-74.5 320q0 203 75 313t222 110q89 0 161 -32.5t114 -92.5v-615q-94 -115 -274 -115zM584 -20q85 0 168 35.5t140 102.5l10 -118h157v1560l-188 -20v-387l5 -161q-104 111 -279 111h-8h-6q-216 0 -340.5 -151.5t-124.5 -407.5 q0 -257 121.5 -410.5t344.5 -153.5zM1248 1159h133l80 383h-178z" />
<glyph unicode="&#x110;" horiz-adv-x="1500" d="M67 685h509v141h-509v-141zM203 10q167 -21 306 -21q155 0 280.5 24.5t216.5 72t157.5 113t106.5 151.5t58.5 183t18.5 212q0 96 -10 175.5t-33.5 154.5t-62.5 133t-98.5 107t-138.5 80.5t-185.5 49t-237.5 17.5q-169 0 -378 -28v-1424zM397 135v1178q111 12 201 12 q134 0 232.5 -27t160 -75t98.5 -123.5t51 -160.5t14 -199q0 -113 -15.5 -201.5t-56 -168t-106.5 -131.5t-171 -82.5t-245 -30.5q-76 0 -163 9z" />
<glyph unicode="&#x111;" horiz-adv-x="1231" d="M679 1263h584v100h-584v-100zM603 115q-149 0 -223.5 112t-74.5 320q0 203 75 313t222 110q89 0 161 -32.5t114 -92.5v-615q-94 -115 -274 -115zM584 -20q85 0 168 35.5t140 102.5l10 -118h157v1560l-188 -20v-387l5 -161q-104 111 -279 111h-8h-6q-216 0 -340.5 -151.5 t-124.5 -407.5q0 -257 121.5 -410.5t344.5 -153.5z" />
<glyph unicode="&#x112;" horiz-adv-x="1309" d="M432 1717h584v100h-584v-100zM203 1456v-1456h963l12 148h-781v532h700v147h-700v483h758l7 146h-959z" />
<glyph unicode="&#x113;" horiz-adv-x="1143" d="M319 1343h584v100h-584v-100zM309 627q14 159 99.5 251.5t216.5 92.5q127 0 191 -89t66 -255h-573zM1029 509l3 21q2 22 4 49t2 41q0 226 -112 356t-310 130q-103 0 -193 -38.5t-157.5 -110t-106.5 -179.5t-39 -240q0 -127 40 -233t109.5 -176.5t164 -109.5t204.5 -39 q216 0 370 107l-42 119h-13q-81 -46 -144.5 -68.5t-147.5 -22.5q-153 0 -248 97.5t-107 296.5h723z" />
<glyph unicode="&#x114;" horiz-adv-x="1309" d="M734 1678q110 0 178.5 62.5t68.5 181.5h-115q0 -64 -39.5 -97.5t-92.5 -33.5q-52 0 -89.5 33.5t-37.5 97.5h-117q0 -119 67.5 -181.5t176.5 -62.5zM203 1456v-1456h963l12 148h-781v532h700v147h-700v483h758l7 146h-959z" />
<glyph unicode="&#x115;" horiz-adv-x="1159" d="M309 627q14 159 99.5 251.5t216.5 92.5q127 0 191 -89t66 -255h-573zM1029 509l3 21q2 22 4 49t2 41q0 226 -112 356t-310 130q-103 0 -193 -38.5t-157.5 -110t-106.5 -179.5t-39 -240q0 -127 40 -233t109.5 -176.5t164 -109.5t204.5 -39q216 0 370 107l-42 119h-13 q-81 -46 -144.5 -68.5t-147.5 -22.5q-153 0 -248 97.5t-107 296.5h723zM596 1305q110 0 178.5 62.5t68.5 181.5h-115q0 -64 -39.5 -97.5t-92.5 -33.5q-52 0 -89.5 33.5t-37.5 97.5h-117q0 -119 67.5 -181.5t176.5 -62.5z" />
<glyph unicode="&#x116;" horiz-adv-x="1309" d="M871 1805q0 58 -34.5 91.5t-97.5 33.5t-97.5 -33.5t-34.5 -91.5q0 -60 34.5 -94.5t97.5 -34.5t97.5 34.5t34.5 94.5zM203 1456v-1456h963l12 148h-781v532h700v147h-700v483h758l7 146h-959z" />
<glyph unicode="&#x117;" horiz-adv-x="1159" d="M309 627q14 159 99.5 251.5t216.5 92.5q127 0 191 -89t66 -255h-573zM1029 509l3 21q2 22 4 49t2 41q0 226 -112 356t-310 130q-103 0 -193 -38.5t-157.5 -110t-106.5 -179.5t-39 -240q0 -127 40 -233t109.5 -176.5t164 -109.5t204.5 -39q216 0 370 107l-42 119h-13 q-81 -46 -144.5 -68.5t-147.5 -22.5q-153 0 -248 97.5t-107 296.5h723zM733 1431q0 58 -34.5 91.5t-97.5 33.5t-97.5 -33.5t-34.5 -91.5q0 -60 34.5 -94.5t97.5 -34.5t97.5 34.5t34.5 94.5z" />
<glyph unicode="&#x118;" horiz-adv-x="1309" d="M842 -423q81 0 149 31l-3 109q-56 -25 -110 -25q-36 0 -59 20t-23 60q0 53 46.5 124t96.5 108h-84q-80 -33 -142 -111.5t-62 -161.5q0 -72 49.5 -113t141.5 -41zM203 1456v-1456h963l12 148h-781v532h700v147h-700v483h758l7 146h-959z" />
<glyph unicode="&#x119;" horiz-adv-x="1143" d="M857 -373q81 0 149 31l-3 109q-56 -25 -110 -25q-36 0 -59 20t-23 60q0 53 46.5 124t96.5 108h-84q-80 -33 -142 -111.5t-62 -161.5q0 -72 49.5 -113t141.5 -41zM309 627q14 159 99.5 251.5t216.5 92.5q127 0 191 -89t66 -255h-573zM1029 509l3 21q2 22 4 49t2 41 q0 226 -112 356t-310 130q-103 0 -193 -38.5t-157.5 -110t-106.5 -179.5t-39 -240q0 -127 40 -233t109.5 -176.5t164 -109.5t204.5 -39q216 0 370 107l-42 119h-13q-81 -46 -144.5 -68.5t-147.5 -22.5q-153 0 -248 97.5t-107 296.5h723z" />
<glyph unicode="&#x11a;" horiz-adv-x="1309" d="M628 1612h193l196 347h-157l-135 -229l-137 229h-157zM203 1456v-1456h963l12 148h-781v532h700v147h-700v483h758l7 146h-959z" />
<glyph unicode="&#x11b;" horiz-adv-x="1159" d="M309 627q14 159 99.5 251.5t216.5 92.5q127 0 191 -89t66 -255h-573zM1029 509l3 21q2 22 4 49t2 41q0 226 -112 356t-310 130q-103 0 -193 -38.5t-157.5 -110t-106.5 -179.5t-39 -240q0 -127 40 -233t109.5 -176.5t164 -109.5t204.5 -39q216 0 370 107l-42 119h-13 q-81 -46 -144.5 -68.5t-147.5 -22.5q-153 0 -248 97.5t-107 296.5h723zM490 1238h193l196 347h-157l-135 -229l-137 229h-157z" />
<glyph unicode="&#x11c;" horiz-adv-x="1478" d="M501 1625h157l137 229l135 -229h157l-196 347h-193zM822 -20q277 0 510 93v696h-495l-9 -129l327 -22v-443q-145 -42 -299 -42q-266 0 -386 156t-120 448q0 270 130 428t374 158q125 0 219.5 -43t149.5 -104h17l96 106q-68 87 -197 140.5t-291 53.5q-327 0 -511.5 -199 t-184.5 -541q0 -169 42 -307t124 -238.5t210.5 -155.5t293.5 -55z" />
<glyph unicode="&#x11d;" horiz-adv-x="1262" d="M598 115q-150 0 -224.5 112t-74.5 320q0 201 75.5 312t221.5 111q179 0 275 -134v-604q-42 -57 -114 -87t-159 -30zM581 -18q187 0 293 111l1 -82v-7q0 -192 -79 -270.5t-239 -78.5q-156 0 -289 56h-23l-15 -142q154 -56 329 -56q259 0 373 131t114 408v1030h-155 l-8 -110q-109 134 -298 134q-216 0 -344 -151.5t-128 -408.5q0 -263 123.5 -413.5t344.5 -150.5zM308 1234h157l137 229l135 -229h157l-196 347h-193z" />
<glyph unicode="&#x11e;" horiz-adv-x="1478" d="M795 1678q110 0 178.5 62.5t68.5 181.5h-115q0 -64 -39.5 -97.5t-92.5 -33.5q-52 0 -89.5 33.5t-37.5 97.5h-117q0 -119 67.5 -181.5t176.5 -62.5zM822 -20q277 0 510 93v696h-495l-9 -129l327 -22v-443q-145 -42 -299 -42q-266 0 -386 156t-120 448q0 270 130 428 t374 158q125 0 219.5 -43t149.5 -104h17l96 106q-68 87 -197 140.5t-291 53.5q-327 0 -511.5 -199t-184.5 -541q0 -169 42 -307t124 -238.5t210.5 -155.5t293.5 -55z" />
<glyph unicode="&#x11f;" horiz-adv-x="1262" d="M598 115q-150 0 -224.5 112t-74.5 320q0 201 75.5 312t221.5 111q179 0 275 -134v-604q-42 -57 -114 -87t-159 -30zM581 -18q187 0 293 111l1 -82v-7q0 -192 -79 -270.5t-239 -78.5q-156 0 -289 56h-23l-15 -142q154 -56 329 -56q259 0 373 131t114 408v1030h-155 l-8 -110q-109 134 -298 134q-216 0 -344 -151.5t-128 -408.5q0 -263 123.5 -413.5t344.5 -150.5zM603 1288q110 0 178.5 62.5t68.5 181.5h-115q0 -64 -39.5 -97.5t-92.5 -33.5q-52 0 -89.5 33.5t-37.5 97.5h-117q0 -119 67.5 -181.5t176.5 -62.5z" />
<glyph unicode="&#x120;" horiz-adv-x="1478" d="M932 1805q0 58 -34.5 91.5t-97.5 33.5t-97.5 -33.5t-34.5 -91.5q0 -60 34.5 -94.5t97.5 -34.5t97.5 34.5t34.5 94.5zM822 -20q277 0 510 93v696h-495l-9 -129l327 -22v-443q-145 -42 -299 -42q-266 0 -386 156t-120 448q0 270 130 428t374 158q125 0 219.5 -43 t149.5 -104h17l96 106q-68 87 -197 140.5t-291 53.5q-327 0 -511.5 -199t-184.5 -541q0 -169 42 -307t124 -238.5t210.5 -155.5t293.5 -55z" />
<glyph unicode="&#x121;" horiz-adv-x="1262" d="M598 115q-150 0 -224.5 112t-74.5 320q0 201 75.5 312t221.5 111q179 0 275 -134v-604q-42 -57 -114 -87t-159 -30zM581 -18q187 0 293 111l1 -82v-7q0 -192 -79 -270.5t-239 -78.5q-156 0 -289 56h-23l-15 -142q154 -56 329 -56q259 0 373 131t114 408v1030h-155 l-8 -110q-109 134 -298 134q-216 0 -344 -151.5t-128 -408.5q0 -263 123.5 -413.5t344.5 -150.5zM740 1414q0 58 -34.5 91.5t-97.5 33.5t-97.5 -33.5t-34.5 -91.5q0 -60 34.5 -94.5t97.5 -34.5t97.5 34.5t34.5 94.5z" />
<glyph unicode="&#x122;" horiz-adv-x="1478" d="M670 -522h122q4 14 11 37.5t24 86t30 112t23.5 95.5t10.5 58h-174q0 -31 -11.5 -128t-23.5 -179zM822 -20q277 0 510 93v696h-495l-9 -129l327 -22v-443q-145 -42 -299 -42q-266 0 -386 156t-120 448q0 270 130 428t374 158q125 0 219.5 -43t149.5 -104h17l96 106 q-68 87 -197 140.5t-291 53.5q-327 0 -511.5 -199t-184.5 -541q0 -169 42 -307t124 -238.5t210.5 -155.5t293.5 -55z" />
<glyph unicode="&#x123;" horiz-adv-x="1262" d="M598 115q-150 0 -224.5 112t-74.5 320q0 201 75.5 312t221.5 111q179 0 275 -134v-604q-42 -57 -114 -87t-159 -30zM581 -18q187 0 293 111l1 -82v-7q0 -192 -79 -270.5t-239 -78.5q-156 0 -289 56h-23l-15 -142q154 -56 329 -56q259 0 373 131t114 408v1030h-155 l-8 -110q-109 134 -298 134q-216 0 -344 -151.5t-128 -408.5q0 -263 123.5 -413.5t344.5 -150.5zM508 1304l-4 -22h197q0 31 8 156.5t16 235.5l8 110h-119q-106 -440 -106 -480z" />
<glyph unicode="&#x124;" horiz-adv-x="1541" d="M486 1625h157l137 229l135 -229h157l-196 347h-193zM1140 673v-674h195v1457h-195v-631h-739v631h-194v-1457h194v674h739z" />
<glyph unicode="&#x125;" horiz-adv-x="1160" d="M167 0h181v596q0 75 16 138.5t51 118t98.5 86t149.5 31.5q114 0 164 -75t50 -234v-661h184v670q0 209 -93.5 322.5t-267.5 113.5q-258 0 -357 -226l6 267v413l-182 -20v-1540zM245 1563h157l137 229l135 -229h157l-196 347h-193z" />
<glyph unicode="&#x126;" horiz-adv-x="1486" d="M63 1280v-125h1351v125h-1351zM1140 673v-674h195v1457h-195v-631h-739v631h-194v-1457h194v674h739z" />
<glyph unicode="&#x127;" horiz-adv-x="1215" d="M-24 1234h584v100h-584v-100zM167 0h181v596q0 75 16 138.5t51 118t98.5 86t149.5 31.5q114 0 164 -75t50 -234v-661h184v670q0 209 -93.5 322.5t-267.5 113.5q-258 0 -357 -226l6 267v413l-182 -20v-1540z" />
<glyph unicode="&#x128;" horiz-adv-x="973" d="M162 1684h93q13 99 68 99q30 0 82.5 -24.5t111 -49.5t103.5 -25q71 0 111.5 55.5t40.5 157.5h-96q-12 -87 -61 -87q-24 0 -71 22t-105 44t-110 22q-79 0 -123 -55.5t-44 -158.5zM191 1456v-118h194v-1220h-194v-119h581v119h-192v1220h192v118h-581z" />
<glyph unicode="&#x129;" horiz-adv-x="527" d="M-41 1310h93q13 99 68 99q30 0 82.5 -24.5t111 -49.5t103.5 -25q71 0 111.5 55.5t40.5 157.5h-96q-12 -87 -61 -87q-24 0 -71 22t-105 44t-110 22q-79 0 -123 -55.5t-44 -158.5zM183 1082v-1082h182v1082h-182z" />
<glyph unicode="&#x12a;" horiz-adv-x="973" d="M177 1717h584v100h-584v-100zM191 1456v-118h194v-1220h-194v-119h581v119h-192v1220h192v118h-581z" />
<glyph unicode="&#x12b;" horiz-adv-x="527" d="M-26 1343h584v100h-584v-100zM183 1082v-1082h182v1082h-182z" />
<glyph unicode="&#x12c;" horiz-adv-x="973" d="M479 1678q110 0 178.5 62.5t68.5 181.5h-115q0 -64 -39.5 -97.5t-92.5 -33.5q-52 0 -89.5 33.5t-37.5 97.5h-117q0 -119 67.5 -181.5t176.5 -62.5zM191 1456v-118h194v-1220h-194v-119h581v119h-192v1220h192v118h-581z" />
<glyph unicode="&#x12d;" horiz-adv-x="535" d="M183 1082v-1082h182v1082h-182zM271 1305q110 0 178.5 62.5t68.5 181.5h-115q0 -64 -39.5 -97.5t-92.5 -33.5q-52 0 -89.5 33.5t-37.5 97.5h-117q0 -119 67.5 -181.5t176.5 -62.5z" />
<glyph unicode="&#x12e;" horiz-adv-x="973" d="M435 -423q81 0 149 31l-3 109q-56 -25 -110 -25q-36 0 -59 20t-23 60q0 53 46.5 124t96.5 108h-84q-80 -33 -142 -111.5t-62 -161.5q0 -72 49.5 -113t141.5 -41zM191 1456v-118h194v-1220h-194v-119h581v119h-192v1220h192v118h-581z" />
<glyph unicode="&#x12f;" horiz-adv-x="535" d="M307 -423q81 0 149 31l-3 109q-56 -25 -110 -25q-36 0 -59 20t-23 60q0 53 46.5 124t96.5 108h-84q-80 -33 -142 -111.5t-62 -161.5q0 -72 49.5 -113t141.5 -41zM183 1082v-1082h182v1082h-182zM408 1431q0 58 -34.5 91.5t-97.5 33.5t-97.5 -33.5t-34.5 -91.5 q0 -60 34.5 -94.5t97.5 -34.5t97.5 34.5t34.5 94.5z" />
<glyph unicode="&#x130;" horiz-adv-x="973" d="M616 1805q0 58 -34.5 91.5t-97.5 33.5t-97.5 -33.5t-34.5 -91.5q0 -60 34.5 -94.5t97.5 -34.5t97.5 34.5t34.5 94.5zM191 1456v-118h194v-1220h-194v-119h581v119h-192v1220h192v118h-581z" />
<glyph unicode="&#x131;" horiz-adv-x="527" d="M183 1082v-1082h182v1082h-182z" />
<glyph unicode="&#x132;" horiz-adv-x="1770" d="M1343 1456v-1426q0 -74 -2 -107.5t-14.5 -63t-32.5 -43t-61 -30.5l-123 -52l60 -146l89 32q75 27 119 49.5t79 52t50.5 71.5t23 96.5t7.5 139.5v1427h-195zM191 1456v-118h194v-1220h-194v-119h581v119h-192v1220h192v118h-581z" />
<glyph unicode="&#x133;" horiz-adv-x="1181" d="M1045 1431q0 58 -34.5 91.5t-97.5 33.5t-97.5 -33.5t-34.5 -91.5q0 -60 34.5 -94.5t97.5 -34.5t97.5 34.5t34.5 94.5zM833 1082v-1063q0 -47 -1 -71.5t-3.5 -54t-9 -43.5t-17 -30.5t-28 -25t-40 -16.5t-56.5 -16l-65 -15l29 -142l62 10q88 14 144 36t95 64.5t55.5 108 t16.5 164.5v1094h-182zM444 1431q0 58 -34.5 91.5t-97.5 33.5t-97.5 -33.5t-34.5 -91.5q0 -60 34.5 -94.5t97.5 -34.5t97.5 34.5t34.5 94.5zM219 1082v-1082h182v1082h-182z" />
<glyph unicode="&#x134;" horiz-adv-x="797" d="M175 1625h157l137 229l135 -229h157l-196 347h-193zM370 1456v-1426q0 -74 -2 -107.5t-14.5 -63t-32.5 -43t-61 -30.5l-123 -52l60 -146l89 32q75 27 119 49.5t79 52t50.5 71.5t23 96.5t7.5 139.5v1427h-195z" />
<glyph unicode="&#x135;" horiz-adv-x="591" d="M241 1082v-1063q0 -47 -1 -71.5t-3.5 -54t-9 -43.5t-17 -30.5t-28 -25t-40 -16.5t-56.5 -16l-65 -15l29 -142l62 10q88 14 144 36t95 64.5t55.5 108t16.5 164.5v1094h-182zM25 1251h157l137 229l135 -229h157l-196 347h-193z" />
<glyph unicode="&#x136;" horiz-adv-x="1319" d="M557 -523h122q4 14 11 37.5t24 86t30 112t23.5 95.5t10.5 58h-174q0 -31 -11.5 -128t-23.5 -179zM1294 1456h-212l-685 -695v695h-194v-1456h194v578l158 154l559 -732h218v19l-634 818l596 599v20z" />
<glyph unicode="&#x137;" horiz-adv-x="1131" d="M167 0h182v400l121 104l410 -504h195v25l-476 566l444 468v23h-206l-494 -530l6 213v795l-182 -20v-1540zM481 -523h122q4 14 11 37.5t24 86t30 112t23.5 95.5t10.5 58h-174q0 -31 -11.5 -128t-23.5 -179z" />
<glyph unicode="&#x138;" horiz-adv-x="1089" d="M152 0h174v393l124 108l411 -501h192v22l-479 567l446 470v23h-201l-499 -538l6 221v317h-174v-1082z" />
<glyph unicode="&#x139;" horiz-adv-x="1103" d="M380 1583h119l299 377h-222zM203 1456v-1456h892l6 146h-704v1310h-194z" />
<glyph unicode="&#x13a;" horiz-adv-x="671" d="M478 -8h71l14 132l-62 4q-50 4 -74 9.5t-41.5 26t-21.5 53t-4 95.5v1248l-181 -20v-1230q0 -98 18 -161.5t57.5 -97.5t90.5 -46.5t128 -12.5h5zM271 1646h119l299 377h-222z" />
<glyph unicode="&#x13b;" horiz-adv-x="1103" d="M500 -523h122q4 14 11 37.5t24 86t30 112t23.5 95.5t10.5 58h-174q0 -31 -11.5 -128t-23.5 -179zM203 1456v-1456h892l6 146h-704v1310h-194z" />
<glyph unicode="&#x13c;" horiz-adv-x="671" d="M478 -8h71l14 132l-62 4q-50 4 -74 9.5t-41.5 26t-21.5 53t-4 95.5v1248l-181 -20v-1230q0 -98 18 -161.5t57.5 -97.5t90.5 -46.5t128 -12.5h5zM194 -523h122q4 14 11 37.5t24 86t30 112t23.5 95.5t10.5 58h-174q0 -31 -11.5 -128t-23.5 -179z" />
<glyph unicode="&#x13d;" horiz-adv-x="1103" d="M657 1159h133l80 383h-178zM203 1456v-1456h892l6 146h-704v1310h-194z" />
<glyph unicode="&#x13e;" horiz-adv-x="671" d="M478 -8h71l14 132l-62 4q-50 4 -74 9.5t-41.5 26t-21.5 53t-4 95.5v1248l-181 -20v-1230q0 -98 18 -161.5t57.5 -97.5t90.5 -46.5t128 -12.5h5zM627 1159h133l80 383h-178z" />
<glyph unicode="&#x13f;" horiz-adv-x="1103" d="M720 664q51 0 83.5 32.5t32.5 83.5t-32.5 82.5t-83.5 31.5t-84 -31.5t-33 -82.5t33 -83.5t84 -32.5zM203 1456v-1456h892l6 146h-704v1310h-194z" />
<glyph unicode="&#x140;" horiz-adv-x="642" d="M628 693q51 0 83.5 32.5t32.5 83.5t-32.5 82.5t-83.5 31.5t-84 -31.5t-33 -82.5t33 -83.5t84 -32.5zM478 -8h71l14 132l-62 4q-50 4 -74 9.5t-41.5 26t-21.5 53t-4 95.5v1248l-181 -20v-1230q0 -98 18 -161.5t57.5 -97.5t90.5 -46.5t128 -12.5h5z" />
<glyph unicode="&#x141;" horiz-adv-x="1103" d="M34 518l593 325v133l-593 -325v-133zM203 1456v-1456h892l6 146h-704v1310h-194z" />
<glyph unicode="&#x142;" horiz-adv-x="642" d="M4 579l593 325v133l-593 -325v-133zM478 -8h71l14 132l-62 4q-50 4 -74 9.5t-41.5 26t-21.5 53t-4 95.5v1248l-181 -20v-1230q0 -98 18 -161.5t57.5 -97.5t90.5 -46.5t128 -12.5h5z" />
<glyph unicode="&#x143;" horiz-adv-x="1524" d="M725 1583h119l299 377h-222zM1146 1456v-788l11 -419l-760 1207h-194v-1456h178v740l-17 454l755 -1194h202v1456h-175z" />
<glyph unicode="&#x144;" d="M164 0h182v612q0 158 78.5 258t236.5 100q116 0 164 -78.5t48 -226.5v-665h181v652q0 454 -355 454q-268 0 -365 -235l-19 211h-151v-1082zM609 1209h119l299 377h-222z" />
<glyph unicode="&#x145;" horiz-adv-x="1524" d="M639 -523h122q4 14 11 37.5t24 86t30 112t23.5 95.5t10.5 58h-174q0 -31 -11.5 -128t-23.5 -179zM1146 1456v-788l11 -419l-760 1207h-194v-1456h178v740l-17 454l755 -1194h202v1456h-175z" />
<glyph unicode="&#x146;" d="M164 0h182v612q0 158 78.5 258t236.5 100q116 0 164 -78.5t48 -226.5v-665h181v652q0 454 -355 454q-268 0 -365 -235l-19 211h-151v-1082zM481 -523h122q4 14 11 37.5t24 86t30 112t23.5 95.5t10.5 58h-174q0 -31 -11.5 -128t-23.5 -179z" />
<glyph unicode="&#x147;" horiz-adv-x="1524" d="M678 1612h193l196 347h-157l-135 -229l-137 229h-157zM1146 1456v-788l11 -419l-760 1207h-194v-1456h178v740l-17 454l755 -1194h202v1456h-175z" />
<glyph unicode="&#x148;" d="M164 0h182v612q0 158 78.5 258t236.5 100q116 0 164 -78.5t48 -226.5v-665h181v652q0 454 -355 454q-268 0 -365 -235l-19 211h-151v-1082zM559 1221h193l196 347h-157l-135 -229l-137 229h-157z" />
<glyph unicode="&#x149;" horiz-adv-x="1210" d="M164 0h182v612q0 158 78.5 258t236.5 100q116 0 164 -78.5t48 -226.5v-665h181v652q0 454 -355 454q-268 0 -365 -235l-19 211h-151v-1082zM135 1232h142q95 348 111 437h-188z" />
<glyph unicode="&#x14a;" horiz-adv-x="1517" d="M1145 915l1 -917q0 -69 -8 -112.5t-32 -81t-70 -57t-119.5 -30t-184.5 -10.5l2 -141q161 0 268 21t180.5 70.5t106 131.5t32.5 206v920h-176zM1146 1456v-788l11 -419l-760 1207h-194v-1456h178v740l-17 454l755 -1194h202v1456h-175z" />
<glyph unicode="&#x14b;" horiz-adv-x="1197" d="M874 126v-137q0 -60 -4.5 -96.5t-19.5 -72t-41 -54t-72.5 -33.5t-111 -20.5t-158.5 -5.5l2 -141q137 0 232 12.5t165.5 40.5t110.5 77.5t59 119t19 170.5v140h-181zM164 0h182v612q0 158 78.5 258t236.5 100q116 0 164 -78.5t48 -226.5v-665h181v652q0 454 -355 454 q-268 0 -365 -235l-19 211h-151v-1082z" />
<glyph unicode="&#x14c;" horiz-adv-x="1620" d="M507 1717h584v100h-584v-100zM1267 720q0 -586 -456 -586q-457 0 -457 586q0 140 26 248.5t80.5 189t143.5 122.5t209 42q454 0 454 -602zM156 721q0 -350 164.5 -545.5t492.5 -195.5q323 0 487 196.5t164 542.5q0 355 -166.5 556t-483.5 201q-216 0 -365 -92.5 t-221 -260.5t-72 -402z" />
<glyph unicode="&#x14d;" horiz-adv-x="1226" d="M608 -20q232 0 360.5 152.5t128.5 409.5q0 261 -127.5 412.5t-361.5 151.5q-235 0 -362.5 -151t-127.5 -413q0 -257 129 -409.5t361 -152.5zM608 115q-152 0 -227.5 115.5t-75.5 310.5q0 198 75.5 313.5t227.5 115.5t227 -115.5t75 -313.5q0 -194 -75 -310t-227 -116z M309 1344h584v100h-584v-100z" />
<glyph unicode="&#x14e;" horiz-adv-x="1620" d="M809 1678q110 0 178.5 62.5t68.5 181.5h-115q0 -64 -39.5 -97.5t-92.5 -33.5q-52 0 -89.5 33.5t-37.5 97.5h-117q0 -119 67.5 -181.5t176.5 -62.5zM1267 720q0 -586 -456 -586q-457 0 -457 586q0 140 26 248.5t80.5 189t143.5 122.5t209 42q454 0 454 -602zM156 721 q0 -350 164.5 -545.5t492.5 -195.5q323 0 487 196.5t164 542.5q0 355 -166.5 556t-483.5 201q-216 0 -365 -92.5t-221 -260.5t-72 -402z" />
<glyph unicode="&#x14f;" horiz-adv-x="1226" d="M608 -20q232 0 360.5 152.5t128.5 409.5q0 261 -127.5 412.5t-361.5 151.5q-235 0 -362.5 -151t-127.5 -413q0 -257 129 -409.5t361 -152.5zM608 115q-152 0 -227.5 115.5t-75.5 310.5q0 198 75.5 313.5t227.5 115.5t227 -115.5t75 -313.5q0 -194 -75 -310t-227 -116z M612 1305q110 0 178.5 62.5t68.5 181.5h-115q0 -64 -39.5 -97.5t-92.5 -33.5q-52 0 -89.5 33.5t-37.5 97.5h-117q0 -119 67.5 -181.5t176.5 -62.5z" />
<glyph unicode="&#x150;" horiz-adv-x="1620" d="M902 1637h108l225 351h-184zM624 1637h111l187 351h-167zM1267 720q0 -586 -456 -586q-457 0 -457 586q0 140 26 248.5t80.5 189t143.5 122.5t209 42q454 0 454 -602zM156 721q0 -350 164.5 -545.5t492.5 -195.5q323 0 487 196.5t164 542.5q0 355 -166.5 556t-483.5 201 q-216 0 -365 -92.5t-221 -260.5t-72 -402z" />
<glyph unicode="&#x151;" horiz-adv-x="1226" d="M608 -20q232 0 360.5 152.5t128.5 409.5q0 261 -127.5 412.5t-361.5 151.5q-235 0 -362.5 -151t-127.5 -413q0 -257 129 -409.5t361 -152.5zM608 115q-152 0 -227.5 115.5t-75.5 310.5q0 198 75.5 313.5t227.5 115.5t227 -115.5t75 -313.5q0 -194 -75 -310t-227 -116z M704 1264h108l225 351h-184zM426 1264h111l187 351h-167z" />
<glyph unicode="&#x152;" horiz-adv-x="2355" d="M1251 721q0 -588 -459 -588q-461 0 -461 588q0 287 112 445t350 158q458 0 458 -603zM140 722q0 -231 69.5 -395t217.5 -255.5t366 -91.5q153 0 270 51.5t189 148.5v-180h958l11 147h-782v533h701v146h-701v485h759l8 145h-954v-186q-72 100 -190 153.5t-268 53.5 q-321 0 -487.5 -199.5t-166.5 -555.5z" />
<glyph unicode="&#x153;" horiz-adv-x="1909" d="M1083 626q14 159 100.5 252.5t217.5 93.5q128 0 192.5 -89t67.5 -257h-578zM594 115q-104 0 -174.5 56t-101.5 149.5t-31 220.5q0 198 76.5 314t230.5 116t230 -116t76 -314q0 -194 -76 -310t-230 -116zM1811 621q0 225 -111.5 354.5t-306.5 129.5q-124 0 -235 -69.5 t-161 -183.5q-45 116 -154 184.5t-249 68.5q-234 0 -360.5 -151t-126.5 -412q0 -256 128.5 -409t358.5 -153q138 0 250.5 74.5t150.5 189.5q48 -116 168.5 -190t255.5 -74q213 1 363 106l-42 120h-12q-75 -45 -140 -68t-150 -23q-74 0 -136 22t-112.5 67.5t-79.5 123.5 t-30 181h723q8 58 8 90v22z" />
<glyph unicode="&#x154;" horiz-adv-x="1353" d="M650 1583h119l299 377h-222zM1241 1071q0 211 -130.5 302t-444.5 91q-189 0 -459 -30v-1434h194v662l335 1l336 -663h207v20l-349 665q311 78 311 386zM666 1326q121 0 200 -15.5t121.5 -50t58.5 -79.5t16 -114q0 -101 -33 -157.5t-122 -85t-252 -28.5h-254v516 q160 14 265 14z" />
<glyph unicode="&#x155;" horiz-adv-x="827" d="M172 0h181v614q0 146 82 239.5t238 93.5h2l39 -1l14 144q-32 5 -79 5q-213 0 -312 -238l-18 225h-147v-1082zM375 1226h119l299 377h-222z" />
<glyph unicode="&#x156;" horiz-adv-x="1353" d="M585 -523h122q4 14 11 37.5t24 86t30 112t23.5 95.5t10.5 58h-174q0 -31 -11.5 -128t-23.5 -179zM1241 1071q0 211 -130.5 302t-444.5 91q-189 0 -459 -30v-1434h194v662l335 1l336 -663h207v20l-349 665q311 78 311 386zM666 1326q121 0 200 -15.5t121.5 -50t58.5 -79.5 t16 -114q0 -101 -33 -157.5t-122 -85t-252 -28.5h-254v516q160 14 265 14z" />
<glyph unicode="&#x157;" horiz-adv-x="827" d="M172 0h181v614q0 146 82 239.5t238 93.5h2l39 -1l14 144q-32 5 -79 5q-213 0 -312 -238l-18 225h-147v-1082zM168 -523h122q4 14 11 37.5t24 86t30 112t23.5 95.5t10.5 58h-174q0 -31 -11.5 -128t-23.5 -179z" />
<glyph unicode="&#x158;" horiz-adv-x="1353" d="M603 1612h193l196 347h-157l-135 -229l-137 229h-157zM1241 1071q0 211 -130.5 302t-444.5 91q-189 0 -459 -30v-1434h194v662l335 1l336 -663h207v20l-349 665q311 78 311 386zM666 1326q121 0 200 -15.5t121.5 -50t58.5 -79.5t16 -114q0 -101 -33 -157.5t-122 -85 t-252 -28.5h-254v516q160 14 265 14z" />
<glyph unicode="&#x159;" horiz-adv-x="827" d="M172 0h181v614q0 146 82 239.5t238 93.5h2l39 -1l14 144q-32 5 -79 5q-213 0 -312 -238l-18 225h-147v-1082zM325 1238h193l196 347h-157l-135 -229l-137 229h-157z" />
<glyph unicode="&#x15a;" horiz-adv-x="1222" d="M557 1601h119l299 377h-222zM917 384q0 -130 -86.5 -190t-232.5 -60q-103 0 -200 36t-166 104h-13l-107 -103q67 -82 195 -136.5t292 -54.5q77 0 146.5 12.5t135.5 42t114.5 74.5t77.5 115.5t29 158.5q0 55 -9 100.5t-23.5 80.5t-41.5 65.5t-54 52.5t-71 45.5t-81.5 40.5 t-96.5 40l-205 83q-125 52 -166.5 92.5t-41.5 122.5q0 218 300 218q110 0 201.5 -36.5t148.5 -102.5h15l104 104q-77 88 -197.5 137.5t-263.5 49.5q-83 0 -153 -11t-136 -38.5t-112 -71t-74 -113t-28 -159.5q0 -50 9 -90.5t29.5 -73t44 -56.5t64 -47.5t77.5 -41t94 -40.5 l203 -84q89 -37 135 -60t83 -54t49 -65.5t12 -86.5z" />
<glyph unicode="&#x15b;" horiz-adv-x="968" d="M723 307q0 -98 -56 -146.5t-162 -48.5q-197 0 -311 131h-14l-95 -92q66 -83 177 -127t243 -44q81 0 149 19.5t121.5 58.5t83.5 104.5t30 151.5q0 50 -10.5 88t-40.5 78t-91.5 75t-155.5 65l-120 38q-107 34 -141.5 66.5t-34.5 89.5q0 155 214 155q165 0 250 -102h10 l99 81q-51 72 -142.5 115t-217.5 43q-181 0 -286.5 -78t-105.5 -213q0 -54 10 -91t39.5 -76t90 -71.5t156.5 -62.5l122 -38q116 -36 152.5 -73.5t36.5 -95.5zM429 1225h119l299 377h-222z" />
<glyph unicode="&#x15c;" horiz-adv-x="1222" d="M322 1643h157l137 229l135 -229h157l-196 347h-193zM917 384q0 -130 -86.5 -190t-232.5 -60q-103 0 -200 36t-166 104h-13l-107 -103q67 -82 195 -136.5t292 -54.5q77 0 146.5 12.5t135.5 42t114.5 74.5t77.5 115.5t29 158.5q0 55 -9 100.5t-23.5 80.5t-41.5 65.5 t-54 52.5t-71 45.5t-81.5 40.5t-96.5 40l-205 83q-125 52 -166.5 92.5t-41.5 122.5q0 218 300 218q110 0 201.5 -36.5t148.5 -102.5h15l104 104q-77 88 -197.5 137.5t-263.5 49.5q-83 0 -153 -11t-136 -38.5t-112 -71t-74 -113t-28 -159.5q0 -50 9 -90.5t29.5 -73t44 -56.5 t64 -47.5t77.5 -41t94 -40.5l203 -84q89 -37 135 -60t83 -54t49 -65.5t12 -86.5z" />
<glyph unicode="&#x15d;" horiz-adv-x="973" d="M723 307q0 -98 -56 -146.5t-162 -48.5q-197 0 -311 131h-14l-95 -92q66 -83 177 -127t243 -44q81 0 149 19.5t121.5 58.5t83.5 104.5t30 151.5q0 50 -10.5 88t-40.5 78t-91.5 75t-155.5 65l-120 38q-107 34 -141.5 66.5t-34.5 89.5q0 155 214 155q165 0 250 -102h10 l99 81q-51 72 -142.5 115t-217.5 43q-181 0 -286.5 -78t-105.5 -213q0 -54 10 -91t39.5 -76t90 -71.5t156.5 -62.5l122 -38q116 -36 152.5 -73.5t36.5 -95.5zM195 1251h157l137 229l135 -229h157l-196 347h-193z" />
<glyph unicode="&#x15e;" horiz-adv-x="1222" d="M575 -413q109 0 180 54t71 145q0 79 -47 121t-122 42q-54 0 -105 -20l1 -52q26 5 55 5q58 0 83 -25.5t25 -64.5q0 -54 -41.5 -84t-105.5 -30q-63 0 -121 27l-31 -85q75 -33 158 -33zM917 384q0 -130 -86.5 -190t-232.5 -60q-103 0 -200 36t-166 104h-13l-107 -103 q67 -82 195 -136.5t292 -54.5q77 0 146.5 12.5t135.5 42t114.5 74.5t77.5 115.5t29 158.5q0 55 -9 100.5t-23.5 80.5t-41.5 65.5t-54 52.5t-71 45.5t-81.5 40.5t-96.5 40l-205 83q-125 52 -166.5 92.5t-41.5 122.5q0 218 300 218q110 0 201.5 -36.5t148.5 -102.5h15l104 104 q-77 88 -197.5 137.5t-263.5 49.5q-83 0 -153 -11t-136 -38.5t-112 -71t-74 -113t-28 -159.5q0 -50 9 -90.5t29.5 -73t44 -56.5t64 -47.5t77.5 -41t94 -40.5l203 -84q89 -37 135 -60t83 -54t49 -65.5t12 -86.5z" />
<glyph unicode="&#x15f;" horiz-adv-x="968" d="M723 307q0 -98 -56 -146.5t-162 -48.5q-197 0 -311 131h-14l-95 -92q66 -83 177 -127t243 -44q81 0 149 19.5t121.5 58.5t83.5 104.5t30 151.5q0 50 -10.5 88t-40.5 78t-91.5 75t-155.5 65l-120 38q-107 34 -141.5 66.5t-34.5 89.5q0 155 214 155q165 0 250 -102h10 l99 81q-51 72 -142.5 115t-217.5 43q-181 0 -286.5 -78t-105.5 -213q0 -54 10 -91t39.5 -76t90 -71.5t156.5 -62.5l122 -38q116 -36 152.5 -73.5t36.5 -95.5zM452 -413q109 0 180 54t71 145q0 79 -47 121t-122 42q-54 0 -105 -20l1 -52q26 5 55 5q58 0 83 -25.5t25 -64.5 q0 -54 -41.5 -84t-105.5 -30q-63 0 -121 27l-31 -85q75 -33 158 -33z" />
<glyph unicode="&#x160;" horiz-adv-x="1222" d="M510 1630h193l196 347h-157l-135 -229l-137 229h-157zM917 384q0 -130 -86.5 -190t-232.5 -60q-103 0 -200 36t-166 104h-13l-107 -103q67 -82 195 -136.5t292 -54.5q77 0 146.5 12.5t135.5 42t114.5 74.5t77.5 115.5t29 158.5q0 55 -9 100.5t-23.5 80.5t-41.5 65.5 t-54 52.5t-71 45.5t-81.5 40.5t-96.5 40l-205 83q-125 52 -166.5 92.5t-41.5 122.5q0 218 300 218q110 0 201.5 -36.5t148.5 -102.5h15l104 104q-77 88 -197.5 137.5t-263.5 49.5q-83 0 -153 -11t-136 -38.5t-112 -71t-74 -113t-28 -159.5q0 -50 9 -90.5t29.5 -73t44 -56.5 t64 -47.5t77.5 -41t94 -40.5l203 -84q89 -37 135 -60t83 -54t49 -65.5t12 -86.5z" />
<glyph unicode="&#x161;" horiz-adv-x="968" d="M723 307q0 -98 -56 -146.5t-162 -48.5q-197 0 -311 131h-14l-95 -92q66 -83 177 -127t243 -44q81 0 149 19.5t121.5 58.5t83.5 104.5t30 151.5q0 50 -10.5 88t-40.5 78t-91.5 75t-155.5 65l-120 38q-107 34 -141.5 66.5t-34.5 89.5q0 155 214 155q165 0 250 -102h10 l99 81q-51 72 -142.5 115t-217.5 43q-181 0 -286.5 -78t-105.5 -213q0 -54 10 -91t39.5 -76t90 -71.5t156.5 -62.5l122 -38q116 -36 152.5 -73.5t36.5 -95.5zM378 1238h193l196 347h-157l-135 -229l-137 229h-157z" />
<glyph unicode="&#x162;" horiz-adv-x="1149" d="M531 -413q109 0 180 54t71 145q0 79 -47 121t-122 42q-54 0 -105 -20l1 -52q26 5 55 5q58 0 83 -25.5t25 -64.5q0 -54 -41.5 -84t-105.5 -30q-63 0 -121 27l-31 -85q75 -33 158 -33zM6 1456v-146h470v-1311h195v1311h472v146h-1137z" />
<glyph unicode="&#x163;" horiz-adv-x="819" d="M586 -8h100l8 128l-108 4q-50 2 -80 8.5t-50 18t-28.5 38t-11.5 57t-3 87.5v638h288v111h-288v303l-151 -11l-26 -293l-171 -9l-5 -101h171v-637q0 -104 12 -164t50.5 -103t107.5 -59t185 -16zM421 -413q109 0 180 54t71 145q0 79 -47 121t-122 42q-54 0 -105 -20l1 -52 q26 5 55 5q58 0 83 -25.5t25 -64.5q0 -54 -41.5 -84t-105.5 -30q-63 0 -121 27l-31 -85q75 -33 158 -33z" />
<glyph unicode="&#x164;" horiz-adv-x="1149" d="M468 1612h193l196 347h-157l-135 -229l-137 229h-157zM6 1456v-146h470v-1311h195v1311h472v146h-1137z" />
<glyph unicode="&#x165;" horiz-adv-x="856" d="M586 -8h100l8 128l-108 4q-50 2 -80 8.5t-50 18t-28.5 38t-11.5 57t-3 87.5v638h288v111h-288v303l-151 -11l-26 -293l-171 -9l-5 -101h171v-637q0 -104 12 -164t50.5 -103t107.5 -59t185 -16zM642 1260h133l80 383h-178z" />
<glyph unicode="&#x166;" horiz-adv-x="1149" d="M288 716h584v100h-584v-100zM6 1456v-146h470v-1311h195v1311h472v146h-1137z" />
<glyph unicode="&#x167;" horiz-adv-x="802" d="M586 -8h100l8 128l-108 4q-50 2 -80 8.5t-50 18t-28.5 38t-11.5 57t-3 87.5v638h288v111h-288v303l-151 -11l-26 -293l-171 -9l-5 -101h171v-637q0 -104 12 -164t50.5 -103t107.5 -59t185 -16zM96 540h584v100h-584v-100z" />
<glyph unicode="&#x168;" horiz-adv-x="1455" d="M415 1684h93q13 99 68 99q30 0 82.5 -24.5t111 -49.5t103.5 -25q71 0 111.5 55.5t40.5 157.5h-96q-12 -87 -61 -87q-24 0 -71 22t-105 44t-110 22q-79 0 -123 -55.5t-44 -158.5zM1085 1457v-910q0 -206 -86.5 -309t-273.5 -103q-192 0 -276 102t-84 310v910h-195v-915 q0 -127 32.5 -228.5t98.5 -177t173.5 -116t250.5 -40.5q141 0 249 41.5t174 116.5t99 176t33 225v918h-195z" />
<glyph unicode="&#x169;" d="M866 259q-111 -146 -298 -146q-123 0 -177.5 74.5t-54.5 220.5v674h-182v-678q0 -424 389 -424q214 0 337 155l10 -135h157v1082h-181v-823zM285 1311h93q13 99 68 99q30 0 82.5 -24.5t111 -49.5t103.5 -25q71 0 111.5 55.5t40.5 157.5h-96q-12 -87 -61 -87q-24 0 -71 22 t-105 44t-110 22q-79 0 -123 -55.5t-44 -158.5z" />
<glyph unicode="&#x16a;" horiz-adv-x="1455" d="M430 1717h584v100h-584v-100zM1085 1457v-910q0 -206 -86.5 -309t-273.5 -103q-192 0 -276 102t-84 310v910h-195v-915q0 -127 32.5 -228.5t98.5 -177t173.5 -116t250.5 -40.5q141 0 249 41.5t174 116.5t99 176t33 225v918h-195z" />
<glyph unicode="&#x16b;" d="M866 259q-111 -146 -298 -146q-123 0 -177.5 74.5t-54.5 220.5v674h-182v-678q0 -424 389 -424q214 0 337 155l10 -135h157v1082h-181v-823zM300 1344h584v100h-584v-100z" />
<glyph unicode="&#x16c;" horiz-adv-x="1455" d="M732 1678q110 0 178.5 62.5t68.5 181.5h-115q0 -64 -39.5 -97.5t-92.5 -33.5q-52 0 -89.5 33.5t-37.5 97.5h-117q0 -119 67.5 -181.5t176.5 -62.5zM1085 1457v-910q0 -206 -86.5 -309t-273.5 -103q-192 0 -276 102t-84 310v910h-195v-915q0 -127 32.5 -228.5t98.5 -177 t173.5 -116t250.5 -40.5q141 0 249 41.5t174 116.5t99 176t33 225v918h-195z" />
<glyph unicode="&#x16d;" d="M866 259q-111 -146 -298 -146q-123 0 -177.5 74.5t-54.5 220.5v674h-182v-678q0 -424 389 -424q214 0 337 155l10 -135h157v1082h-181v-823zM602 1305q110 0 178.5 62.5t68.5 181.5h-115q0 -64 -39.5 -97.5t-92.5 -33.5q-52 0 -89.5 33.5t-37.5 97.5h-117 q0 -119 67.5 -181.5t176.5 -62.5z" />
<glyph unicode="&#x16e;" horiz-adv-x="1455" d="M737 1588q84 0 139 54.5t55 132.5t-55 132t-139 54t-138 -54t-54 -132q0 -79 54.5 -133t137.5 -54zM737 1671q-43 0 -69.5 29.5t-26.5 73.5q0 42 27 72t69 30t70 -30.5t28 -71.5q0 -43 -28 -73t-70 -30zM1085 1457v-910q0 -206 -86.5 -309t-273.5 -103q-192 0 -276 102 t-84 310v910h-195v-915q0 -127 32.5 -228.5t98.5 -177t173.5 -116t250.5 -40.5q141 0 249 41.5t174 116.5t99 176t33 225v918h-195z" />
<glyph unicode="&#x16f;" d="M866 259q-111 -146 -298 -146q-123 0 -177.5 74.5t-54.5 220.5v674h-182v-678q0 -424 389 -424q214 0 337 155l10 -135h157v1082h-181v-823zM607 1215q84 0 139 54.5t55 132.5t-55 132t-139 54t-138 -54t-54 -132q0 -79 54.5 -133t137.5 -54zM607 1298q-43 0 -69.5 29.5 t-26.5 73.5q0 42 27 72t69 30t70 -30.5t28 -71.5q0 -43 -28 -73t-70 -30z" />
<glyph unicode="&#x170;" horiz-adv-x="1455" d="M825 1637h108l225 351h-184zM547 1637h111l187 351h-167zM1085 1457v-910q0 -206 -86.5 -309t-273.5 -103q-192 0 -276 102t-84 310v910h-195v-915q0 -127 32.5 -228.5t98.5 -177t173.5 -116t250.5 -40.5q141 0 249 41.5t174 116.5t99 176t33 225v918h-195z" />
<glyph unicode="&#x171;" d="M866 259q-111 -146 -298 -146q-123 0 -177.5 74.5t-54.5 220.5v674h-182v-678q0 -424 389 -424q214 0 337 155l10 -135h157v1082h-181v-823zM695 1264h108l225 351h-184zM417 1264h111l187 351h-167z" />
<glyph unicode="&#x172;" horiz-adv-x="1455" d="M813 -404q81 0 149 31l-3 109q-56 -25 -110 -25q-36 0 -59 20t-23 60q0 53 46.5 124t96.5 108h-84q-80 -33 -142 -111.5t-62 -161.5q0 -72 49.5 -113t141.5 -41zM1085 1457v-910q0 -206 -86.5 -309t-273.5 -103q-192 0 -276 102t-84 310v910h-195v-915 q0 -127 32.5 -228.5t98.5 -177t173.5 -116t250.5 -40.5q141 0 249 41.5t174 116.5t99 176t33 225v918h-195z" />
<glyph unicode="&#x173;" d="M866 259q-111 -146 -298 -146q-123 0 -177.5 74.5t-54.5 220.5v674h-182v-678q0 -424 389 -424q214 0 337 155l10 -135h157v1082h-181v-823zM980 -423q81 0 149 31l-3 109q-56 -25 -110 -25q-36 0 -59 20t-23 60q0 53 46.5 124t96.5 108h-84q-80 -33 -142 -111.5 t-62 -161.5q0 -72 49.5 -113t141.5 -41z" />
<glyph unicode="&#x174;" horiz-adv-x="1979" d="M703 1625h157l137 229l135 -229h157l-196 347h-193zM999 1191l338 -1191h187l378 1456h-188l-286 -1210l-339 1181h-182l-342 -1168l-314 1197h-174l387 -1456h184z" />
<glyph unicode="&#x175;" horiz-adv-x="1479" d="M760 907l278 -908h164l282 1083h-166l-201 -847l-266 847h-190l-250 -844l-216 844h-171l296 -1083h163zM447 1251h157l137 229l135 -229h157l-196 347h-193z" />
<glyph unicode="&#x176;" horiz-adv-x="1364" d="M385 1625h157l137 229l135 -229h157l-196 347h-193zM781 514l507 942h-194l-411 -772l-423 772h-184l511 -939v-517h194v514z" />
<glyph unicode="&#x177;" horiz-adv-x="1097" d="M1083 1082h-175l-329 -839l-350 839h-190l450 -1038l-160 -418l156 -40zM258 1251h157l137 229l135 -229h157l-196 347h-193z" />
<glyph unicode="&#x178;" horiz-adv-x="1364" d="M892 1664q52 0 79 30.5t27 78.5t-27 78.5t-79 30.5q-54 0 -81 -30.5t-27 -78.5t27.5 -78.5t80.5 -30.5zM457 1664q52 0 79 30.5t27 78.5t-27 78.5t-79 30.5q-53 0 -80 -30.5t-27 -78.5t27.5 -78.5t79.5 -30.5zM781 514l507 942h-194l-411 -772l-423 772h-184l511 -939 v-517h194v514z" />
<glyph unicode="&#x179;" horiz-adv-x="1190" d="M603 1583h119l299 377h-222zM92 0h1032l6 146h-816l808 1178l-6 132h-994l2 -145h781l-813 -1178v-133z" />
<glyph unicode="&#x17a;" horiz-adv-x="916" d="M121 1082l5 -130h572l-597 -836v-116h798l-7 136h-589l586 823v123h-768zM413 1226h119l299 377h-222z" />
<glyph unicode="&#x17b;" horiz-adv-x="1190" d="M799 1805q0 58 -34.5 91.5t-97.5 33.5t-97.5 -33.5t-34.5 -91.5q0 -60 34.5 -94.5t97.5 -34.5t97.5 34.5t34.5 94.5zM92 0h1032l6 146h-816l808 1178l-6 132h-994l2 -145h781l-813 -1178v-133z" />
<glyph unicode="&#x17c;" horiz-adv-x="916" d="M121 1082l5 -130h572l-597 -836v-116h798l-7 136h-589l586 823v123h-768zM606 1431q0 58 -34.5 91.5t-97.5 33.5t-97.5 -33.5t-34.5 -91.5q0 -60 34.5 -94.5t97.5 -34.5t97.5 34.5t34.5 94.5z" />
<glyph unicode="&#x17d;" horiz-adv-x="1190" d="M556 1612h193l196 347h-157l-135 -229l-137 229h-157zM92 0h1032l6 146h-816l808 1178l-6 132h-994l2 -145h781l-813 -1178v-133z" />
<glyph unicode="&#x17e;" horiz-adv-x="916" d="M121 1082l5 -130h572l-597 -836v-116h798l-7 136h-589l586 823v123h-768zM363 1238h193l196 347h-157l-135 -229l-137 229h-157z" />
<glyph unicode="&#x192;" horiz-adv-x="1033" d="M553 1244l-32 -167h-167l-17 -83h171l-207 -873q-7 -30 -15.5 -77.5t-13.5 -73.5t-17 -59t-28.5 -49.5t-46 -28.5t-70.5 -12q-36 0 -94 11l-20 -87q51 -16 103 -16q131 0 230.5 102.5t143.5 289.5l205 873h224l16 83h-222l35 184q9 46 18 76t25 61t41 46.5t60 15.5h2 q84 0 87 -158h135q-1 250 -231 250q-134 0 -211 -83t-104 -225z" />
<glyph unicode="&#x1c4;" horiz-adv-x="2690" d="M2056 1612h193l196 347h-157l-135 -229l-137 229h-157zM1592 0h1032l6 146h-816l808 1178l-6 132h-994l2 -145h781l-813 -1178v-133zM203 10q167 -21 306 -21q155 0 280.5 24.5t216.5 72t157.5 113t106.5 151.5t58.5 183t18.5 212q0 96 -10 175.5t-33.5 154.5t-62.5 133 t-98.5 107t-138.5 80.5t-185.5 49t-237.5 17.5q-169 0 -378 -28v-1424zM397 135v1178q111 12 201 12q134 0 232.5 -27t160 -75t98.5 -123.5t51 -160.5t14 -199q0 -113 -15.5 -201.5t-56 -168t-106.5 -131.5t-171 -82.5t-245 -30.5q-76 0 -163 9z" />
<glyph unicode="&#x1c5;" horiz-adv-x="2512" d="M1621 1082l5 -130h572l-597 -836v-116h798l-7 136h-589l586 823v123h-768zM632 1612h193l196 347h-157l-135 -229l-137 229h-157zM203 10q167 -21 306 -21q155 0 280.5 24.5t216.5 72t157.5 113t106.5 151.5t58.5 183t18.5 212q0 96 -10 175.5t-33.5 154.5t-62.5 133 t-98.5 107t-138.5 80.5t-185.5 49t-237.5 17.5q-169 0 -378 -28v-1424zM397 135v1178q111 12 201 12q134 0 232.5 -27t160 -75t98.5 -123.5t51 -160.5t14 -199q0 -113 -15.5 -201.5t-56 -168t-106.5 -131.5t-171 -82.5t-245 -30.5q-76 0 -163 9z" />
<glyph unicode="&#x1c6;" horiz-adv-x="2208" d="M1317 1082l5 -130h572l-597 -836v-116h798l-7 136h-589l586 823v123h-768zM603 115q-149 0 -223.5 112t-74.5 320q0 203 75 313t222 110q89 0 161 -32.5t114 -92.5v-615q-94 -115 -274 -115zM584 -20q85 0 168 35.5t140 102.5l10 -118h157v1560l-188 -20v-387l5 -161 q-104 111 -279 111h-8h-6q-216 0 -340.5 -151.5t-124.5 -407.5q0 -257 121.5 -410.5t344.5 -153.5zM1545 1238h193l196 347h-157l-135 -229l-137 229h-157z" />
<glyph unicode="&#x1c7;" horiz-adv-x="1900" d="M1000 1456v-1456h892l6 146h-704v1310h-194zM370 1456v-1426q0 -74 -2 -107.5t-14.5 -63t-32.5 -43t-61 -30.5l-123 -52l60 -146l89 32q75 27 119 49.5t79 52t50.5 71.5t23 96.5t7.5 139.5v1427h-195z" />
<glyph unicode="&#x1c8;" horiz-adv-x="1690" d="M1554 1431q0 58 -34.5 91.5t-97.5 33.5t-97.5 -33.5t-34.5 -91.5q0 -60 34.5 -94.5t97.5 -34.5t97.5 34.5t34.5 94.5zM1342 1082v-1063q0 -47 -1 -71.5t-3.5 -54t-9 -43.5t-17 -30.5t-28 -25t-40 -16.5t-56.5 -16l-65 -15l29 -142l62 10q88 14 144 36t95 64.5t55.5 108 t16.5 164.5v1094h-182zM203 1456v-1456h892l6 146h-704v1310h-194z" />
<glyph unicode="&#x1c9;" horiz-adv-x="1229" d="M1065 -8h71l14 132l-62 4q-50 4 -74 9.5t-41.5 26t-21.5 53t-4 95.5v1248l-181 -20v-1230q0 -98 18 -161.5t57.5 -97.5t90.5 -46.5t128 -12.5h5zM451 1431q0 58 -34.5 91.5t-97.5 33.5t-97.5 -33.5t-34.5 -91.5q0 -60 34.5 -94.5t97.5 -34.5t97.5 34.5t34.5 94.5z M239 1082v-1063q0 -47 -1 -71.5t-3.5 -54t-9 -43.5t-17 -30.5t-28 -25t-40 -16.5t-56.5 -16l-65 -15l29 -142l62 10q88 14 144 36t95 64.5t55.5 108t16.5 164.5v1094h-182z" />
<glyph unicode="&#x1ca;" horiz-adv-x="2321" d="M1943 1456v-788l11 -419l-760 1207h-194v-1456h178v740l-17 454l755 -1194h202v1456h-175zM370 1456v-1426q0 -74 -2 -107.5t-14.5 -63t-32.5 -43t-61 -30.5l-123 -52l60 -146l89 32q75 27 119 49.5t79 52t50.5 71.5t23 96.5t7.5 139.5v1427h-195z" />
<glyph unicode="&#x1cb;" horiz-adv-x="2111" d="M1975 1431q0 58 -34.5 91.5t-97.5 33.5t-97.5 -33.5t-34.5 -91.5q0 -60 34.5 -94.5t97.5 -34.5t97.5 34.5t34.5 94.5zM1763 1082v-1063q0 -47 -1 -71.5t-3.5 -54t-9 -43.5t-17 -30.5t-28 -25t-40 -16.5t-56.5 -16l-65 -15l29 -142l62 10q88 14 144 36t95 64.5t55.5 108 t16.5 164.5v1094h-182zM1146 1456v-788l11 -419l-760 1207h-194v-1456h178v740l-17 454l755 -1194h202v1456h-175z" />
<glyph unicode="&#x1cc;" horiz-adv-x="1795" d="M751 0h182v612q0 158 78.5 258t236.5 100q116 0 164 -78.5t48 -226.5v-665h181v652q0 454 -355 454q-268 0 -365 -235l-19 211h-151v-1082zM451 1431q0 58 -34.5 91.5t-97.5 33.5t-97.5 -33.5t-34.5 -91.5q0 -60 34.5 -94.5t97.5 -34.5t97.5 34.5t34.5 94.5zM239 1082 v-1063q0 -47 -1 -71.5t-3.5 -54t-9 -43.5t-17 -30.5t-28 -25t-40 -16.5t-56.5 -16l-65 -15l29 -142l62 10q88 14 144 36t95 64.5t55.5 108t16.5 164.5v1094h-182z" />
<glyph unicode="&#x1cd;" horiz-adv-x="1419" d="M596 1612h193l196 347h-157l-135 -229l-137 229h-157zM608 1456l-545 -1456h192l167 453h573l168 -453h193l-550 1456h-198zM467 588l241 680l242 -680h-483z" />
<glyph unicode="&#x1ce;" horiz-adv-x="1120" d="M452 1239h193l196 347h-157l-135 -229l-137 229h-157zM490 109q-93 0 -148.5 43.5t-55.5 139.5q0 97 65.5 143t225.5 46l211 -1v-227q-52 -67 -128.5 -105.5t-169.5 -38.5zM113 294q0 -154 94.5 -234t254.5 -80q214 0 342 153l13 -133h152v705q0 107 -30 185.5t-86 125 t-129.5 68.5t-167.5 22q-112 0 -219 -26t-186 -76l53 -138q73 50 168.5 76t178.5 26q120 0 178.5 -59.5t58.5 -188.5v-125l-232 3h-12q-431 0 -431 -304z" />
<glyph unicode="&#x1cf;" horiz-adv-x="973" d="M373 1612h193l196 347h-157l-135 -229l-137 229h-157zM191 1456v-118h194v-1220h-194v-119h581v119h-192v1220h192v118h-581z" />
<glyph unicode="&#x1d0;" horiz-adv-x="509" d="M183 1082v-1082h182v1082h-182zM159 1238h193l196 347h-157l-135 -229l-137 229h-157z" />
<glyph unicode="&#x1d1;" horiz-adv-x="1620" d="M703 1612h193l196 347h-157l-135 -229l-137 229h-157zM1267 720q0 -586 -456 -586q-457 0 -457 586q0 140 26 248.5t80.5 189t143.5 122.5t209 42q454 0 454 -602zM156 721q0 -350 164.5 -545.5t492.5 -195.5q323 0 487 196.5t164 542.5q0 355 -166.5 556t-483.5 201 q-216 0 -365 -92.5t-221 -260.5t-72 -402z" />
<glyph unicode="&#x1d2;" horiz-adv-x="1226" d="M608 -20q232 0 360.5 152.5t128.5 409.5q0 261 -127.5 412.5t-361.5 151.5q-235 0 -362.5 -151t-127.5 -413q0 -257 129 -409.5t361 -152.5zM608 115q-152 0 -227.5 115.5t-75.5 310.5q0 198 75.5 313.5t227.5 115.5t227 -115.5t75 -313.5q0 -194 -75 -310t-227 -116z M506 1238h193l196 347h-157l-135 -229l-137 229h-157z" />
<glyph unicode="&#x1d3;" horiz-adv-x="1455" d="M626 1612h193l196 347h-157l-135 -229l-137 229h-157zM1085 1457v-910q0 -206 -86.5 -309t-273.5 -103q-192 0 -276 102t-84 310v910h-195v-915q0 -127 32.5 -228.5t98.5 -177t173.5 -116t250.5 -40.5q141 0 249 41.5t174 116.5t99 176t33 225v918h-195z" />
<glyph unicode="&#x1d4;" horiz-adv-x="1159" d="M866 259q-111 -146 -298 -146q-123 0 -177.5 74.5t-54.5 220.5v674h-182v-678q0 -424 389 -424q214 0 337 155l10 -135h157v1082h-181v-823zM462 1238h193l196 347h-157l-135 -229l-137 229h-157z" />
<glyph unicode="&#x1e2;" horiz-adv-x="1606" d="M879 1739h584v100h-584v-100zM780 595h-359l359 696v-696zM683 1456l-777 -1456h205l243 462h426v-462h773l12 147h-604v542h523v145h-523v477h581l7 145h-866z" />
<glyph unicode="&#x1e3;" horiz-adv-x="1657" d="M604 1343h584v100h-584v-100zM1216 968q109 0 159.5 -58t50.5 -153q0 -29 -5.5 -49.5t-25 -42.5t-53 -36t-93 -23t-142.5 -9t-198 9q11 181 89.5 271.5t217.5 90.5zM738 357q-4 -118 -86 -183t-213 -65q-81 0 -143 44.5t-62 140.5q0 50 11.5 86t40 67t83 46.5t134.5 15.5 q114 0 234 -14q0 -134 1 -138zM1587 775q0 142 -99 234.5t-276 92.5q-252 0 -363 -203q-33 108 -119.5 155.5t-225.5 47.5q-124 0 -223 -32t-199 -98l69 -115q165 108 357 108q121 0 175.5 -57t54.5 -192v-103q-107 13 -257 13q-419 0 -419 -332q0 -148 87 -227.5t236 -86.5 q68 0 130 11.5t121 37t108.5 70t81.5 106.5q56 -110 159 -167.5t242 -57.5q215 0 370 107l-52 120q-81 -46 -145.5 -69t-150.5 -23q-151 0 -240 85.5t-102 280.5q164 -10 234 -10q83 0 146.5 7.5t121.5 27.5t96 53.5t60 88t22 127.5z" />
<glyph unicode="&#x1e6;" horiz-adv-x="1478" d="M689 1612h193l196 347h-157l-135 -229l-137 229h-157zM822 -20q277 0 510 93v696h-495l-9 -129l327 -22v-443q-145 -42 -299 -42q-266 0 -386 156t-120 448q0 270 130 428t374 158q125 0 219.5 -43t149.5 -104h17l96 106q-68 87 -197 140.5t-291 53.5q-327 0 -511.5 -199 t-184.5 -541q0 -169 42 -307t124 -238.5t210.5 -155.5t293.5 -55z" />
<glyph unicode="&#x1e7;" horiz-adv-x="1262" d="M598 115q-150 0 -224.5 112t-74.5 320q0 201 75.5 312t221.5 111q179 0 275 -134v-604q-42 -57 -114 -87t-159 -30zM581 -18q187 0 293 111l1 -82v-7q0 -192 -79 -270.5t-239 -78.5q-156 0 -289 56h-23l-15 -142q154 -56 329 -56q259 0 373 131t114 408v1030h-155 l-8 -110q-109 134 -298 134q-216 0 -344 -151.5t-128 -408.5q0 -263 123.5 -413.5t344.5 -150.5zM497 1221h193l196 347h-157l-135 -229l-137 229h-157z" />
<glyph unicode="&#x1e8;" horiz-adv-x="1319" d="M579 1612h193l196 347h-157l-135 -229l-137 229h-157zM1294 1456h-212l-685 -695v695h-194v-1456h194v578l158 154l559 -732h218v19l-634 818l596 599v20z" />
<glyph unicode="&#x1e9;" horiz-adv-x="1066" d="M167 0h182v400l121 104l410 -504h195v25l-476 566l444 468v23h-206l-494 -530l6 213v795l-182 -20v-1540zM621 1303h193l196 347h-157l-135 -229l-137 229h-157z" />
<glyph unicode="&#x1ea;" horiz-adv-x="1620" d="M842 -422q81 0 149 31l-3 109q-56 -25 -110 -25q-36 0 -59 20t-23 60q0 53 46.5 124t96.5 108h-84q-80 -33 -142 -111.5t-62 -161.5q0 -72 49.5 -113t141.5 -41zM1267 720q0 -586 -456 -586q-457 0 -457 586q0 140 26 248.5t80.5 189t143.5 122.5t209 42q454 0 454 -602z M156 721q0 -350 164.5 -545.5t492.5 -195.5q323 0 487 196.5t164 542.5q0 355 -166.5 556t-483.5 201q-216 0 -365 -92.5t-221 -260.5t-72 -402z" />
<glyph unicode="&#x1eb;" horiz-adv-x="1215" d="M667 -422q81 0 149 31l-3 109q-56 -25 -110 -25q-36 0 -59 20t-23 60q0 53 46.5 124t96.5 108h-84q-80 -33 -142 -111.5t-62 -161.5q0 -72 49.5 -113t141.5 -41zM608 -20q232 0 360.5 152.5t128.5 409.5q0 261 -127.5 412.5t-361.5 151.5q-235 0 -362.5 -151t-127.5 -413 q0 -257 129 -409.5t361 -152.5zM608 115q-152 0 -227.5 115.5t-75.5 310.5q0 198 75.5 313.5t227.5 115.5t227 -115.5t75 -313.5q0 -194 -75 -310t-227 -116z" />
<glyph unicode="&#x1f0;" horiz-adv-x="595" d="M226 1237h193l196 347h-157l-135 -229l-137 229h-157zM241 1082v-1063q0 -47 -1 -71.5t-3.5 -54t-9 -43.5t-17 -30.5t-28 -25t-40 -16.5t-56.5 -16l-65 -15l29 -142l62 10q88 14 144 36t95 64.5t55.5 108t16.5 164.5v1094h-182z" />
<glyph unicode="&#x1f1;" horiz-adv-x="2690" d="M1592 0h1032l6 146h-816l808 1178l-6 132h-994l2 -145h781l-813 -1178v-133zM203 10q167 -21 306 -21q155 0 280.5 24.5t216.5 72t157.5 113t106.5 151.5t58.5 183t18.5 212q0 96 -10 175.5t-33.5 154.5t-62.5 133t-98.5 107t-138.5 80.5t-185.5 49t-237.5 17.5 q-169 0 -378 -28v-1424zM397 135v1178q111 12 201 12q134 0 232.5 -27t160 -75t98.5 -123.5t51 -160.5t14 -199q0 -113 -15.5 -201.5t-56 -168t-106.5 -131.5t-171 -82.5t-245 -30.5q-76 0 -163 9z" />
<glyph unicode="&#x1f2;" horiz-adv-x="2512" d="M1621 1082l5 -130h572l-597 -836v-116h798l-7 136h-589l586 823v123h-768zM203 10q167 -21 306 -21q155 0 280.5 24.5t216.5 72t157.5 113t106.5 151.5t58.5 183t18.5 212q0 96 -10 175.5t-33.5 154.5t-62.5 133t-98.5 107t-138.5 80.5t-185.5 49t-237.5 17.5 q-169 0 -378 -28v-1424zM397 135v1178q111 12 201 12q134 0 232.5 -27t160 -75t98.5 -123.5t51 -160.5t14 -199q0 -113 -15.5 -201.5t-56 -168t-106.5 -131.5t-171 -82.5t-245 -30.5q-76 0 -163 9z" />
<glyph unicode="&#x1f3;" horiz-adv-x="2243" d="M1352 1082l5 -130h572l-597 -836v-116h798l-7 136h-589l586 823v123h-768zM603 115q-149 0 -223.5 112t-74.5 320q0 203 75 313t222 110q89 0 161 -32.5t114 -92.5v-615q-94 -115 -274 -115zM584 -20q85 0 168 35.5t140 102.5l10 -118h157v1560l-188 -20v-387l5 -161 q-104 111 -279 111h-8h-6q-216 0 -340.5 -151.5t-124.5 -407.5q0 -257 121.5 -410.5t344.5 -153.5z" />
<glyph unicode="&#x1f4;" horiz-adv-x="1478" d="M736 1583h119l299 377h-222zM822 -20q277 0 510 93v696h-495l-9 -129l327 -22v-443q-145 -42 -299 -42q-266 0 -386 156t-120 448q0 270 130 428t374 158q125 0 219.5 -43t149.5 -104h17l96 106q-68 87 -197 140.5t-291 53.5q-327 0 -511.5 -199t-184.5 -541 q0 -169 42 -307t124 -238.5t210.5 -155.5t293.5 -55z" />
<glyph unicode="&#x1f5;" horiz-adv-x="1262" d="M598 115q-150 0 -224.5 112t-74.5 320q0 201 75.5 312t221.5 111q179 0 275 -134v-604q-42 -57 -114 -87t-159 -30zM581 -18q187 0 293 111l1 -82v-7q0 -192 -79 -270.5t-239 -78.5q-156 0 -289 56h-23l-15 -142q154 -56 329 -56q259 0 373 131t114 408v1030h-155 l-8 -110q-109 134 -298 134q-216 0 -344 -151.5t-128 -408.5q0 -263 123.5 -413.5t344.5 -150.5zM547 1209h119l299 377h-222z" />
<glyph unicode="&#x1f8;" horiz-adv-x="1524" d="M719 1599h119l-195 377h-232zM1146 1456v-788l11 -419l-760 1207h-194v-1456h178v740l-17 454l755 -1194h202v1456h-175z" />
<glyph unicode="&#x1f9;" d="M164 0h182v612q0 158 78.5 258t236.5 100q116 0 164 -78.5t48 -226.5v-665h181v652q0 454 -355 454q-268 0 -365 -235l-19 211h-151v-1082zM599 1209h119l-195 377h-232z" />
<glyph unicode="&#x1fa;" horiz-adv-x="1419" d="M707 1588q84 0 139 54.5t55 132.5t-55 132t-139 54t-138 -54t-54 -132q0 -79 54.5 -133t137.5 -54zM707 1671q-43 0 -69.5 29.5t-26.5 73.5q0 42 27 72t69 30t70 -30.5t28 -71.5q0 -43 -28 -73t-70 -30zM643 1583h119l299 377h-222zM608 1456l-545 -1456h192l167 453h573 l168 -453h193l-550 1456h-198zM467 588l241 680l242 -680h-483z" />
<glyph unicode="&#x1fb;" horiz-adv-x="1120" d="M563 1215q84 0 139 54.5t55 132.5t-55 132t-139 54t-138 -54t-54 -132q0 -79 54.5 -133t137.5 -54zM563 1298q-43 0 -69.5 29.5t-26.5 73.5q0 42 27 72t69 30t70 -30.5t28 -71.5q0 -43 -28 -73t-70 -30zM499 1210h119l299 377h-222zM490 109q-93 0 -148.5 43.5 t-55.5 139.5q0 97 65.5 143t225.5 46l211 -1v-227q-52 -67 -128.5 -105.5t-169.5 -38.5zM113 294q0 -154 94.5 -234t254.5 -80q214 0 342 153l13 -133h152v705q0 107 -30 185.5t-86 125t-129.5 68.5t-167.5 22q-112 0 -219 -26t-186 -76l53 -138q73 50 168.5 76t178.5 26 q120 0 178.5 -59.5t58.5 -188.5v-125l-232 3h-12q-431 0 -431 -304z" />
<glyph unicode="&#x1fc;" horiz-adv-x="1606" d="M1345 1599h119l299 377h-222zM780 595h-359l359 696v-696zM683 1456l-777 -1456h205l243 462h426v-462h773l12 147h-604v542h523v145h-523v477h581l7 145h-866z" />
<glyph unicode="&#x1fd;" horiz-adv-x="1688" d="M1216 968q109 0 159.5 -58t50.5 -153q0 -29 -5.5 -49.5t-25 -42.5t-53 -36t-93 -23t-142.5 -9t-198 9q11 181 89.5 271.5t217.5 90.5zM738 357q-4 -118 -86 -183t-213 -65q-81 0 -143 44.5t-62 140.5q0 50 11.5 86t40 67t83 46.5t134.5 15.5q114 0 234 -14q0 -134 1 -138 zM1587 775q0 142 -99 234.5t-276 92.5q-252 0 -363 -203q-33 108 -119.5 155.5t-225.5 47.5q-124 0 -223 -32t-199 -98l69 -115q165 108 357 108q121 0 175.5 -57t54.5 -192v-103q-107 13 -257 13q-419 0 -419 -332q0 -148 87 -227.5t236 -86.5q68 0 130 11.5t121 37 t108.5 70t81.5 106.5q56 -110 159 -167.5t242 -57.5q215 0 370 107l-52 120q-81 -46 -145.5 -69t-150.5 -23q-151 0 -240 85.5t-102 280.5q164 -10 234 -10q83 0 146.5 7.5t121.5 27.5t96 53.5t60 88t22 127.5zM788 1208h119l299 377h-222z" />
<glyph unicode="&#x1fe;" horiz-adv-x="1620" d="M751 1583h119l299 377h-222zM811 134q-78 0 -136 16l414 1086q178 -141 178 -516q0 -586 -456 -586zM575 191q-221 122 -221 529q0 140 26 248.5t80.5 189t143.5 122.5t209 42q100 0 178 -29zM522 -251l96 252q88 -21 195 -21q323 0 487 196.5t164 542.5q0 243 -79 417 t-234 261l96 253l-106 41l-94 -250q-101 35 -233 35q-216 0 -365 -92.5t-221 -260.5t-72 -402q0 -258 90 -434.5t270 -252.5l-94 -249z" />
<glyph unicode="&#x1ff;" horiz-adv-x="1252" d="M191 -124l66 -39l727 1364l-72 39zM608 -20q232 0 360.5 152.5t128.5 409.5q0 261 -127.5 412.5t-361.5 151.5q-235 0 -362.5 -151t-127.5 -413q0 -257 129 -409.5t361 -152.5zM608 115q-152 0 -227.5 115.5t-75.5 310.5q0 198 75.5 313.5t227.5 115.5t227 -115.5 t75 -313.5q0 -194 -75 -310t-227 -116zM556 1226h119l299 377h-222z" />
<glyph unicode="&#x200;" horiz-adv-x="1419" d="M782 1637h112l-132 351h-167zM507 1637h108l-149 351h-184zM608 1456l-545 -1456h192l167 453h573l168 -453h193l-550 1456h-198zM467 588l241 680l242 -680h-483z" />
<glyph unicode="&#x201;" horiz-adv-x="1120" d="M638 1264h112l-132 351h-167zM363 1264h108l-149 351h-184zM490 109q-93 0 -148.5 43.5t-55.5 139.5q0 97 65.5 143t225.5 46l211 -1v-227q-52 -67 -128.5 -105.5t-169.5 -38.5zM113 294q0 -154 94.5 -234t254.5 -80q214 0 342 153l13 -133h152v705q0 107 -30 185.5 t-86 125t-129.5 68.5t-167.5 22q-112 0 -219 -26t-186 -76l53 -138q73 50 168.5 76t178.5 26q120 0 178.5 -59.5t58.5 -188.5v-125l-232 3h-12q-431 0 -431 -304z" />
<glyph unicode="&#x202;" horiz-adv-x="1419" d="M458 1678h117q0 63 37.5 97t89.5 34q53 0 92.5 -34t39.5 -97h114q0 118 -68.5 181t-177.5 63t-176.5 -62.5t-67.5 -181.5zM608 1456l-545 -1456h192l167 453h573l168 -453h193l-550 1456h-198zM467 588l241 680l242 -680h-483z" />
<glyph unicode="&#x203;" horiz-adv-x="1120" d="M314 1305h117q0 63 37.5 97t89.5 34q53 0 92.5 -34t39.5 -97h114q0 118 -68.5 181t-177.5 63t-176.5 -62.5t-67.5 -181.5zM490 109q-93 0 -148.5 43.5t-55.5 139.5q0 97 65.5 143t225.5 46l211 -1v-227q-52 -67 -128.5 -105.5t-169.5 -38.5zM113 294q0 -154 94.5 -234 t254.5 -80q214 0 342 153l13 -133h152v705q0 107 -30 185.5t-86 125t-129.5 68.5t-167.5 22q-112 0 -219 -26t-186 -76l53 -138q73 50 168.5 76t178.5 26q120 0 178.5 -59.5t58.5 -188.5v-125l-232 3h-12q-431 0 -431 -304z" />
<glyph unicode="&#x204;" horiz-adv-x="1309" d="M814 1637h112l-132 351h-167zM539 1637h108l-149 351h-184zM203 1456v-1456h963l12 148h-781v532h700v147h-700v483h758l7 146h-959z" />
<glyph unicode="&#x205;" horiz-adv-x="1159" d="M309 627q14 159 99.5 251.5t216.5 92.5q127 0 191 -89t66 -255h-573zM1029 509l3 21q2 22 4 49t2 41q0 226 -112 356t-310 130q-103 0 -193 -38.5t-157.5 -110t-106.5 -179.5t-39 -240q0 -127 40 -233t109.5 -176.5t164 -109.5t204.5 -39q216 0 370 107l-42 119h-13 q-81 -46 -144.5 -68.5t-147.5 -22.5q-153 0 -248 97.5t-107 296.5h723zM676 1264h112l-132 351h-167zM401 1264h108l-149 351h-184z" />
<glyph unicode="&#x206;" horiz-adv-x="1309" d="M490 1678h117q0 63 37.5 97t89.5 34q53 0 92.5 -34t39.5 -97h114q0 118 -68.5 181t-177.5 63t-176.5 -62.5t-67.5 -181.5zM203 1456v-1456h963l12 148h-781v532h700v147h-700v483h758l7 146h-959z" />
<glyph unicode="&#x207;" horiz-adv-x="1159" d="M309 627q14 159 99.5 251.5t216.5 92.5q127 0 191 -89t66 -255h-573zM1029 509l3 21q2 22 4 49t2 41q0 226 -112 356t-310 130q-103 0 -193 -38.5t-157.5 -110t-106.5 -179.5t-39 -240q0 -127 40 -233t109.5 -176.5t164 -109.5t204.5 -39q216 0 370 107l-42 119h-13 q-81 -46 -144.5 -68.5t-147.5 -22.5q-153 0 -248 97.5t-107 296.5h723zM351 1305h117q0 63 37.5 97t89.5 34q53 0 92.5 -34t39.5 -97h114q0 118 -68.5 181t-177.5 63t-176.5 -62.5t-67.5 -181.5z" />
<glyph unicode="&#x208;" horiz-adv-x="973" d="M559 1637h112l-132 351h-167zM284 1637h108l-149 351h-184zM191 1456v-118h194v-1220h-194v-119h581v119h-192v1220h192v118h-581z" />
<glyph unicode="&#x209;" horiz-adv-x="535" d="M183 1082v-1082h182v1082h-182zM351 1264h112l-132 351h-167zM76 1264h108l-149 351h-184z" />
<glyph unicode="&#x20a;" horiz-adv-x="973" d="M235 1678h117q0 63 37.5 97t89.5 34q53 0 92.5 -34t39.5 -97h114q0 118 -68.5 181t-177.5 63t-176.5 -62.5t-67.5 -181.5zM191 1456v-118h194v-1220h-194v-119h581v119h-192v1220h192v118h-581z" />
<glyph unicode="&#x20b;" horiz-adv-x="535" d="M183 1082v-1082h182v1082h-182zM27 1305h117q0 63 37.5 97t89.5 34q53 0 92.5 -34t39.5 -97h114q0 118 -68.5 181t-177.5 63t-176.5 -62.5t-67.5 -181.5z" />
<glyph unicode="&#x20c;" horiz-adv-x="1620" d="M889 1637h112l-132 351h-167zM614 1637h108l-149 351h-184zM1267 720q0 -586 -456 -586q-457 0 -457 586q0 140 26 248.5t80.5 189t143.5 122.5t209 42q454 0 454 -602zM156 721q0 -350 164.5 -545.5t492.5 -195.5q323 0 487 196.5t164 542.5q0 355 -166.5 556 t-483.5 201q-216 0 -365 -92.5t-221 -260.5t-72 -402z" />
<glyph unicode="&#x20d;" horiz-adv-x="1226" d="M608 -20q232 0 360.5 152.5t128.5 409.5q0 261 -127.5 412.5t-361.5 151.5q-235 0 -362.5 -151t-127.5 -413q0 -257 129 -409.5t361 -152.5zM608 115q-152 0 -227.5 115.5t-75.5 310.5q0 198 75.5 313.5t227.5 115.5t227 -115.5t75 -313.5q0 -194 -75 -310t-227 -116z M692 1264h112l-132 351h-167zM417 1264h108l-149 351h-184z" />
<glyph unicode="&#x20e;" horiz-adv-x="1620" d="M565 1678h117q0 63 37.5 97t89.5 34q53 0 92.5 -34t39.5 -97h114q0 118 -68.5 181t-177.5 63t-176.5 -62.5t-67.5 -181.5zM1267 720q0 -586 -456 -586q-457 0 -457 586q0 140 26 248.5t80.5 189t143.5 122.5t209 42q454 0 454 -602zM156 721q0 -350 164.5 -545.5 t492.5 -195.5q323 0 487 196.5t164 542.5q0 355 -166.5 556t-483.5 201q-216 0 -365 -92.5t-221 -260.5t-72 -402z" />
<glyph unicode="&#x20f;" horiz-adv-x="1226" d="M608 -20q232 0 360.5 152.5t128.5 409.5q0 261 -127.5 412.5t-361.5 151.5q-235 0 -362.5 -151t-127.5 -413q0 -257 129 -409.5t361 -152.5zM608 115q-152 0 -227.5 115.5t-75.5 310.5q0 198 75.5 313.5t227.5 115.5t227 -115.5t75 -313.5q0 -194 -75 -310t-227 -116z M367 1305h117q0 63 37.5 97t89.5 34q53 0 92.5 -34t39.5 -97h114q0 118 -68.5 181t-177.5 63t-176.5 -62.5t-67.5 -181.5z" />
<glyph unicode="&#x210;" horiz-adv-x="1353" d="M789 1637h112l-132 351h-167zM514 1637h108l-149 351h-184zM1241 1071q0 211 -130.5 302t-444.5 91q-189 0 -459 -30v-1434h194v662l335 1l336 -663h207v20l-349 665q311 78 311 386zM666 1326q121 0 200 -15.5t121.5 -50t58.5 -79.5t16 -114q0 -101 -33 -157.5t-122 -85 t-252 -28.5h-254v516q160 14 265 14z" />
<glyph unicode="&#x211;" horiz-adv-x="827" d="M172 0h181v614q0 146 82 239.5t238 93.5h2l39 -1l14 144q-32 5 -79 5q-213 0 -312 -238l-18 225h-147v-1082zM510 1264h112l-132 351h-167zM235 1264h108l-149 351h-184z" />
<glyph unicode="&#x212;" horiz-adv-x="1353" d="M465 1678h117q0 63 37.5 97t89.5 34q53 0 92.5 -34t39.5 -97h114q0 118 -68.5 181t-177.5 63t-176.5 -62.5t-67.5 -181.5zM1241 1071q0 211 -130.5 302t-444.5 91q-189 0 -459 -30v-1434h194v662l335 1l336 -663h207v20l-349 665q311 78 311 386zM666 1326 q121 0 200 -15.5t121.5 -50t58.5 -79.5t16 -114q0 -101 -33 -157.5t-122 -85t-252 -28.5h-254v516q160 14 265 14z" />
<glyph unicode="&#x213;" horiz-adv-x="827" d="M172 0h181v614q0 146 82 239.5t238 93.5h2l39 -1l14 144q-32 5 -79 5q-213 0 -312 -238l-18 225h-147v-1082zM186 1305h117q0 63 37.5 97t89.5 34q53 0 92.5 -34t39.5 -97h114q0 118 -68.5 181t-177.5 63t-176.5 -62.5t-67.5 -181.5z" />
<glyph unicode="&#x214;" horiz-adv-x="1455" d="M812 1637h112l-132 351h-167zM537 1637h108l-149 351h-184zM1085 1457v-910q0 -206 -86.5 -309t-273.5 -103q-192 0 -276 102t-84 310v910h-195v-915q0 -127 32.5 -228.5t98.5 -177t173.5 -116t250.5 -40.5q141 0 249 41.5t174 116.5t99 176t33 225v918h-195z" />
<glyph unicode="&#x215;" d="M866 259q-111 -146 -298 -146q-123 0 -177.5 74.5t-54.5 220.5v674h-182v-678q0 -424 389 -424q214 0 337 155l10 -135h157v1082h-181v-823zM682 1264h112l-132 351h-167zM407 1264h108l-149 351h-184z" />
<glyph unicode="&#x216;" horiz-adv-x="1455" d="M488 1678h117q0 63 37.5 97t89.5 34q53 0 92.5 -34t39.5 -97h114q0 118 -68.5 181t-177.5 63t-176.5 -62.5t-67.5 -181.5zM1085 1457v-910q0 -206 -86.5 -309t-273.5 -103q-192 0 -276 102t-84 310v910h-195v-915q0 -127 32.5 -228.5t98.5 -177t173.5 -116t250.5 -40.5 q141 0 249 41.5t174 116.5t99 176t33 225v918h-195z" />
<glyph unicode="&#x217;" d="M866 259q-111 -146 -298 -146q-123 0 -177.5 74.5t-54.5 220.5v674h-182v-678q0 -424 389 -424q214 0 337 155l10 -135h157v1082h-181v-823zM358 1305h117q0 63 37.5 97t89.5 34q53 0 92.5 -34t39.5 -97h114q0 118 -68.5 181t-177.5 63t-176.5 -62.5t-67.5 -181.5z" />
<glyph unicode="&#x218;" horiz-adv-x="1222" d="M488 -523h122q4 14 11 37.5t24 86t30 112t23.5 95.5t10.5 58h-174q0 -31 -11.5 -128t-23.5 -179zM917 384q0 -130 -86.5 -190t-232.5 -60q-103 0 -200 36t-166 104h-13l-107 -103q67 -82 195 -136.5t292 -54.5q77 0 146.5 12.5t135.5 42t114.5 74.5t77.5 115.5t29 158.5 q0 55 -9 100.5t-23.5 80.5t-41.5 65.5t-54 52.5t-71 45.5t-81.5 40.5t-96.5 40l-205 83q-125 52 -166.5 92.5t-41.5 122.5q0 218 300 218q110 0 201.5 -36.5t148.5 -102.5h15l104 104q-77 88 -197.5 137.5t-263.5 49.5q-83 0 -153 -11t-136 -38.5t-112 -71t-74 -113 t-28 -159.5q0 -50 9 -90.5t29.5 -73t44 -56.5t64 -47.5t77.5 -41t94 -40.5l203 -84q89 -37 135 -60t83 -54t49 -65.5t12 -86.5z" />
<glyph unicode="&#x219;" horiz-adv-x="968" d="M723 307q0 -98 -56 -146.5t-162 -48.5q-197 0 -311 131h-14l-95 -92q66 -83 177 -127t243 -44q81 0 149 19.5t121.5 58.5t83.5 104.5t30 151.5q0 50 -10.5 88t-40.5 78t-91.5 75t-155.5 65l-120 38q-107 34 -141.5 66.5t-34.5 89.5q0 155 214 155q165 0 250 -102h10 l99 81q-51 72 -142.5 115t-217.5 43q-181 0 -286.5 -78t-105.5 -213q0 -54 10 -91t39.5 -76t90 -71.5t156.5 -62.5l122 -38q116 -36 152.5 -73.5t36.5 -95.5zM365 -523h122q4 14 11 37.5t24 86t30 112t23.5 95.5t10.5 58h-174q0 -31 -11.5 -128t-23.5 -179z" />
<glyph unicode="&#x21a;" horiz-adv-x="1149" d="M444 -523h122q4 14 11 37.5t24 86t30 112t23.5 95.5t10.5 58h-174q0 -31 -11.5 -128t-23.5 -179zM6 1456v-146h470v-1311h195v1311h472v146h-1137z" />
<glyph unicode="&#x21b;" horiz-adv-x="819" d="M586 -8h100l8 128l-108 4q-50 2 -80 8.5t-50 18t-28.5 38t-11.5 57t-3 87.5v638h288v111h-288v303l-151 -11l-26 -293l-171 -9l-5 -101h171v-637q0 -104 12 -164t50.5 -103t107.5 -59t185 -16zM334 -523h122q4 14 11 37.5t24 86t30 112t23.5 95.5t10.5 58h-174 q0 -31 -11.5 -128t-23.5 -179z" />
<glyph unicode="&#x21e;" horiz-adv-x="1541" d="M674 1612h193l196 347h-157l-135 -229l-137 229h-157zM1140 673v-674h195v1457h-195v-631h-739v631h-194v-1457h194v674h739z" />
<glyph unicode="&#x21f;" horiz-adv-x="1160" d="M167 0h181v596q0 75 16 138.5t51 118t98.5 86t149.5 31.5q114 0 164 -75t50 -234v-661h184v670q0 209 -93.5 322.5t-267.5 113.5q-258 0 -357 -226l6 267v413l-182 -20v-1540zM431 1550h193l196 347h-157l-135 -229l-137 229h-157z" />
<glyph unicode="&#x226;" horiz-adv-x="1419" d="M839 1805q0 58 -34.5 91.5t-97.5 33.5t-97.5 -33.5t-34.5 -91.5q0 -60 34.5 -94.5t97.5 -34.5t97.5 34.5t34.5 94.5zM608 1456l-545 -1456h192l167 453h573l168 -453h193l-550 1456h-198zM467 588l241 680l242 -680h-483z" />
<glyph unicode="&#x227;" horiz-adv-x="1120" d="M695 1432q0 58 -34.5 91.5t-97.5 33.5t-97.5 -33.5t-34.5 -91.5q0 -60 34.5 -94.5t97.5 -34.5t97.5 34.5t34.5 94.5zM490 109q-93 0 -148.5 43.5t-55.5 139.5q0 97 65.5 143t225.5 46l211 -1v-227q-52 -67 -128.5 -105.5t-169.5 -38.5zM113 294q0 -154 94.5 -234 t254.5 -80q214 0 342 153l13 -133h152v705q0 107 -30 185.5t-86 125t-129.5 68.5t-167.5 22q-112 0 -219 -26t-186 -76l53 -138q73 50 168.5 76t178.5 26q120 0 178.5 -59.5t58.5 -188.5v-125l-232 3h-12q-431 0 -431 -304z" />
<glyph unicode="&#x228;" horiz-adv-x="1309" d="M661 -413q109 0 180 54t71 145q0 79 -47 121t-122 42q-54 0 -105 -20l1 -52q26 5 55 5q58 0 83 -25.5t25 -64.5q0 -54 -41.5 -84t-105.5 -30q-63 0 -121 27l-31 -85q75 -33 158 -33zM203 1456v-1456h963l12 148h-781v532h700v147h-700v483h758l7 146h-959z" />
<glyph unicode="&#x229;" horiz-adv-x="1159" d="M309 627q14 159 99.5 251.5t216.5 92.5q127 0 191 -89t66 -255h-573zM1029 509l3 21q2 22 4 49t2 41q0 226 -112 356t-310 130q-103 0 -193 -38.5t-157.5 -110t-106.5 -179.5t-39 -240q0 -127 40 -233t109.5 -176.5t164 -109.5t204.5 -39q216 0 370 107l-42 119h-13 q-81 -46 -144.5 -68.5t-147.5 -22.5q-153 0 -248 97.5t-107 296.5h723zM583 -413q109 0 180 54t71 145q0 79 -47 121t-122 42q-54 0 -105 -20l1 -52q26 5 55 5q58 0 83 -25.5t25 -64.5q0 -54 -41.5 -84t-105.5 -30q-63 0 -121 27l-31 -85q75 -33 158 -33z" />
<glyph unicode="&#x22e;" horiz-adv-x="1620" d="M946 1805q0 58 -34.5 91.5t-97.5 33.5t-97.5 -33.5t-34.5 -91.5q0 -60 34.5 -94.5t97.5 -34.5t97.5 34.5t34.5 94.5zM1267 720q0 -586 -456 -586q-457 0 -457 586q0 140 26 248.5t80.5 189t143.5 122.5t209 42q454 0 454 -602zM156 721q0 -350 164.5 -545.5t492.5 -195.5 q323 0 487 196.5t164 542.5q0 355 -166.5 556t-483.5 201q-216 0 -365 -92.5t-221 -260.5t-72 -402z" />
<glyph unicode="&#x22f;" horiz-adv-x="1226" d="M608 -20q232 0 360.5 152.5t128.5 409.5q0 261 -127.5 412.5t-361.5 151.5q-235 0 -362.5 -151t-127.5 -413q0 -257 129 -409.5t361 -152.5zM608 115q-152 0 -227.5 115.5t-75.5 310.5q0 198 75.5 313.5t227.5 115.5t227 -115.5t75 -313.5q0 -194 -75 -310t-227 -116z M749 1431q0 58 -34.5 91.5t-97.5 33.5t-97.5 -33.5t-34.5 -91.5q0 -60 34.5 -94.5t97.5 -34.5t97.5 34.5t34.5 94.5z" />
<glyph unicode="&#x232;" horiz-adv-x="1364" d="M377 1717h584v100h-584v-100zM781 514l507 942h-194l-411 -772l-423 772h-184l511 -939v-517h194v514z" />
<glyph unicode="&#x233;" horiz-adv-x="1097" d="M1083 1082h-175l-329 -839l-350 839h-190l450 -1038l-160 -418l156 -40zM250 1344h584v100h-584v-100z" />
<glyph horiz-adv-x="2048" />
<glyph unicode="&#x259;" horiz-adv-x="1143" d="M864 459q-14 -159 -99.5 -251.5t-216.5 -92.5q-127 0 -191 89t-66 255h573zM144 577l-2 -21q-2 -22 -4.5 -49t-2.5 -41q0 -226 112 -356t310 -130q103 0 193 38.5t157.5 110t106.5 179.5t39 240q0 127 -40 233t-109.5 176.5t-164 109.5t-204.5 39q-216 0 -370 -107 l42 -119h13q81 46 144.5 68.5t147.5 22.5q153 0 248 -97.5t107 -296.5h-723z" />
<glyph unicode="&#x2c6;" horiz-adv-x="886" d="M136 1251h157l137 229l135 -229h157l-196 347h-193z" />
<glyph unicode="&#x2c7;" horiz-adv-x="899" d="M334 1238h193l196 347h-157l-135 -229l-137 229h-157z" />
<glyph unicode="&#x2c9;" horiz-adv-x="600" d="M-9 1316h611v131h-611v-131z" />
<glyph unicode="&#x2d8;" horiz-adv-x="874" d="M423 1288q110 0 178.5 62.5t68.5 181.5h-115q0 -64 -39.5 -97.5t-92.5 -33.5q-52 0 -89.5 33.5t-37.5 97.5h-117q0 -119 67.5 -181.5t176.5 -62.5z" />
<glyph unicode="&#x2d9;" horiz-adv-x="453" d="M358 1431q0 58 -34.5 91.5t-97.5 33.5t-97.5 -33.5t-34.5 -91.5q0 -60 34.5 -94.5t97.5 -34.5t97.5 34.5t34.5 94.5z" />
<glyph unicode="&#x2da;" horiz-adv-x="712" d="M345 1198q84 0 139 54.5t55 132.5t-55 132t-139 54t-138 -54t-54 -132q0 -79 54.5 -133t137.5 -54zM345 1281q-43 0 -69.5 29.5t-26.5 73.5q0 42 27 72t69 30t70 -30.5t28 -71.5q0 -43 -28 -73t-70 -30z" />
<glyph unicode="&#x2db;" horiz-adv-x="766" d="M442 -423q81 0 149 31l-3 109q-56 -25 -110 -25q-36 0 -59 20t-23 60q0 53 46.5 124t96.5 108h-84q-80 -33 -142 -111.5t-62 -161.5q0 -72 49.5 -113t141.5 -41z" />
<glyph unicode="&#x2dc;" horiz-adv-x="990" d="M173 1294h93q13 99 68 99q30 0 82.5 -24.5t111 -49.5t103.5 -25q71 0 111.5 55.5t40.5 157.5h-96q-12 -87 -61 -87q-24 0 -71 22t-105 44t-110 22q-79 0 -123 -55.5t-44 -158.5z" />
<glyph unicode="&#x2dd;" horiz-adv-x="813" d="M435 1247h108l225 351h-184zM157 1247h111l187 351h-167z" />
<glyph unicode="&#x307;" horiz-adv-x="437" d="M351 1452q0 56 -33 87.5t-94 31.5t-94 -31.5t-33 -87.5q0 -58 33 -90t94 -32t94 32t33 90z" />
<glyph unicode="&#x30f;" horiz-adv-x="890" d="M560 1247h112l-132 351h-167zM285 1247h108l-149 351h-184z" />
<glyph unicode="&#x311;" horiz-adv-x="797" d="M163 1288h117q0 63 37.5 97t89.5 34q53 0 92.5 -34t39.5 -97h114q0 118 -68.5 181t-177.5 63t-176.5 -62.5t-67.5 -181.5z" />
<glyph unicode="&#x312;" horiz-adv-x="600" d="M198 1304l-4 -22h197q0 31 8 156.5t16 235.5l8 110h-119q-106 -440 -106 -480z" />
<glyph unicode="&#x326;" horiz-adv-x="611" d="M194 -523h122q4 14 11 37.5t24 86t30 112t23.5 95.5t10.5 58h-174q0 -31 -11.5 -128t-23.5 -179z" />
<glyph unicode="&#x358;" horiz-adv-x="437" d="M351 1452q0 56 -33 87.5t-94 31.5t-94 -31.5t-33 -87.5q0 -58 33 -90t94 -32t94 32t33 90z" />
<glyph unicode="&#x394;" horiz-adv-x="1334" d="M264 152l397 1150l402 -1150h-799zM43 0h1243l-539 1486h-173z" />
<glyph unicode="&#x3a3;" horiz-adv-x="1064" d="M86 1456v-107l484 -727l-505 -719v-102h972v162h-728l474 655l-453 684h661v154h-905z" />
<glyph unicode="&#x3a9;" horiz-adv-x="1603" d="M123 0l-15 117h361q-158 109 -252 278.5t-94 377.5q0 201 90.5 355.5t247.5 236.5t355 82q201 0 355 -89.5t234.5 -242.5t80.5 -345q0 -106 -29.5 -206t-81 -181.5t-111.5 -146.5t-130 -119h357l-13 -117h-506l-1 110q163 109 261 275t98 366q0 116 -33.5 217.5 t-96.5 180.5t-163.5 124.5t-226.5 45.5q-236 0 -383.5 -155.5t-147.5 -407.5q0 -202 96 -371t259 -275l1 -110h-512z" />
<glyph unicode="&#x3bc;" horiz-adv-x="1197" d="M866 259q-111 -146 -298 -146q-123 0 -177.5 74.5t-54.5 220.5v674h-182v-1370h182v311q84 -43 207 -43q214 0 337 155l10 -135h157v1082h-181v-823z" />
<glyph unicode="&#x3c0;" horiz-adv-x="1445" d="M1143 -13q121 0 181 58v131q-2 -1 -24.5 -9t-35 -12t-32.5 -8.5t-35 -4.5q-124 0 -124 292q0 201 36 472h241v176h-909q-179 0 -248.5 -71t-69.5 -240h98q10 62 43 98.5t91 36.5h125l-65 -508q-10 -80 -37.5 -137.5t-67.5 -88t-83 -44t-92 -13.5v-111q106 0 180.5 13 t123 37.5t77 66t41 91t15.5 120.5l26 574h379q-8 -55 -24.5 -168t-25 -175t-16.5 -143.5t-8 -138.5q0 -145 55.5 -219.5t184.5 -74.5z" />
<glyph unicode="&#x1e02;" horiz-adv-x="1373" d="M791 1805q0 58 -34.5 91.5t-97.5 33.5t-97.5 -33.5t-34.5 -91.5q0 -60 34.5 -94.5t97.5 -34.5t97.5 34.5t34.5 94.5zM557 -9q366 0 525.5 103t159.5 338q0 140 -71.5 230t-228.5 128q248 80 248 308q0 40 -3.5 70.5t-16.5 71t-35.5 70t-65 60t-101.5 50t-147 32 t-199 12.5q-183 0 -419 -30v-1426q204 -17 354 -17zM397 1314q127 13 234 13q142 0 226.5 -27.5t119 -79.5t34.5 -135q0 -57 -18.5 -99.5t-48.5 -68t-76 -40.5t-93 -20.5t-107 -5.5h-271v463zM397 717h260q206 0 299 -67.5t93 -222.5q0 -56 -6.5 -93.5t-33 -78.5t-74 -65 t-134.5 -39.5t-211 -15.5q-81 0 -193 8v574z" />
<glyph unicode="&#x1e03;" horiz-adv-x="1220" d="M797 1431q0 58 -34.5 91.5t-97.5 33.5t-97.5 -33.5t-34.5 -91.5q0 -60 34.5 -94.5t97.5 -34.5t97.5 34.5t34.5 94.5zM630 115q-189 0 -287 135v309q0 194 75 302.5t231 108.5q74 0 127 -31t83 -90t43.5 -134t13.5 -173q0 -204 -70.5 -315.5t-215.5 -111.5zM675 1106 q-241 0 -332 -224l7 227v451l-182 -20v-1540h148l11 115q113 -135 314 -135q218 0 339.5 152.5t121.5 410.5q0 168 -44.5 292t-142 197.5t-240.5 73.5z" />
<glyph unicode="&#x1e0a;" horiz-adv-x="1500" d="M875 1805q0 58 -34.5 91.5t-97.5 33.5t-97.5 -33.5t-34.5 -91.5q0 -60 34.5 -94.5t97.5 -34.5t97.5 34.5t34.5 94.5zM203 10q167 -21 306 -21q155 0 280.5 24.5t216.5 72t157.5 113t106.5 151.5t58.5 183t18.5 212q0 96 -10 175.5t-33.5 154.5t-62.5 133t-98.5 107 t-138.5 80.5t-185.5 49t-237.5 17.5q-169 0 -378 -28v-1424zM397 135v1178q111 12 201 12q134 0 232.5 -27t160 -75t98.5 -123.5t51 -160.5t14 -199q0 -113 -15.5 -201.5t-56 -168t-106.5 -131.5t-171 -82.5t-245 -30.5q-76 0 -163 9z" />
<glyph unicode="&#x1e0b;" horiz-adv-x="1231" d="M671 1431q0 58 -34.5 91.5t-97.5 33.5t-97.5 -33.5t-34.5 -91.5q0 -60 34.5 -94.5t97.5 -34.5t97.5 34.5t34.5 94.5zM603 115q-149 0 -223.5 112t-74.5 320q0 203 75 313t222 110q89 0 161 -32.5t114 -92.5v-615q-94 -115 -274 -115zM584 -20q85 0 168 35.5t140 102.5 l10 -118h157v1560l-188 -20v-387l5 -161q-104 111 -279 111h-8h-6q-216 0 -340.5 -151.5t-124.5 -407.5q0 -257 121.5 -410.5t344.5 -153.5z" />
<glyph unicode="&#x1e1e;" horiz-adv-x="1203" d="M871 1805q0 58 -34.5 91.5t-97.5 33.5t-97.5 -33.5t-34.5 -91.5q0 -60 34.5 -94.5t97.5 -34.5t97.5 34.5t34.5 94.5zM203 1456v-1456h194v659h651v142h-651v506h763l10 149h-967z" />
<glyph unicode="&#x1e1f;" horiz-adv-x="782" d="M438 1082v80q0 135 35 178.5t141 43.5q57 0 105 -8l12 124q-4 1 -21.5 4.5t-55 8t-74.5 4.5h-15q-79 0 -132 -14t-95 -52t-62 -109t-20 -180v-83l-184 -14l-5 -94h189v-971h182v971h274v111h-274zM586 1804q0 58 -34.5 91.5t-97.5 33.5t-97.5 -33.5t-34.5 -91.5 q0 -60 34.5 -94.5t97.5 -34.5t97.5 34.5t34.5 94.5z" />
<glyph unicode="&#x1e40;" horiz-adv-x="1815" d="M1054 1805q0 58 -34.5 91.5t-97.5 33.5t-97.5 -33.5t-34.5 -91.5q0 -60 34.5 -94.5t97.5 -34.5t97.5 34.5t34.5 94.5zM183 -1h183v480l9 724l453 -1030h158l456 1020l8 -711v-483h182v487l-24 970h-225l-474 -1060l-471 1060h-231l-24 -971v-486z" />
<glyph unicode="&#x1e41;" horiz-adv-x="1842" d="M1015 596q0 169 89 271.5t199 102.5q61 0 102.5 -27.5t61.5 -77.5t27.5 -102t7.5 -119v-644h181v697q0 199 -89 304t-256 105q-120 0 -212 -63.5t-144 -191.5q-31 121 -112.5 188t-204.5 67q-110 0 -195.5 -58t-134.5 -178l-19 212h-152v-1082h182v638q19 149 92 240.5 t191 91.5q109 0 156.5 -85.5t47.5 -274.5v-610h182v596zM1132 1431q0 58 -34.5 91.5t-97.5 33.5t-97.5 -33.5t-34.5 -91.5q0 -60 34.5 -94.5t97.5 -34.5t97.5 34.5t34.5 94.5z" />
<glyph unicode="&#x1e56;" horiz-adv-x="1307" d="M825 1805q0 58 -34.5 91.5t-97.5 33.5t-97.5 -33.5t-34.5 -91.5q0 -60 34.5 -94.5t97.5 -34.5t97.5 34.5t34.5 94.5zM203 1434v-1434h194v636q100 -9 213 -9q144 0 251 21.5t173.5 58.5t107 94t56 119.5t15.5 142.5q0 137 -54.5 223t-185 131.5t-348.5 45.5 q-172 0 -422 -29zM397 774v539q133 13 240 13q120 0 199.5 -17t122 -53.5t59 -82.5t16.5 -114q0 -59 -9.5 -101.5t-36.5 -81t-73.5 -62t-122 -37t-181.5 -13.5q-98 0 -214 10z" />
<glyph unicode="&#x1e57;" horiz-adv-x="1247" d="M630 115q-187 0 -285 135v325q2 185 76 290t228 105q74 0 127 -31t83.5 -90t44 -134t13.5 -173q0 -205 -70.5 -316t-216.5 -111zM170 -458h181v391l-5 156q107 -109 300 -109q210 0 334 155t124 405q0 262 -108 414t-321 152q-123 0 -210 -62.5t-126 -184.5l-17 223h-152 v-1540zM787 1414q0 58 -34.5 91.5t-97.5 33.5t-97.5 -33.5t-34.5 -91.5q0 -60 34.5 -94.5t97.5 -34.5t97.5 34.5t34.5 94.5z" />
<glyph unicode="&#x1e60;" horiz-adv-x="1222" d="M753 1823q0 58 -34.5 91.5t-97.5 33.5t-97.5 -33.5t-34.5 -91.5q0 -60 34.5 -94.5t97.5 -34.5t97.5 34.5t34.5 94.5zM917 384q0 -130 -86.5 -190t-232.5 -60q-103 0 -200 36t-166 104h-13l-107 -103q67 -82 195 -136.5t292 -54.5q77 0 146.5 12.5t135.5 42t114.5 74.5 t77.5 115.5t29 158.5q0 55 -9 100.5t-23.5 80.5t-41.5 65.5t-54 52.5t-71 45.5t-81.5 40.5t-96.5 40l-205 83q-125 52 -166.5 92.5t-41.5 122.5q0 218 300 218q110 0 201.5 -36.5t148.5 -102.5h15l104 104q-77 88 -197.5 137.5t-263.5 49.5q-83 0 -153 -11t-136 -38.5 t-112 -71t-74 -113t-28 -159.5q0 -50 9 -90.5t29.5 -73t44 -56.5t64 -47.5t77.5 -41t94 -40.5l203 -84q89 -37 135 -60t83 -54t49 -65.5t12 -86.5z" />
<glyph unicode="&#x1e61;" horiz-adv-x="968" d="M723 307q0 -98 -56 -146.5t-162 -48.5q-197 0 -311 131h-14l-95 -92q66 -83 177 -127t243 -44q81 0 149 19.5t121.5 58.5t83.5 104.5t30 151.5q0 50 -10.5 88t-40.5 78t-91.5 75t-155.5 65l-120 38q-107 34 -141.5 66.5t-34.5 89.5q0 155 214 155q165 0 250 -102h10 l99 81q-51 72 -142.5 115t-217.5 43q-181 0 -286.5 -78t-105.5 -213q0 -54 10 -91t39.5 -76t90 -71.5t156.5 -62.5l122 -38q116 -36 152.5 -73.5t36.5 -95.5zM621 1431q0 58 -34.5 91.5t-97.5 33.5t-97.5 -33.5t-34.5 -91.5q0 -60 34.5 -94.5t97.5 -34.5t97.5 34.5 t34.5 94.5z" />
<glyph unicode="&#x1e6a;" horiz-adv-x="1149" d="M711 1805q0 58 -34.5 91.5t-97.5 33.5t-97.5 -33.5t-34.5 -91.5q0 -60 34.5 -94.5t97.5 -34.5t97.5 34.5t34.5 94.5zM6 1456v-146h470v-1311h195v1311h472v146h-1137z" />
<glyph unicode="&#x1e6b;" horiz-adv-x="819" d="M586 -8h100l8 128l-108 4q-50 2 -80 8.5t-50 18t-28.5 38t-11.5 57t-3 87.5v638h288v111h-288v303l-151 -11l-26 -293l-171 -9l-5 -101h171v-637q0 -104 12 -164t50.5 -103t107.5 -59t185 -16zM482 1630q0 58 -34.5 91.5t-97.5 33.5t-97.5 -33.5t-34.5 -91.5 q0 -60 34.5 -94.5t97.5 -34.5t97.5 34.5t34.5 94.5z" />
<glyph unicode="&#x1e80;" horiz-adv-x="1979" d="M932 1599h119l-195 377h-232zM999 1191l338 -1191h187l378 1456h-188l-286 -1210l-339 1181h-182l-342 -1168l-314 1197h-174l387 -1456h184z" />
<glyph unicode="&#x1e81;" horiz-adv-x="1522" d="M760 907l278 -908h164l282 1083h-166l-201 -847l-266 847h-190l-250 -844l-216 844h-171l296 -1083h163zM692 1226h119l-195 377h-232z" />
<glyph unicode="&#x1e82;" horiz-adv-x="1979" d="M938 1583h119l299 377h-222zM999 1191l338 -1191h187l378 1456h-188l-286 -1210l-339 1181h-182l-342 -1168l-314 1197h-174l387 -1456h184z" />
<glyph unicode="&#x1e83;" horiz-adv-x="1479" d="M760 907l278 -908h164l282 1083h-166l-201 -847l-266 847h-190l-250 -844l-216 844h-171l296 -1083h163zM684 1226h119l299 377h-222z" />
<glyph unicode="&#x1e84;" horiz-adv-x="1979" d="M1210 1664q52 0 79 30.5t27 78.5t-27 78.5t-79 30.5q-54 0 -81 -30.5t-27 -78.5t27.5 -78.5t80.5 -30.5zM775 1664q52 0 79 30.5t27 78.5t-27 78.5t-79 30.5q-53 0 -80 -30.5t-27 -78.5t27.5 -78.5t79.5 -30.5zM999 1191l338 -1191h187l378 1456h-188l-286 -1210 l-339 1181h-182l-342 -1168l-314 1197h-174l387 -1456h184z" />
<glyph unicode="&#x1e85;" horiz-adv-x="1479" d="M760 907l278 -908h164l282 1083h-166l-201 -847l-266 847h-190l-250 -844l-216 844h-171l296 -1083h163zM947 1290q52 0 79 30.5t27 78.5t-27 78.5t-79 30.5q-54 0 -81 -30.5t-27 -78.5t27.5 -78.5t80.5 -30.5zM512 1290q52 0 79 30.5t27 78.5t-27 78.5t-79 30.5 q-53 0 -80 -30.5t-27 -78.5t27.5 -78.5t79.5 -30.5z" />
<glyph unicode="&#x1ebc;" horiz-adv-x="1309" d="M417 1684h93q13 99 68 99q30 0 82.5 -24.5t111 -49.5t103.5 -25q71 0 111.5 55.5t40.5 157.5h-96q-12 -87 -61 -87q-24 0 -71 22t-105 44t-110 22q-79 0 -123 -55.5t-44 -158.5zM203 1456v-1456h963l12 148h-781v532h700v147h-700v483h758l7 146h-959z" />
<glyph unicode="&#x1ebd;" horiz-adv-x="1143" d="M304 1310h93q13 99 68 99q30 0 82.5 -24.5t111 -49.5t103.5 -25q71 0 111.5 55.5t40.5 157.5h-96q-12 -87 -61 -87q-24 0 -71 22t-105 44t-110 22q-79 0 -123 -55.5t-44 -158.5zM309 627q14 159 99.5 251.5t216.5 92.5q127 0 191 -89t66 -255h-573zM1029 509l3 21 q2 22 4 49t2 41q0 226 -112 356t-310 130q-103 0 -193 -38.5t-157.5 -110t-106.5 -179.5t-39 -240q0 -127 40 -233t109.5 -176.5t164 -109.5t204.5 -39q216 0 370 107l-42 119h-13q-81 -46 -144.5 -68.5t-147.5 -22.5q-153 0 -248 97.5t-107 296.5h723z" />
<glyph unicode="&#x1ef2;" horiz-adv-x="1364" d="M614 1599h119l-195 377h-232zM781 514l507 942h-194l-411 -772l-423 772h-184l511 -939v-517h194v514z" />
<glyph unicode="&#x1ef3;" horiz-adv-x="1131" d="M1083 1082h-175l-329 -839l-350 839h-190l450 -1038l-160 -418l156 -40zM501 1209h119l-195 377h-232z" />
<glyph unicode="&#x1ef8;" horiz-adv-x="1364" d="M362 1684h93q13 99 68 99q30 0 82.5 -24.5t111 -49.5t103.5 -25q71 0 111.5 55.5t40.5 157.5h-96q-12 -87 -61 -87q-24 0 -71 22t-105 44t-110 22q-79 0 -123 -55.5t-44 -158.5zM781 514l507 942h-194l-411 -772l-423 772h-184l511 -939v-517h194v514z" />
<glyph unicode="&#x1ef9;" horiz-adv-x="1097" d="M1083 1082h-175l-329 -839l-350 839h-190l450 -1038l-160 -418l156 -40zM235 1311h93q13 99 68 99q30 0 82.5 -24.5t111 -49.5t103.5 -25q71 0 111.5 55.5t40.5 157.5h-96q-12 -87 -61 -87q-24 0 -71 22t-105 44t-110 22q-79 0 -123 -55.5t-44 -158.5z" />
<glyph unicode="&#x2013;" horiz-adv-x="1319" d="M72 523h1176v130h-1176v-130z" />
<glyph unicode="&#x2014;" horiz-adv-x="2128" d="M60 515h2008v143h-2008v-143z" />
<glyph unicode="&#x2018;" horiz-adv-x="525" d="M397 1503h-129l-110 -484h193z" />
<glyph unicode="&#x2019;" horiz-adv-x="525" d="M158 1019h130l109 484h-193z" />
<glyph unicode="&#x201a;" horiz-adv-x="459" d="M99 -313h122l112 474h-180z" />
<glyph unicode="&#x201c;" horiz-adv-x="906" d="M512 1019h193l46 484h-130zM158 1019h193l46 484h-129z" />
<glyph unicode="&#x201d;" horiz-adv-x="906" d="M158 1019h130l109 484h-193zM512 1019h129l110 484h-193z" />
<glyph unicode="&#x201e;" horiz-adv-x="765" d="M419 -313h117l110 474h-179zM109 -313h120l106 474h-175z" />
<glyph unicode="&#x2020;" horiz-adv-x="1060" d="M461 1491v-382h-288v-111h288v-901h129v901h294v111h-295v382h-128z" />
<glyph unicode="&#x2021;" horiz-adv-x="1032" d="M458 1473v-384h-279v-109h279v-431h-279v-105h279v-386h130v386h276v105h-275v431h276v109h-280v384h-127z" />
<glyph unicode="&#x2022;" horiz-adv-x="913" d="M445 407q133 0 227.5 91t94.5 243q0 151 -92.5 240.5t-223.5 89.5q-133 0 -227 -91.5t-94 -243.5q0 -150 92 -239.5t223 -89.5z" />
<glyph unicode="&#x2026;" horiz-adv-x="1481" d="M254 -11q106 0 106 123q0 120 -106 120q-108 0 -108 -120q0 -123 108 -123zM780 -11q106 0 106 123q0 120 -106 120q-108 0 -108 -120q0 -123 108 -123zM1275 -11q106 0 106 123q0 120 -106 120q-108 0 -108 -120q0 -123 108 -123z" />
<glyph unicode="&#x2030;" horiz-adv-x="2339" d="M1873 -4q161 0 236 105t75 280q0 86 -16.5 154t-52 120.5t-97 81t-145.5 28.5q-82 0 -142.5 -29t-96.5 -81.5t-53.5 -121t-17.5 -152.5t17 -152t52.5 -121.5t96.5 -82.5t144 -29zM1875 100q-56 0 -93.5 20.5t-57 60.5t-27.5 87.5t-8 113.5q0 64 8 111t27.5 86.5t57 60 t93.5 20.5q55 0 92 -19.5t56.5 -58.5t27 -86.5t7.5 -113.5q0 -64 -7.5 -111.5t-26.5 -88t-56.5 -61.5t-92.5 -21zM1171 -4q161 0 236.5 105t75.5 280q0 86 -17 154t-52.5 120.5t-97 81t-145.5 28.5q-82 0 -142.5 -29t-96.5 -81.5t-53.5 -121t-17.5 -152.5t17 -152 t52.5 -121.5t96.5 -82.5t144 -29zM1173 100q-56 0 -93.5 20.5t-57 60.5t-27 87.5t-7.5 113.5q0 64 7.5 111t27 86.5t57 60t93.5 20.5q55 0 92 -19.5t56.5 -58.5t27.5 -86.5t8 -113.5q0 -64 -7.5 -111.5t-27 -88t-57 -61.5t-92.5 -21zM295 0h142l822 1463h-133zM384 715 q161 0 236.5 105t75.5 280q0 86 -17 153.5t-52.5 120t-97 81t-145.5 28.5q-82 0 -141.5 -28.5t-94 -81.5t-50.5 -120.5t-16 -152.5q0 -385 302 -385zM386 819q-56 0 -93.5 20.5t-57 60.5t-27 87.5t-7.5 113.5q0 64 7.5 111t27 86.5t57 60t93.5 20.5q55 0 92 -19.5t56.5 -59 t27.5 -86.5t8 -113q0 -64 -7.5 -111.5t-27 -88t-57 -61.5t-92.5 -21z" />
<glyph unicode="&#x2039;" horiz-adv-x="629" d="M380 150h161l-274 406l282 405h-165l-287 -408z" />
<glyph unicode="&#x203a;" horiz-adv-x="766" d="M154 150h163l292 421l-295 429h-164l282 -429z" />
<glyph unicode="&#x2044;" horiz-adv-x="1043" d="M128 0h150l651 1467h-153z" />
<glyph unicode="&#x2074;" horiz-adv-x="701" d="M180 929l230 397l-1 -397h-229zM409 621h125l-1 207h115l6 101h-119v560h-134l-353 -554v-107h361v-207z" />
<glyph unicode="&#x20ac;" horiz-adv-x="1391" d="M-53 528h861l7 115h-599v174h599l7 113h-863l-5 -113h168v-174h-168zM1266 1097q-25 123 -109.5 211t-195 129t-235.5 41q-296 0 -472.5 -198.5t-176.5 -550.5t176.5 -550.5t472.5 -198.5q126 0 237.5 41t196.5 129.5t110 210.5l-140 51h-16q-27 -121 -132.5 -200 t-242.5 -79q-215 0 -339.5 152.5t-124.5 443.5t124 443t340 152q137 0 240.5 -78t130.5 -200h16z" />
<glyph unicode="&#x2113;" horiz-adv-x="1218" d="M632 804l97 374q6 25 17 71t17 68.5t17 58t21.5 55t25.5 42t34.5 35.5t43.5 20q33 10 62 10q66 0 100.5 -45.5t34.5 -107.5q0 -119 -64.5 -215t-195.5 -200zM304 264q0 -146 68 -215t190 -69q64 0 126 12t105.5 29.5t78 35t51.5 29.5l17 12l-24 123q-165 -88 -274 -88 q-127 0 -127 137q0 62 22 147l52 212l294 236q192 153 265.5 261t73.5 260q0 146 -87.5 224t-212.5 79q-54 0 -102 -14.5t-94 -46.5t-83 -91t-59 -141l-205 -757l-300 -225l46 -80l214 159q-35 -128 -35 -229z" />
<glyph unicode="&#x2122;" horiz-adv-x="2201" d="M391 522h146v816h312v118h-768v-118h310v-816zM974 522h131l6 745l303 -634h103l304 626l7 -737h129l-17 934h-149l-324 -662l-323 662h-153z" />
<glyph unicode="&#x2126;" horiz-adv-x="1603" d="M123 0l-15 117h361q-158 109 -252 278.5t-94 377.5q0 201 90.5 355.5t247.5 236.5t355 82q201 0 355 -89.5t234.5 -242.5t80.5 -345q0 -106 -29.5 -206t-81 -181.5t-111.5 -146.5t-130 -119h357l-13 -117h-506l-1 110q163 109 261 275t98 366q0 116 -33.5 217.5 t-96.5 180.5t-163.5 124.5t-226.5 45.5q-236 0 -383.5 -155.5t-147.5 -407.5q0 -202 96 -371t259 -275l1 -110h-512z" />
<glyph unicode="&#x212e;" horiz-adv-x="1218" d="M1004 600h-679q11 193 107 316t227 123q152 0 248.5 -129t96.5 -310zM102 540q0 -121 35.5 -222.5t105 -177t179 -118t249.5 -42.5q266 0 441 208l-51 51q-83 -89 -174 -137.5t-216 -48.5q-167 0 -257 127t-91 340h797q0 132 -28.5 237t-85 182t-146 118.5t-207.5 41.5 q-158 0 -284.5 -73t-196.5 -200.5t-70 -285.5z" />
<glyph unicode="&#x2202;" horiz-adv-x="1183" d="M485 89q-59 0 -90 48.5t-31 127.5q0 66 20.5 140t63 148t101 134t142 99t177.5 43q-6 -92 -22.5 -187.5t-48 -196.5t-73.5 -178.5t-104 -127.5t-135 -50zM471 -19q168 0 300.5 122t204 333t71.5 472q0 150 -40.5 274t-111 206t-164.5 127t-202 45q-144 0 -291 -80l39 -99 q106 50 210 50q168 0 277.5 -126t109.5 -339q0 -29 -1 -44q-110 0 -210 -28.5t-176.5 -76t-138.5 -110t-101.5 -133t-61 -143.5t-21.5 -142q0 -135 78.5 -221.5t228.5 -86.5z" />
<glyph unicode="&#x2205;" horiz-adv-x="1678" d="M112 733q0 152 60.5 290.5t159.5 236.5t230.5 155.5t269.5 57.5q129 0 251 -49t221 -138l177 199l37 -29l-181 -202q101 -102 158 -236.5t57 -284.5q0 -152 -60.5 -290.5t-159.5 -236.5t-230.5 -155.5t-269.5 -57.5q-126 0 -245.5 47t-217.5 132l-192 -215l-32 29 l192 216q-105 103 -165 240t-60 291zM398 204q92 -80 204 -123.5t230 -43.5q130 0 253.5 54.5t217 146t150 222t56.5 273.5q0 141 -53.5 266.5t-147.5 222.5zM366 234l909 1020q-92 83 -207 129t-236 46q-130 0 -253.5 -54.5t-217 -146t-150 -222t-56.5 -273.5 q0 -145 56 -274t155 -225z" />
<glyph unicode="&#x2206;" horiz-adv-x="1283" d="M672 1196l350 -1022h-760l344 1022l32 118zM549 1542l-483 -1457v-85h1153v85l-483 1457h-187z" />
<glyph unicode="&#x220f;" horiz-adv-x="1538" d="M199 1500v-1500h173v1349h796v-1349h173v1500h-1142z" />
<glyph unicode="&#x2211;" horiz-adv-x="1064" d="M86 1456v-107l484 -727l-505 -719v-102h972v162h-728l474 655l-453 684h661v154h-905z" />
<glyph unicode="&#x2212;" horiz-adv-x="1169" d="M104 666v-144h966v144h-966z" />
<glyph unicode="&#x2215;" horiz-adv-x="884" d="M65 -145h151l616 1705h-154z" />
<glyph unicode="&#x2219;" horiz-adv-x="648" d="M892 508q51 0 83.5 32.5t32.5 83.5t-32.5 82.5t-83.5 31.5t-84 -31.5t-33 -82.5t33 -83.5t84 -32.5z" />
<glyph unicode="&#x221a;" horiz-adv-x="1158" d="M998 1705q-57 -239 -195.5 -807.5t-202.5 -837.5q-39 128 -87 267t-109.5 309.5t-93.5 262.5l-261 -62l15 -121l148 32l327 -911h149l437 1868h-127z" />
<glyph unicode="&#x221e;" horiz-adv-x="1659" d="M1454 659q0 -123 -56 -200t-163 -77q-86 0 -159.5 59.5t-168.5 191.5q165 249 324 249q96 0 159.5 -65.5t63.5 -157.5zM751 631q-168 -249 -327 -249q-102 0 -168.5 76t-66.5 175q0 105 62.5 177t165.5 72q177 0 334 -251zM829 739q-98 134 -195.5 203.5t-215.5 69.5 q-145 0 -246 -104t-101 -254q0 -171 95 -288.5t256 -117.5q115 0 213 70.5t194 201.5q102 -140 198.5 -206t205.5 -66q148 0 248 109t100 279q0 168 -91.5 272t-254.5 104q-82 0 -156.5 -36.5t-132 -93.5t-117.5 -143z" />
<glyph unicode="&#x222b;" horiz-adv-x="971" d="M509 1156v-1196q0 -137 -32 -203t-123 -66q-46 0 -96 14v-110q60 -14 117 -14q266 0 266 387v1197q0 131 29.5 194.5t111.5 63.5q41 0 92 -16v105q-68 16 -123 16q-129 0 -185.5 -91.5t-56.5 -280.5z" />
<glyph unicode="&#x2248;" horiz-adv-x="1151" d="M134 429q34 71 90 116.5t120 45.5q30 0 67 -10.5t66.5 -22.5t82.5 -36q15 -7 22 -10q149 -70 232 -70q176 0 254 209l-56 87q-29 -69 -83.5 -114t-113.5 -45q-12 0 -25.5 2t-30 7t-29.5 9.5t-34.5 13.5t-34 14t-38.5 17t-38 17q-85 40 -134 55.5t-105 15.5 q-95 0 -162 -56.5t-102 -150.5zM134 768q34 71 90 116.5t120 45.5q30 0 67 -10.5t66.5 -22.5t82.5 -36q15 -7 22 -10q151 -71 232 -71q176 0 254 209l-56 87q-29 -68 -83.5 -113t-113.5 -45q-12 0 -25.5 2t-30 7t-29.5 9.5t-34.5 13.5t-34 14t-38.5 17t-38 17 q-86 39 -134.5 54.5t-104.5 15.5q-95 0 -162 -56t-102 -150z" />
<glyph unicode="&#x2260;" horiz-adv-x="1089" d="M315 47l142 303h545l-7 124h-484l157 307h334l-9 127h-271l114 278l-104 14l-137 -292h-529l8 -126h465l-152 -307h-320l7 -125h254l-116 -284z" />
<glyph unicode="&#x2264;" horiz-adv-x="1192" d="M127 7h934v129l-934 1v-130zM1034 244v145l-704 374l700 398v147l-884 -503v-85z" />
<glyph unicode="&#x2265;" horiz-adv-x="1192" d="M129 8h934v130l-934 -1v-129zM157 234l888 481v85l-885 509v-148l705 -403l-708 -378v-146z" />
<glyph unicode="&#x25ca;" horiz-adv-x="1169" d="M901 764q-7 -13 -156 -311t-160 -318q-9 18 -157 315.5t-157 315.5q9 17 160 311.5t161 312.5q9 -18 154.5 -313.5t154.5 -312.5zM537 1579l-417 -815l410 -811h104l419 813l-411 813h-105z" />
<glyph horiz-adv-x="1347" d="M280 2l389 276l397 -276l-144 459l391 294h-485l-159 460l-150 -460h-485l389 -294zM485 405v267h106l170 -149v149h106v-267h-106l-170 147v-147h-106z" />
<glyph unicode="&#x2bc;" horiz-adv-x="645" d="M115 1154h142q95 348 111 437h-188z" />
<glyph horiz-adv-x="735" d="M462 1159h133l80 383h-178z" />
<glyph unicode="&#x237;" horiz-adv-x="595" d="M241 1082v-1063q0 -47 -1 -71.5t-3.5 -54t-9 -43.5t-17 -30.5t-28 -25t-40 -16.5t-56.5 -16l-65 -15l29 -142l62 10q88 14 144 36t95 64.5t55.5 108t16.5 164.5v1094h-182z" />
<glyph horiz-adv-x="1348" d="M1212 1431q0 58 -34.5 91.5t-97.5 33.5t-97.5 -33.5t-34.5 -91.5q0 -60 34.5 -94.5t97.5 -34.5t97.5 34.5t34.5 94.5zM1000 1082v-1063q0 -47 -1 -71.5t-3.5 -54t-9 -43.5t-17 -30.5t-28 -25t-40 -16.5t-56.5 -16l-65 -15l29 -142l62 10q88 14 144 36t95 64.5t55.5 108 t16.5 164.5v1094h-182zM438 1082v80q0 135 35 178.5t141 43.5q57 0 105 -8l12 124q-4 1 -21.5 4.5t-55 8t-74.5 4.5h-15q-79 0 -132 -14t-95 -52t-62 -109t-20 -180v-83l-184 -14l-5 -94h189v-971h182v971h274v111h-274z" />
<glyph horiz-adv-x="535" d="M183 1082v-1082h182v1082h-182zM408 1431q0 58 -34.5 91.5t-97.5 33.5t-97.5 -33.5t-34.5 -91.5q0 -60 34.5 -94.5t97.5 -34.5t97.5 34.5t34.5 94.5z" />
<glyph horiz-adv-x="604" d="M315 502q106 0 106 123q0 120 -106 120q-108 0 -108 -120q0 -123 108 -123z" />
<glyph horiz-adv-x="854" d="M184 486l593 325v133l-593 -325v-133z" />
</font>
</defs>
</svg>
